<?xml version="1.0" standalone="no"?>
<!DOCTYPE svg PUBLIC "-//W3C//DTD SVG 1.1//EN" "http://www.w3.org/Graphics/SVG/1.1/DTD/svg11.dtd" >
<svg xmlns="http://www.w3.org/2000/svg" xmlns:xlink="http://www.w3.org/1999/xlink" version="1.1">
<metadata>
Created by FontForge 20161003 at Thu Jul 27 10:37:40 2017
 By www-data
Copyright (c) 2011 by Brian J. Bonislawsky DBA Astigmatic (AOETI) (astigma@astigmatic.com), with ReservedFont Name "Dynalight"
</metadata>
<defs>
<font id="DynalightRegular" horiz-adv-x="800" >
  <font-face 
    font-family="DynalightRegular"
    font-weight="400"
    font-stretch="normal"
    units-per-em="2048"
    panose-1="3 2 5 2 3 5 7 7 10 3"
    ascent="1638"
    descent="-410"
    x-height="718"
    cap-height="1434"
    bbox="-400 -645 2007 1840"
    underline-thickness="41"
    underline-position="-312"
    unicode-range="U+0020-FB02"
  />
<missing-glyph horiz-adv-x="490" 
 />
    <glyph glyph-name="fi" unicode="fi" horiz-adv-x="941" 
d="M633 573q3 7 3 11q0 6 -3.5 8.5t-8.5 2.5q-10 0 -18 -11l-177 -219q-63 -78 -119 -138.5t-112.5 -113.5t-116.5 -103.5t-130 -107.5l-155 -375l-142 -45l482 1161q-16 -25 -37 -55.5t-49.5 -68.5t-65 -84t-82.5 -103l-25 20q94 115 155 198t101 146t65 112t47 98
q34 75 68 136t69.5 104t73 66.5t78.5 23.5q39 0 62.5 -28t23.5 -69q0 -75 -36 -153.5t-94 -155.5t-130.5 -151t-145.5 -141l-233 -563q41 30 88 68.5t100 88t112 112t123 141.5l204 252q26 32 54.5 56.5t59.5 24.5q29 0 42 -15.5t13 -34.5t-7 -43t-18 -50l-168 -405
q-4 -10 -7 -19.5t-3 -16.5q0 -12 5.5 -16t14.5 -4q14 0 34 14t42 41l183 226l25 -20l-221 -273q-24 -30 -45 -50t-39.5 -31.5t-37 -16.5t-37.5 -5q-30 0 -50 17.5t-20 44.5q0 25 12 59t33 83zM248 619q72 70 133 138.5t105 134t68.5 127.5t24.5 120q0 18 -6 36t-26 18
q-35 0 -70.5 -54t-74.5 -148zM870 1115q30 0 47 -21.5t17 -50.5q0 -16 -5.5 -32.5t-16 -29.5t-25 -21.5t-33.5 -8.5q-29 0 -47 22.5t-18 50.5q0 21 7.5 37.5t19 28.5t26 18.5t28.5 6.5z" />
    <glyph glyph-name="fl" unicode="fl" horiz-adv-x="915" 
d="M558 170q-4 -10 -7 -19.5t-3 -16.5q0 -12 5.5 -16t14.5 -4q14 0 34 14t42 41l183 226l25 -20l-221 -273q-24 -30 -43.5 -50t-37 -31.5t-35 -16.5t-36.5 -5q-30 0 -50 17.5t-20 44.5q0 25 12.5 59t32.5 83l189 451q-29 -47 -79.5 -115t-134.5 -174q-62 -78 -118.5 -138.5
t-113 -114t-116.5 -103.5t-130 -107l-155 -375l-142 -45l482 1161q-16 -25 -37 -55.5t-49.5 -68.5t-65 -84t-82.5 -103l-25 20q94 115 155 198t101 146t65 112t47 98q34 75 68 136t69.5 104t73 66.5t78.5 23.5q39 0 62.5 -28t23.5 -69q0 -75 -36 -153.5t-94 -155.5
t-130.5 -151t-145.5 -141l-234 -567q39 29 83.5 65.5t94.5 83.5t105 105t114 130q70 85 122 151.5t89.5 119.5t64 96t46.5 80.5t35.5 72.5t31.5 73l114 271h120zM248 619q72 70 133 138.5t105 134t68.5 127.5t24.5 120q0 18 -6 36t-26 18q-35 0 -70.5 -54t-74.5 -148z" />
    <glyph glyph-name=".notdef" horiz-adv-x="490" 
 />
    <glyph glyph-name=".null" horiz-adv-x="0" 
 />
    <glyph glyph-name="nonmarkingreturn" horiz-adv-x="490" 
 />
    <glyph glyph-name="space" unicode=" " horiz-adv-x="490" 
 />
    <glyph glyph-name="exclam" unicode="!" horiz-adv-x="445" 
d="M41 199h-27l481 1198h141zM51 66q0 -29 -21 -50.5t-50 -21.5t-49.5 21.5t-20.5 50.5t20.5 49t49.5 20t50 -20t21 -49z" />
    <glyph glyph-name="quotedbl" unicode="&#x22;" horiz-adv-x="332" 
d="M354 994h-47l121 363h125zM186 994h-45l119 363h125z" />
    <glyph glyph-name="numbersign" unicode="#" horiz-adv-x="674" 
d="M-24 204l102 232h-130l21 46h128l108 245h-136l21 46h134l92 209h51l-92 -209h142l92 209h50l-92 -209h137l-21 -46h-135l-108 -245h143l-21 -46h-141l-102 -232h-50l102 232h-142l-102 -232h-51zM290 482l108 245h-142l-108 -245h142z" />
    <glyph glyph-name="dollar" unicode="$" horiz-adv-x="680" 
d="M475 1138q31 -9 57 -22.5t47.5 -30t39 -34t30.5 -34.5l-84 -68q-53 99 -107 137l-131 -403q26 -33 51.5 -67.5t45.5 -71t32.5 -76t12.5 -81.5q0 -68 -27.5 -120.5t-71 -88t-97.5 -53.5t-106 -18h-13.5t-12.5 1l-65 -201l-46 14l63 194q-35 8 -65 22t-55 31t-44.5 36
t-33.5 37l84 68q32 -59 64 -94.5t65 -52.5l139 426q-27 34 -54 69.5t-48.5 72.5t-34.5 74.5t-13 76.5q0 72 26.5 123.5t68 84t93 47.5t102.5 15q21 0 42 -3l53 163l44 -16zM195 923q0 -50 28.5 -97.5t68.5 -98.5l123 380q-20 5 -37 5q-36 0 -69 -11.5t-58.5 -34.5t-40.5 -59
t-15 -84zM369 354q0 47 -25.5 94t-61.5 95l-128 -396q5 -1 10.5 -1h11.5q36 0 70.5 14.5t62 41.5t44 65.5t16.5 86.5z" />
    <glyph glyph-name="percent" unicode="%" horiz-adv-x="1077" 
d="M199 657q-64 0 -103.5 43.5t-39.5 117.5q0 75 30 147t77.5 129t107 91.5t119.5 34.5q64 0 103.5 -43.5t39.5 -117.5q0 -75 -30 -147t-77.5 -129t-107 -91.5t-119.5 -34.5zM212 700q27 0 54.5 17t53 46.5t48 68t39 81.5t26 87.5t9.5 85.5q0 49 -18 71.5t-46 22.5
q-27 0 -54.5 -17.5t-53.5 -47t-48 -68.5t-39 -82t-26.5 -87.5t-9.5 -85.5q0 -50 19 -71t46 -21zM124 0h-84l803 1219h84zM577 0q-64 0 -103.5 43.5t-39.5 117.5q0 75 30 147t77.5 129t107 91.5t119.5 34.5q64 0 103.5 -43.5t39.5 -117.5q0 -75 -30 -147t-77.5 -129
t-107 -91.5t-119.5 -34.5zM590 43q27 0 54.5 17t53 46.5t48 68t39 81.5t26 87.5t9.5 85.5q0 49 -18 71.5t-46 22.5q-27 0 -54.5 -17.5t-53.5 -47t-48 -68.5t-39 -82t-26.5 -87.5t-9.5 -85.5q0 -50 19 -71t46 -21z" />
    <glyph glyph-name="ampersand" unicode="&#x26;" horiz-adv-x="886" 
d="M778 207h-262q-23 -47 -58 -87.5t-78.5 -70.5t-93 -47.5t-101.5 -17.5q-31 0 -68.5 7.5t-70.5 28t-55.5 56.5t-22.5 93q0 60 24 111t60.5 93t80 75t82.5 56.5t67.5 38t35.5 20.5q7 4 7 11q0 12 -15.5 20.5t-34.5 20t-34.5 28.5t-15.5 47q0 36 26.5 75.5t66 71.5t87 53
t89.5 21q41 -2 74 -15q28 -11 51.5 -34.5t24.5 -67.5l-105 -84q7 24 7 46q0 48 -21.5 76t-57.5 28q-26 0 -49 -8.5t-40.5 -23t-27.5 -34t-10 -41.5q0 -15 7 -28t17 -24t21.5 -19.5t20.5 -13.5q16 -10 34 -24.5t18 -34.5q0 -12 -10 -23t-36 -22q-32 -14 -70 -36.5t-76.5 -54
t-73 -72.5t-58.5 -90q-36 -74 -36 -135q0 -54 30.5 -86.5t93.5 -32.5q37 0 73 12t68 32t59.5 47.5t47.5 58.5h-34q-41 0 -70.5 11t-48.5 29.5t-28 42t-9 47.5q0 30 10.5 55.5t30 44t46 28.5t58.5 10q20 0 42 -7t40 -23t30 -41t12 -61q0 -12 -1 -23.5t-3 -22.5h279zM324 367
q0 -26 22 -48t73 -22h91q6 24 6 47q0 52 -26.5 78t-70.5 26q-17 0 -34 -5t-30.5 -15t-22 -25.5t-8.5 -35.5z" />
    <glyph glyph-name="quotesingle" unicode="'" horiz-adv-x="164" 
d="M186 994h-45l119 363h125z" />
    <glyph glyph-name="parenleft" unicode="(" horiz-adv-x="602" 
d="M98 -106q-32 88 -50.5 188t-18.5 206t19 213t63 212q28 68 71 142t96.5 149.5t114.5 149.5t125.5 141.5t130.5 125.5t129 103h33q-170 -159 -300.5 -339t-220 -364.5t-135.5 -367t-46 -346.5q0 -55 5.5 -109.5t16.5 -103.5h-33z" />
    <glyph glyph-name="parenright" unicode=")" horiz-adv-x="602" 
d="M-197 -106q156 148 285.5 321.5t222 357t143.5 369.5t51 359q0 57 -5.5 112.5t-16.5 110.5h32q38 -66 57.5 -158.5t19.5 -197.5q0 -175 -52.5 -341.5t-150 -325.5t-238 -310.5t-315.5 -296.5h-33z" />
    <glyph glyph-name="asterisk" unicode="*" horiz-adv-x="492" 
d="M376 979l-73 -161l-81 52l121 135l-170 27l30 91l152 -77l-27 173h97l-27 -173l152 77l30 -91l-171 -27l122 -134l-80 -53z" />
    <glyph glyph-name="plus" unicode="+" 
d="M354 547l-111 -276h-84l112 276h-264l31 76h263l112 275h84l-112 -275h278l-31 -76h-278z" />
    <glyph glyph-name="comma" unicode="," horiz-adv-x="268" 
d="M-132 -102q15 9 29.5 20t27.5 23t22.5 25t12.5 25q-27 6 -43.5 26t-16.5 44q0 31 21 52.5t50 21.5q32 0 53.5 -21.5t21.5 -53.5q0 -27 -14.5 -54.5t-37.5 -53.5t-51.5 -48t-56.5 -37z" />
    <glyph glyph-name="hyphen" unicode="-" 
d="M55 412l39 116h507l-39 -116h-507z" />
    <glyph glyph-name="period" unicode="." horiz-adv-x="268" 
d="M46 63q0 -30 -21.5 -51.5t-52.5 -21.5q-29 0 -50.5 21.5t-21.5 51.5q0 29 21.5 50.5t50.5 21.5q31 0 52.5 -21.5t21.5 -50.5z" />
    <glyph glyph-name="slash" unicode="/" horiz-adv-x="526" 
d="M-162 0h-88l938 1397h88z" />
    <glyph glyph-name="zero" unicode="0" horiz-adv-x="987" 
d="M237 -23q-64 0 -115 22t-87 64.5t-55.5 105t-19.5 143.5q0 110 28 220.5t77 211t115 187.5t141.5 151.5t157 101t161.5 36.5q64 0 115 -22t87 -64t55.5 -104.5t19.5 -143.5q0 -110 -28 -220.5t-77 -211.5t-115 -188t-141.5 -151.5t-157 -101t-161.5 -36.5zM249 28
q59 0 122 43t124 114t115.5 163.5t96 192t65.5 199t24 184.5q0 125 -42.5 188.5t-127.5 63.5q-59 0 -122 -43t-123.5 -115t-115 -165.5t-95.5 -193.5t-65 -200t-24 -185q0 -246 168 -246z" />
    <glyph glyph-name="one" unicode="1" horiz-adv-x="635" 
d="M136 0h-123l455 1087l-434 -469l-34 34l512 553h128z" />
    <glyph glyph-name="two" unicode="2" horiz-adv-x="885" 
d="M79 590q-15 55 -15 112q0 98 40.5 191.5t111 166t165.5 117t205 44.5q61 0 111.5 -20t86.5 -55t56 -82.5t20 -103.5q0 -103 -38.5 -186.5t-104.5 -155t-154 -134t-187 -123.5t-204 -124.5t-204 -136.5q15 7 27 11t25.5 6t30 2.5t40.5 0.5q56 0 120.5 -5t133.5 -5
q29 0 52.5 3t43.5 9.5t37.5 17.5t34.5 27l36 -19l-135 -165q-58 7 -113.5 16.5t-111.5 17.5t-114.5 13.5t-122.5 5.5q-42 0 -86 -13t-81 -42l-24 31q119 93 237.5 173.5t226 154t200 144t161 144t107 154t38.5 174.5q0 45 -13.5 84t-38.5 67.5t-60 45t-78 16.5
q-84 0 -153 -35t-118 -89.5t-76 -122t-27 -132.5q0 -35 9 -68t27 -60z" />
    <glyph glyph-name="three" unicode="3" horiz-adv-x="858" 
d="M203 731q22 10 45 17t49 12q51 13 105.5 37.5t99 60.5t73.5 84.5t29 109.5q0 63 -34.5 94.5t-86.5 31.5q-46 0 -85.5 -17.5t-72 -47.5t-58 -71t-42.5 -87l-79 102q50 45 97 76t91.5 50t87 27t82.5 8q47 0 89.5 -11.5t74.5 -33.5t51 -54t19 -74q0 -57 -29 -102.5
t-75.5 -81t-103.5 -60.5t-113 -40q58 -8 102.5 -32.5t74.5 -61t45 -82t15 -94.5q0 -78 -27.5 -146t-74.5 -125t-110 -104.5t-135 -86t-148.5 -68t-150.5 -51t-141.5 -35t-121.5 -19.5l-4 40q77 8 163.5 29.5t172 56t163.5 83t137.5 111t95 138.5t35.5 167q0 42 -8 83
t-29 73.5t-56 53t-89 20.5q-29 0 -56.5 -6.5t-52.5 -15.5z" />
    <glyph glyph-name="four" unicode="4" horiz-adv-x="933" 
d="M-156 255q89 72 176 153.5t168 167t156 173t140 170.5t119.5 159t96.5 140l113 -54q-26 -40 -77.5 -106t-121 -146t-152 -167.5t-171 -171.5t-177.5 -158.5t-171 -127.5q26 14 49 23.5t45 15t44.5 8t48.5 2.5q43 0 85 -6t83.5 -13.5t82.5 -15t82 -11.5l248 591h122
l-248 -593q52 2 98 9t75 20l-19 -45q-45 -17 -88.5 -28.5t-92.5 -19.5l-93 -224h-123l89 214h-16q-50 0 -99 7t-96 15t-93.5 15t-91.5 7t-87 -8t-85 -28z" />
    <glyph glyph-name="five" unicode="5" horiz-adv-x="886" 
d="M7 598l332 580q33 13 65 20t72 7q42 0 81 -8t76 -17.5t73.5 -17.5t74.5 -8q37 0 74.5 10.5t80.5 36.5l14 -34q-47 -35 -87 -59t-75.5 -39t-67 -21.5t-61.5 -6.5q-45 0 -79.5 9.5t-63 21.5t-53 21.5t-48.5 9.5q-27 0 -54 -8l-266 -468q26 27 58 51.5t70.5 44t83.5 31
t96 11.5q72 0 126 -22t90.5 -59.5t55 -87.5t18.5 -105q0 -78 -27.5 -146t-74.5 -125t-110 -104.5t-135 -86t-148.5 -68t-150.5 -51t-141.5 -35t-121.5 -19.5l-4 40q77 8 163.5 29.5t172 56t163.5 83t137.5 111t95 138.5t35.5 167q0 38 -8 76.5t-28 69.5t-55.5 50.5
t-90.5 19.5q-47 0 -88.5 -12.5t-79 -34.5t-70.5 -52t-63 -65z" />
    <glyph glyph-name="six" unicode="6" horiz-adv-x="962" 
d="M952 1175q-126 -25 -245.5 -78t-223.5 -126.5t-188 -163.5t-138 -190q34 34 75.5 66t89.5 57t102 40t112 15q78 0 131.5 -27.5t86.5 -71.5t48 -98t15 -107q0 -60 -20 -121.5t-56.5 -118.5t-86.5 -107t-109.5 -87t-127.5 -58.5t-139 -21.5q-80 0 -142.5 26t-106 71.5
t-66 107.5t-22.5 135q0 113 41 219t113 201t169.5 176t210 143t234.5 102t243 53v-36zM485 731q-64 0 -122.5 -23.5t-107.5 -58.5t-87.5 -76t-62.5 -77q-14 -44 -21 -87t-7 -87q0 -55 9.5 -108t33.5 -95t65 -67.5t104 -25.5q53 0 103 19t94 52t80.5 78t63 97t41 108
t14.5 112q0 48 -10.5 91.5t-34 76.5t-61.5 52t-94 19z" />
    <glyph glyph-name="seven" unicode="7" horiz-adv-x="730" 
d="M-78 0q53 155 119 279.5t140 226.5t153 185.5t157.5 157.5t154.5 142t144 139q-42 -12 -104 -21q-53 -8 -132 -14t-185 -6q-40 0 -74 -3.5t-64 -15t-58 -32.5t-55 -55l-35 19l143 222q43 -11 95 -19q45 -7 103.5 -12.5t125.5 -5.5q85 0 175 9t175 35l25 -23
q-81 -97 -161.5 -176.5t-157.5 -157t-150.5 -160t-141 -184.5t-128.5 -231t-113 -299h-151z" />
    <glyph glyph-name="eight" unicode="8" horiz-adv-x="882" 
d="M553 1221q47 0 90.5 -15t76.5 -44t52.5 -71.5t19.5 -97.5q0 -61 -25 -108.5t-67 -85t-98 -68t-118 -57.5l70 -78t63.5 -81t46.5 -89.5t18 -103.5q0 -83 -38 -146t-101 -105.5t-144 -64t-166 -21.5q-73 0 -133.5 18t-103.5 52t-67 83t-24 112q0 87 38 149.5t99 109.5
t138.5 82.5t156.5 68.5q-23 28 -43.5 58.5t-36 64t-24.5 69.5t-9 77q0 66 28.5 120t75 92.5t105.5 59t120 20.5zM563 321q0 41 -17.5 79t-45.5 74.5t-63 73.5t-70 76q-72 -30 -140 -64t-120.5 -77t-84.5 -99.5t-32 -131.5q0 -100 62.5 -157.5t180.5 -57.5q65 0 124.5 20.5
t105.5 58t73 89.5t27 116zM347 960q0 -76 31 -136t76 -114q55 25 103 53.5t84 63t56.5 77.5t20.5 97q0 36 -9.5 67t-29 54.5t-48 36.5t-67.5 13q-46 0 -85.5 -14.5t-69 -42t-46 -67t-16.5 -88.5z" />
    <glyph glyph-name="nine" unicode="9" horiz-adv-x="962" 
d="M-110 23q126 25 245.5 78t223.5 126.5t187.5 163.5t137.5 189q-34 -34 -75.5 -66t-89.5 -56.5t-101.5 -39.5t-111.5 -15q-78 0 -131.5 27.5t-86.5 71.5t-48 98t-15 107q0 60 20 121.5t56.5 118.5t86.5 107t109.5 87t127.5 58.5t139 21.5q80 0 142.5 -26t106 -71.5
t66 -107.5t22.5 -135q0 -113 -41 -219t-113 -201t-169.5 -176t-210 -143t-234.5 -102t-243 -53v36zM357 467q64 0 122 23t107 58.5t87.5 76.5t62.5 77q29 87 29 174q0 55 -9.5 108t-33.5 95t-65 67.5t-104 25.5q-80 0 -151.5 -41.5t-126 -108t-86.5 -149.5t-32 -167
q0 -48 10.5 -91.5t34 -76.5t61.5 -52t94 -19z" />
    <glyph glyph-name="colon" unicode=":" horiz-adv-x="432" 
d="M272 558q0 -31 -21.5 -52.5t-52.5 -21.5q-29 0 -50 21.5t-21 52.5q0 29 21 50.5t50 21.5q31 0 52.5 -21.5t21.5 -50.5zM55 63q0 -30 -21 -51.5t-52 -21.5q-29 0 -50.5 21.5t-21.5 51.5q0 29 21.5 50.5t50.5 21.5q31 0 52 -21.5t21 -50.5z" />
    <glyph glyph-name="semicolon" unicode=";" horiz-adv-x="432" 
d="M-122 -102q15 9 29.5 20t27.5 23t22.5 25t12.5 25q-27 6 -43.5 26t-16.5 44q0 31 21 52.5t50 21.5q32 0 53.5 -21.5t21.5 -53.5q0 -27 -14.5 -54.5t-37.5 -53.5t-51.5 -48t-56.5 -37zM272 558q0 -31 -21.5 -52.5t-52.5 -21.5q-29 0 -50 21.5t-21 52.5q0 29 21 50.5
t50 21.5q31 0 52.5 -21.5t21.5 -50.5z" />
    <glyph glyph-name="less" unicode="&#x3c;" 
d="M60 584l569 314l-43 -107l-402 -222l279 -280l-32 -77z" />
    <glyph glyph-name="equal" unicode="=" 
d="M-9 444l31 76h585l-31 -76h-585zM63 651l31 76h585l-31 -76h-585z" />
    <glyph glyph-name="greater" unicode="&#x3e;" 
d="M598 526l-569 -314l43 107l402 222l-279 280l32 77z" />
    <glyph glyph-name="question" unicode="?" horiz-adv-x="840" 
d="M197 63q0 -30 -21.5 -51.5t-52.5 -21.5q-29 0 -50.5 21.5t-21.5 51.5q0 29 21.5 50.5t50.5 21.5q31 0 52.5 -21.5t21.5 -50.5zM133 199q30 79 70.5 145.5t87 126t95.5 113.5t95.5 106.5t88.5 105t73 110t49.5 121.5t18.5 138q0 37 -9.5 72t-28.5 62t-47.5 43.5
t-65.5 16.5q-57 0 -111 -26t-95.5 -69.5t-66.5 -99t-25 -113.5q0 -62 34 -98t97 -36q25 0 44.5 7t33.5 16t23 18t13 14l13 -26q-21 -24 -46 -40t-50.5 -26t-49 -14.5t-41.5 -4.5q-35 0 -67 10.5t-57 31.5t-40 52t-15 71q0 51 18.5 98t50.5 88.5t74.5 75.5t91.5 58t101 37.5
t102 13.5q54 0 99.5 -18t78.5 -50t51.5 -75.5t18.5 -95.5q0 -75 -23.5 -141t-63 -126.5t-91.5 -116t-109 -110t-114.5 -108.5t-108.5 -110.5t-92 -117.5t-64 -129h-41z" />
    <glyph glyph-name="at" unicode="@" horiz-adv-x="1426" 
d="M882 373q36 0 79 23.5t86 65.5t83.5 99.5t71.5 126t50 144.5t19 156q0 95 -18.5 159.5t-53.5 104t-84.5 56.5t-112.5 17q-114 0 -218 -44t-192.5 -119t-160.5 -173t-123 -206t-78.5 -218.5t-27.5 -210.5q0 -83 20 -145t57.5 -103.5t90.5 -62t120 -20.5q50 0 114.5 14.5
t129.5 46.5l19 -35q-81 -47 -160.5 -65.5t-153.5 -18.5q-66 0 -132 20.5t-118 66.5t-84.5 119.5t-32.5 179.5q0 131 37 257.5t101.5 239.5t152.5 208t190.5 164.5t214.5 108t225 38.5q89 0 159 -25.5t118 -73.5t73 -116t25 -153q0 -80 -23 -162.5t-63 -159.5t-94.5 -144.5
t-118 -118t-132.5 -80t-138 -29.5q-20 0 -40 13t-20 41q0 26 8 53.5t25 70.5q9 24 26 64t34 79.5t29.5 69.5t12.5 34q0 8 -7 8t-16 -13q-5 -7 -21 -29.5t-38.5 -54t-49 -68t-52.5 -71.5t-49.5 -64t-39.5 -45q-42 -42 -74.5 -66t-63.5 -24q-11 0 -23.5 4t-23.5 15.5t-18 31
t-7 49.5q0 45 20.5 100.5t56 112.5t84.5 112t106 99t120.5 73.5t127.5 36.5v-16q-53 -16 -102 -49t-91.5 -75.5t-78 -91t-60.5 -95.5t-38.5 -89t-13.5 -71q0 -16 5 -26.5t13 -10.5q9 0 28 15.5t43.5 42t53.5 61.5t59 72.5t59 76t54 72.5q39 52 64 86t43.5 54.5t33.5 28.5
t32 8q27 0 37 -11.5t12 -21.5q2 -11 -2 -23.5t-8 -22.5l-180 -427q-3 -8 -5.5 -16.5t-2.5 -13.5q0 -8 5 -14.5t16 -6.5z" />
    <glyph glyph-name="A" unicode="A" horiz-adv-x="1471" 
d="M1214 534h101l-43 -92h-96l-186 -442h-133l185 442h-435q-4 -8 -7.5 -14.5t-7.5 -13.5q-77 -139 -151 -223.5t-142 -131t-128 -62t-110 -15.5q-43 0 -79.5 13.5t-63.5 38t-42.5 60.5t-15.5 81q0 85 44.5 152t123.5 113t188.5 70t239.5 24h65q108 184 197 322t164 238
t137.5 166t117.5 104.5t104.5 54t97.5 15.5q63 0 100 -37.5t37 -119.5q0 -58 -20 -137t-64 -184zM1328 1397q-33 0 -64 -8.5t-68 -37.5t-83.5 -85.5t-110 -152.5t-147.5 -237.5t-196 -341.5h421l177 422q58 140 92.5 232.5t34.5 145.5q0 32 -13 47.5t-43 15.5zM69 32
q66 0 118.5 32.5t97 85.5t84 120t78.5 136l21 36h-59q-143 0 -239 -22.5t-154 -59.5t-82.5 -84.5t-24.5 -96.5q0 -28 8.5 -54.5t27.5 -47t49.5 -33t74.5 -12.5z" />
    <glyph glyph-name="B" unicode="B" horiz-adv-x="1274" 
d="M606 -18q-57 0 -108.5 15t-98.5 39t-89.5 53.5t-81.5 59.5q-54 -75 -117 -119.5t-141 -44.5q-28 0 -56.5 9t-51.5 27.5t-37.5 47.5t-14.5 70q0 38 14.5 72t41.5 60t65 41.5t85 15.5q38 0 77.5 -17.5t81.5 -44.5q26 60 54.5 136t65.5 171q28 75 58.5 154t63 154.5
t66 142.5t68.5 117q54 79 101.5 130t93.5 83t92 50t99 30q16 4 33.5 5.5t34.5 1.5q49 0 97.5 -16t86.5 -47.5t61.5 -77.5t23.5 -107q0 -52 -17.5 -92t-46 -72t-65 -59t-75.5 -52q-38 -25 -70.5 -43.5t-56.5 -34t-37.5 -30t-13.5 -31.5q0 -20 20.5 -61.5t45 -98.5t45 -126
t20.5 -142q0 -83 -32.5 -150.5t-88.5 -116.5t-132.5 -75.5t-163.5 -26.5zM592 41q65 0 119.5 25t94 67t61.5 96t22 113q0 57 -17.5 115t-39 109.5t-39 93.5t-17.5 67q0 21 12 38.5t34.5 35.5t55.5 40t75 52q40 28 74.5 60.5t60 69.5t40 78.5t14.5 89.5q0 49 -14.5 85.5
t-41.5 60.5t-64.5 36t-83.5 12q-27 0 -51.5 -7t-40.5 -17q-38 -24 -75.5 -70.5t-73 -108.5t-70 -136.5t-67 -153t-63 -158t-58.5 -152.5q-40 -103 -82.5 -201t-93.5 -179q39 -29 79 -57.5t81 -51.5t83 -37.5t86 -14.5zM-41 35q31 0 56.5 10.5t48 31.5t43.5 54t42 78
q-38 28 -74 45.5t-69 17.5q-37 0 -64.5 -12.5t-46 -32t-28 -44t-9.5 -47.5q0 -47 27.5 -74t73.5 -27z" />
    <glyph glyph-name="C" unicode="C" horiz-adv-x="1054" 
d="M791 764q113 54 177 162t64 253q0 47 -10.5 87t-31.5 69t-52 45.5t-71 16.5q-64 0 -128 -27t-126 -75t-119.5 -113.5t-108 -142.5t-92.5 -162t-72 -172t-46.5 -172t-16.5 -163q0 -86 18 -147t50 -101t76 -58.5t97 -18.5q10 0 41.5 2.5t77 16.5t101.5 43t115 83l25 -36
q-64 -62 -127.5 -97t-117 -51.5t-93 -20t-54.5 -3.5q-55 0 -116.5 18t-113.5 61.5t-86.5 117t-34.5 184.5q0 105 22.5 207t63 197t95 181.5t118 160.5t133.5 134t140 102.5t138 65.5t128 23q64 0 117 -19t91.5 -54t60 -83.5t21.5 -107.5q0 -66 -27 -133.5t-73 -126
t-106.5 -104.5t-126.5 -69z" />
    <glyph glyph-name="D" unicode="D" horiz-adv-x="1410" 
d="M575 -18q-52 0 -96 12.5t-82 33t-71 47t-62 53.5q-59 -74 -122.5 -108.5t-137.5 -34.5q-27 0 -54.5 8.5t-50 26t-36.5 45t-14 65.5q0 39 16.5 75t46 63.5t70 43.5t88.5 16q42 0 79.5 -20t74.5 -51q30 60 63 138.5t75 177.5l130 310h-119q-50 0 -99 10.5t-87 33
t-61.5 56.5t-23.5 82q0 68 45 134.5t127.5 118.5t200 84t262.5 32q109 0 212 -39t183.5 -114t129 -183.5t48.5 -247.5q0 -97 -26 -199t-73 -198t-114 -182t-148.5 -150t-176 -101.5t-197.5 -37.5zM620 883l-194 -463q-60 -143 -121 -235q29 -27 59 -52.5t63 -45.5t69 -32
t76 -12q86 0 163.5 36.5t144 99.5t120.5 146.5t91.5 177t58 192.5t20.5 192q0 106 -26.5 199t-81.5 162t-139.5 109t-201.5 40q-115 0 -209 -26.5t-160.5 -68.5t-102.5 -95t-36 -107q0 -28 9 -51.5t31.5 -40t59.5 -26t94 -9.5h122l147 350h128l-147 -350h322l-37 -90h-322z
M-4 35q30 0 55.5 9.5t49 29.5t46 50t45.5 72q-35 32 -68.5 54t-70.5 22q-38 0 -66.5 -13t-48.5 -33.5t-30 -45t-10 -47.5q0 -45 26 -71.5t72 -26.5z" />
    <glyph glyph-name="E" unicode="E" horiz-adv-x="927" 
d="M165 1020q94 9 177 24q12 68 46.5 137.5t85.5 126t116 92t138 35.5q52 0 85.5 -34.5t33.5 -88.5q0 -45 -28 -86.5t-80.5 -78t-127 -68t-167.5 -55.5q4 -24 12 -45.5t15.5 -41.5t13 -39.5t5.5 -41.5q0 -62 -30 -104t-75 -75.5t-97.5 -64.5t-97.5 -71.5t-75 -97t-30 -140.5
q0 -66 24.5 -115t63.5 -82t86.5 -49t92.5 -16q30 0 65.5 3.5t79.5 19t97 46.5t116 86l26 -32q-68 -57 -126 -92.5t-110.5 -55.5t-102 -27t-100.5 -7q-72 0 -135.5 19t-110.5 56t-74.5 92t-27.5 127q0 82 31.5 142t78.5 104.5t101.5 78.5t101.5 64.5t78.5 60.5t31.5 68
q0 14 -5.5 30.5t-12.5 38.5t-12.5 50t-5.5 65v10.5t1 11.5q-35 -7 -72 -12.5t-75 -10.5zM440 1066q148 39 229 102t81 149q0 38 -18 55.5t-51 17.5q-30 0 -71 -22.5t-79 -63.5t-64.5 -100t-26.5 -132v-6z" />
    <glyph glyph-name="F" unicode="F" horiz-adv-x="1311" 
d="M439 0l201 469q-37 -1 -82 -3.5t-88.5 -6.5t-80 -10t-57.5 -15l-6 28q41 24 88.5 41.5t94.5 29t91.5 18.5t79.5 10l191 445q28 67 61 122q-64 14 -127.5 32t-124 37t-117 37.5t-105.5 33.5q-66 19 -119 19q-63 0 -102 -18t-60.5 -43t-29 -51.5t-7.5 -44.5q0 -27 11 -51.5
t31.5 -42.5t50 -29t67.5 -11q26 0 65 5.5t84 22.5l-41 -96q-19 -7 -45 -12t-58 -5q-43 0 -82 12t-68.5 36t-47 60t-17.5 84q0 69 34 119.5t88.5 84t123.5 50t140 16.5q50 0 108 -19t122 -46.5t132 -58.5t138 -55q49 68 103 114t106 74t99.5 40t84.5 12t64 -9.5t44 -26
t25.5 -38t8.5 -45.5q0 -50 -29.5 -90t-76.5 -68.5t-106.5 -43.5t-119.5 -15q-35 0 -70.5 3t-71.5 8q-12 -23 -23.5 -46.5t-22.5 -49.5l-187 -446h315l-41 -96h-315l-197 -471h-127zM1364 1400q-33 0 -70 -15.5t-75 -45.5t-75.5 -73t-72.5 -98q62 -14 121 -14q66 0 112.5 18
t76 45t43.5 58t14 56q0 29 -18.5 49t-55.5 20z" />
    <glyph glyph-name="G" unicode="G" horiz-adv-x="1119" 
d="M806 813q113 50 177 149.5t64 233.5q0 43 -10.5 80t-31.5 64t-52 42t-71 15q-85 0 -170.5 -41t-164 -110t-147 -159t-119 -188.5t-79.5 -199.5t-29 -190q0 -74 18 -127t50 -87.5t76 -50.5t97 -16q16 0 44 3t64.5 14.5t81.5 34t95 61.5l107 253h127l-148 -355
q-24 -59 -56 -113.5t-77 -103t-106 -89.5t-145 -72l-13 28q56 23 97.5 63t71.5 85t49.5 87.5t31.5 70.5l26 62q-47 -31 -89 -49.5t-78 -28t-65 -12t-50 -2.5q-55 0 -116.5 15.5t-113.5 54t-86.5 102.5t-34.5 161q0 123 39.5 240t106 221t153 191t179.5 150.5t186.5 98.5
t173.5 35q64 0 117 -18t91.5 -50t60 -77t21.5 -100q0 -62 -27 -124.5t-73 -117t-106.5 -97t-126.5 -64.5z" />
    <glyph glyph-name="H" unicode="H" horiz-adv-x="1343" 
d="M153 0l186 435q-57 3 -95.5 17.5t-62 36t-33.5 47.5t-10 53q0 51 23 83t55.5 51t68.5 26t62 7q65 0 121 -18l108 251q22 53 45 106.5t41 102t29.5 89.5t11.5 69q0 18 -7.5 29.5t-22.5 11.5q-71 -11 -163 -68q-39 -24 -86.5 -61t-103 -90.5t-118 -125t-131.5 -165.5
l-21 135q97 100 191.5 176.5t179 129t154 79.5t116.5 27q56 0 80 -33.5t24 -85.5q0 -34 -8 -73.5t-20.5 -82t-29 -86t-34.5 -84.5l-131 -304q41 -29 73.5 -69.5t58.5 -91.5h251l366 873h126l-366 -873h103l-40 -89h-100l-182 -435h-127l1 2q2 33 3 63.5t1 59.5
q0 94 -10.5 170.5t-30.5 139.5h-235l-187 -435h-124zM197 614q0 -16 7.5 -32t23.5 -29t40.5 -21t59.5 -8h49l76 177q-52 16 -114 16q-66 0 -104 -29t-38 -74zM781 147v-19t-1 -19l137 326h-177q41 -128 41 -288zM661 524q-42 80 -104 125l-54 -125h158z" />
    <glyph glyph-name="I" unicode="I" horiz-adv-x="914" 
d="M847 635q-54 -61 -105.5 -113.5t-105.5 -92.5q-41 -78 -92.5 -157.5t-114.5 -144t-137 -105t-159 -40.5q-80 0 -126 42t-47 109l98 62q-13 -48 -13 -82q0 -47 21 -68t50 -21q76 0 164.5 78t182.5 242q-47 -11 -95 -11q-51 0 -102.5 17t-93 51.5t-67.5 88t-26 127.5
q0 102 38 202t99.5 191t138.5 168.5t154.5 134.5t148.5 89t121 32q49 0 82 -51.5t33 -157.5q0 -109 -46 -274t-149 -394q-7 -14 -13 -29q32 31 63.5 66t65.5 73zM417 388q38 0 77 11q25 48 50 102t51 115q45 108 84 211.5t68 194.5t45.5 166t16.5 125q0 40 -12 62t-38 22
q-29 0 -81 -33t-113 -89.5t-124.5 -132.5t-115 -162t-84 -178t-32.5 -180q0 -57 17 -100.5t45.5 -73.5t66.5 -45t79 -15z" />
    <glyph glyph-name="J" unicode="J" horiz-adv-x="1065" 
d="M640 -94q-23 4 -45 7.5t-42 8.5q-61 -113 -127 -216t-136 -181t-142.5 -124t-146.5 -46q-30 0 -52.5 11t-37.5 30t-23 42.5t-8 49.5q0 140 90.5 281.5t287.5 284.5q-61 48 -100.5 104.5t-63 117.5t-32.5 123.5t-9 121.5q0 133 38 252.5t101.5 222t146 185t172 140.5
t179.5 89.5t168 31.5q37 0 69.5 -9.5t56.5 -34.5t37.5 -68t13.5 -110q0 -104 -42.5 -267t-143.5 -396q-23 -51 -47.5 -108t-52.5 -120q28 12 56 24.5t58 25.5l16 -42q-41 -17 -80 -34.5t-78 -36.5q-33 -74 -69.5 -149.5t-75.5 -150.5q19 -5 38.5 -9.5t39.5 -9.5zM190 527
q0 -84 8 -151.5t23.5 -120t38.5 -93t53 -70.5q65 43 139 86t160 86q38 102 70.5 192.5t59.5 159.5q43 110 81.5 212t67 190t45 159.5t16.5 122.5q0 57 -20.5 80.5t-67.5 23.5q-65 0 -140 -34t-150 -94.5t-144.5 -143t-122.5 -180t-85 -206t-32 -219.5zM372 -248q28 43 54 91
t51 99q-49 16 -90.5 35t-77.5 41q-71 -55 -128.5 -114t-98 -120.5t-63 -126t-22.5 -130.5q0 -41 18 -54t37 -13q56 0 138 70.5t182 221.5zM358 55q30 -21 65 -37t76 -30q24 51 46 103.5t42 106.5q-61 -34 -118.5 -69.5t-110.5 -73.5z" />
    <glyph glyph-name="K" unicode="K" horiz-adv-x="1203" 
d="M1483 1291q-89 -19 -167 -48t-146.5 -63.5t-126 -72t-104.5 -73.5q-110 -85 -191 -181q-2 -44 -3 -88.5t0 -98.5q1 -104 4.5 -205.5t11.5 -193.5t21.5 -169.5t36 -134.5t54.5 -89t76 -32q24 0 42 5.5t34.5 15.5t33.5 24t38 31l26 -32q-24 -22 -48 -41.5t-50 -34
t-56.5 -23t-68.5 -8.5q-48 0 -88.5 18t-73 61t-56 115t-38 180.5t-19.5 257.5t0 345q0 14 12 37.5t38 56.5q64 79 158.5 164t202.5 164t219.5 146t209.5 110zM153 0l423 989q22 53 45 106.5t41 102t29.5 89.5t11.5 69q0 18 -7.5 29.5t-22.5 11.5q-71 -11 -163 -68
q-39 -24 -86.5 -61t-103 -90.5t-118 -125t-131.5 -165.5l-21 135q97 100 191.5 176.5t179 129t154 79.5t116.5 27q56 0 80 -33.5t24 -85.5q0 -34 -8 -73.5t-20.5 -82t-29 -86t-34.5 -84.5l-426 -989h-124z" />
    <glyph glyph-name="L" unicode="L" horiz-adv-x="1080" 
d="M860 244q-29 -89 -70 -141t-84.5 -79t-85.5 -34.5t-75 -7.5q-50 0 -92.5 13t-80.5 34t-71 47.5t-63 53.5q-55 -66 -120 -105.5t-143 -39.5q-27 0 -54.5 8.5t-50 26t-36.5 45t-14 65.5q0 39 16.5 75t46 63.5t70 43.5t88.5 16t90.5 -20.5t84.5 -50.5q30 58 57 125.5
t51.5 140t46.5 146.5t43 146q38 134 79 232t83.5 166.5t85.5 112t85 67.5t83 32.5t80 8.5q50 0 89 -14t66 -38.5t41 -57t14 -69.5t-14 -70.5t-38 -62t-56.5 -50.5t-68.5 -36l-30 117q26 1 52.5 8.5t47.5 22.5t34.5 37t13.5 53q0 22 -8.5 44.5t-27 39.5t-48.5 28t-73 11
q-49 0 -90.5 -27t-76.5 -73t-64 -107.5t-54 -129.5t-47 -139.5t-41 -138.5q-21 -70 -46 -146.5t-54.5 -152.5t-64.5 -148.5t-76 -134.5q29 -22 59.5 -43t64 -37t71 -26t79.5 -10q44 0 83 6t71.5 24.5t57.5 52.5t40 90zM-33 35q61 0 113 41t97 111q-39 36 -76.5 60.5
t-76.5 24.5q-38 0 -66.5 -13t-48.5 -33.5t-30 -45t-10 -47.5q0 -45 26 -71.5t72 -26.5z" />
    <glyph glyph-name="M" unicode="M" horiz-adv-x="1714" 
d="M1029 704q73 115 139.5 194.5t124 129t105 72t84.5 22.5q60 0 84 -34.5t24 -91.5q0 -33 -7 -72t-18.5 -80t-26.5 -83t-31 -81l-168 -408q-63 -154 -102 -252.5t-39 -146.5q0 -20 8.5 -32.5t27.5 -12.5q7 0 20 4.5t31.5 16.5t43.5 34t55 57l31 -27q-38 -44 -68.5 -70
t-55.5 -39.5t-45 -17.5t-37 -4q-33 0 -55.5 10.5t-36 28t-19.5 40t-6 46.5q0 39 10.5 83.5t27 92t37 96t40.5 93.5l174 408q22 52 44.5 105.5t40 102.5t28.5 89.5t11 67.5q0 20 -7 31t-24 11q-63 -10 -146 -79q-35 -29 -78.5 -74t-93.5 -111t-107.5 -155t-120.5 -206
l-192 -462h-129l391 934q22 53 44.5 107t41 102.5t30 89.5t11.5 68q0 42 -30 42q-64 -9 -148 -79q-36 -30 -79 -75.5t-93.5 -112.5t-108 -157.5t-121.5 -208.5l-304 -710h-125l460 1079q22 53 45 107t41 102.5t29.5 89.5t11.5 68q0 41 -30 41q-71 -8 -163 -63
q-39 -24 -87 -60t-103.5 -88.5t-118 -123.5t-131.5 -165l-20 125q97 100 191.5 176.5t179 129t154 79.5t116.5 27q57 0 80.5 -32.5t23.5 -86.5q0 -34 -8 -74t-21 -82.5t-29.5 -86t-33.5 -83.5l-47 -109q73 111 140 189t125 126.5t106.5 70.5t85.5 22q57 0 80 -32.5t23 -85.5
q0 -34 -8 -74t-20.5 -82.5t-29 -86t-33.5 -83.5z" />
    <glyph glyph-name="N" unicode="N" horiz-adv-x="1310" 
d="M1092 954q22 53 45.5 106.5t42.5 102.5t31 86.5t12 64.5q0 20 -9.5 31t-25.5 11q-80 0 -183 -73q-44 -31 -97 -80.5t-112.5 -119t-125 -163t-135.5 -216.5l-300 -704h-125l466 1098q22 52 43.5 105t38 101t27 88.5t10.5 68.5q0 46 -32 46q-68 -7 -158 -62
q-38 -23 -85 -59.5t-102 -89t-117 -124t-131 -164.5l-20 122q97 100 190 177t175.5 129t150.5 79t115 27q59 0 83.5 -35.5t24.5 -91.5q0 -34 -7 -73t-19 -80t-27.5 -83t-32.5 -81l-79 -184q99 144 183 237.5t155 148t130 76t109 21.5q54 0 81 -34.5t27 -91.5q0 -33 -7 -72
t-19 -80t-27.5 -83.5t-31.5 -81.5l-281 -663q-65 -153 -103 -252t-38 -147q0 -20 8.5 -32.5t27.5 -12.5q7 0 20 4.5t31.5 16.5t43.5 34t55 57l31 -27q-38 -44 -68.5 -70t-55.5 -39.5t-45 -17.5t-37 -4q-33 0 -55.5 10.5t-36 28t-19.5 40t-6 46.5q0 39 10.5 83.5t27 92t37 96
t40.5 93.5z" />
    <glyph glyph-name="O" unicode="O" horiz-adv-x="1162" 
d="M1039 1131q0 22 -2 51t-7 59t-15 58.5t-26 51t-39 36.5t-55 14q-45 0 -89.5 -27.5t-85.5 -74.5t-76.5 -110t-61.5 -134t-41 -146.5t-15 -146.5q0 -107 30.5 -160t102.5 -53q25 0 44.5 6t33 14t21.5 16t10 13l10 -27q-20 -30 -43 -47.5t-46 -27t-43 -12.5t-34 -3
q-88 0 -137 71.5t-49 202.5q0 72 21 150.5t57.5 154t84.5 144t101.5 120t109.5 82t109 30.5q36 0 77.5 -18t77.5 -61.5t59.5 -116.5t23.5 -183q0 -140 -38 -274.5t-102 -255t-148 -222.5t-176.5 -175.5t-187 -115t-179.5 -41.5q-69 0 -125 28.5t-95 79.5t-60 121.5
t-21 155.5q0 79 14.5 168.5t48.5 186.5q31 88 68.5 162.5t77.5 136t81.5 110.5t79.5 87q90 89 184 143l18 -23q-61 -52 -123 -137q-27 -36 -56.5 -83.5t-60.5 -106t-62 -130t-60 -155.5q-38 -109 -57 -207.5t-19 -181.5q0 -66 12.5 -120.5t36.5 -93t58 -60t77 -21.5
q65 0 142.5 48t156 130.5t152 191.5t130.5 231t91 250t34 247z" />
    <glyph glyph-name="P" unicode="P" horiz-adv-x="1081" 
d="M-100 0l179 427h-56q-23 0 -44 0.5t-38 0.5l57 97q32 -2 62 -2h59l189 448q46 109 109 195.5t137.5 146.5t157 91.5t167.5 31.5q52 0 106 -17t97.5 -52t71 -87.5t27.5 -124.5q0 -84 -34 -164t-94.5 -153t-143.5 -137.5t-180 -118.5q-69 -39 -137.5 -65.5t-134.5 -43.5
t-128 -27t-119 -14l-181 -432h-129zM248 525q82 3 150.5 11.5t126 21t106.5 30.5t92 41q79 42 140 106.5t102 138.5t62 151t21 145q0 64 -16.5 108t-43 71t-60.5 38.5t-69 11.5q-39 0 -91 -21t-109 -70.5t-115 -131.5t-109 -205z" />
    <glyph glyph-name="Q" unicode="Q" horiz-adv-x="1180" 
d="M469 0q-97 -50 -197 -77t-200 -27q-105 0 -105 64q0 24 17.5 47.5t55 41.5t95.5 29t140 11h231q79 59 149.5 134.5t130.5 162t108.5 180.5t82.5 190t52 191.5t18 183.5q0 58 -13.5 107.5t-38 84.5t-60.5 55t-81 20q-85 0 -169 -38.5t-160.5 -105t-142.5 -156t-114 -192
t-75.5 -212t-27.5 -216.5q0 -41 9.5 -73t26 -55t37 -35t43.5 -12q13 0 33 3t45 14.5t54 35t59 64.5l19 -21q-35 -55 -72.5 -88.5t-73.5 -52t-67.5 -25t-53.5 -6.5q-50 0 -87 21.5t-61 57t-36 80t-12 89.5q0 121 33.5 239t92.5 224.5t139 197.5t172 157.5t192 104t200 37.5
q31 0 65.5 -6.5t69 -22.5t66 -43.5t55 -69.5t38 -100.5t14.5 -135.5q0 -140 -42.5 -277.5t-116.5 -263.5t-174.5 -235.5t-216.5 -191.5h275l-37 -89h-384zM81 -67q72 0 142 17.5t137 49.5h-186q-32 0 -60.5 -3.5t-50 -9.5t-34 -14t-12.5 -16q0 -13 17.5 -18.5t46.5 -5.5z
" />
    <glyph glyph-name="R" unicode="R" horiz-adv-x="1081" 
d="M1141 1155q0 -103 -40.5 -181.5t-107 -139t-151.5 -106t-175 -81.5q-53 -22 -86 -34.5t-51.5 -20t-25 -11.5t-6.5 -10q0 -2 2 -10q51 -155 119 -316q29 -69 64 -145.5t76 -156t87.5 -159.5t98.5 -155l-136 -35q-111 177 -216.5 407.5t-196.5 496.5q-4 11 -7 22.5t-3 22.5
q0 29 14.5 42.5t47 25.5t84.5 29.5t127 53.5q73 36 136.5 80.5t111 102t74.5 129.5t27 161q0 66 -16.5 110.5t-43.5 71.5t-61 38.5t-70 11.5q-39 0 -90 -19t-107 -67.5t-114 -131.5t-111 -210l-406 -971h-129l406 971q46 110 109 196.5t137.5 146t157.5 91t167 31.5
q53 0 107 -17t98 -52t71.5 -87.5t27.5 -124.5z" />
    <glyph glyph-name="S" unicode="S" horiz-adv-x="1069" 
d="M971 1194q-32 59 -64 97.5t-64 61t-65 31.5t-67 9q-48 0 -94 -16.5t-82 -49.5t-58 -82t-22 -113q0 -54 28 -109t69.5 -112.5t90.5 -117.5t90.5 -124t69.5 -132.5t28 -141.5q0 -93 -45.5 -169.5t-121 -130.5t-173.5 -83.5t-203 -29.5q-80 0 -147.5 18t-116.5 53.5
t-76.5 87t-27.5 119.5q0 48 12 95t39 93t71 92t107 91l79 -94q-47 -24 -90 -53.5t-76 -66.5t-52.5 -81.5t-19.5 -98.5q0 -38 17 -74t54 -64.5t95 -46t139 -17.5q74 0 146.5 21t129.5 62t92.5 103t35.5 145q0 54 -26.5 111t-67 116t-87 120t-87 123.5t-67 126t-26.5 128.5
q0 96 38 161.5t98 106t132.5 58t141.5 17.5q64 0 113.5 -14.5t88 -37.5t67.5 -52.5t52 -59.5z" />
    <glyph glyph-name="T" unicode="T" horiz-adv-x="1316" 
d="M1512 1065q-129 78 -244 128.5t-218 81.5l-533 -1275h-129l551 1305q-90 21 -163 28.5t-130 7.5q-113 0 -212.5 -27.5t-173.5 -72.5t-117 -102.5t-43 -118.5q0 -35 23 -55.5t68 -20.5h258l-32 -88h-254q-46 0 -79.5 32.5t-33.5 93.5q0 64 27 122t76 108.5t117 91.5
t151 69.5t177.5 44.5t196.5 16q67 0 142 -10t168 -37.5t208.5 -76t262.5 -126.5z" />
    <glyph glyph-name="U" unicode="U" horiz-adv-x="1398" 
d="M576 989q22 53 45 106.5t41 102t29.5 89.5t11.5 69q0 18 -7.5 29.5t-22.5 11.5q-71 -11 -163 -68q-39 -24 -86.5 -61t-103 -90.5t-118 -125t-131.5 -165.5l-21 135q97 100 191.5 176.5t179 129t154 79.5t116.5 27q57 0 83.5 -33.5t26.5 -85.5q0 -34 -8 -73.5t-20.5 -82
t-29 -86t-34.5 -84.5l-242 -565q-21 -51 -40 -102.5t-33 -97.5t-22.5 -84t-8.5 -61q0 -44 43 -44q16 0 47 6.5t75.5 30t102 69.5t126.5 126t148 198.5t167 286.5l277 645h129l-505 -1188q-18 -44 -26 -75.5t-8 -51.5q0 -26 10.5 -36.5t23.5 -10.5q34 0 64.5 19t66.5 61
t82 109.5t112 165.5l27 -17q-64 -99 -113.5 -173t-93.5 -122.5t-87 -73t-94 -24.5q-9 0 -28 2.5t-38.5 14t-34 35t-14.5 65.5q0 32 11 77.5t37 106.5l64 150q-89 -133 -169 -219.5t-149.5 -137.5t-129 -71.5t-107.5 -20.5q-65 0 -96.5 39t-31.5 97q0 31 7 68.5t19 78t27 81
t31 78.5z" />
    <glyph glyph-name="V" unicode="V" horiz-adv-x="1259" 
d="M1187 651q-10 12 -25 31t-31 48l-6 -15q-44 -108 -97 -204.5t-110 -177.5t-114.5 -146.5t-111.5 -110.5t-101 -69.5t-82 -24.5q-71 0 -104.5 57.5t-33.5 152.5q0 85 25 190t66 222l135 385q17 49 34 98.5t30 95.5t20.5 85.5t7.5 68.5q0 28 -8.5 44t-28.5 16
q-3 0 -23 -2.5t-55 -16t-85 -44t-113 -86t-138 -141t-161 -210.5l-27 125q91 100 180.5 176.5t169 129t146.5 79.5t114 27q66 0 98.5 -42.5t32.5 -108.5q0 -32 -5 -68.5t-13.5 -74.5t-20 -76.5t-23.5 -74.5l-148 -432q-20 -60 -37 -122t-29.5 -120.5t-19.5 -111t-7 -92.5
q0 -38 10.5 -53t31.5 -15q31 0 74 26t92 72.5t102 111t104.5 142t99 164t85.5 178.5q5 11 9 22.5t9 23.5q-15 39 -25.5 90.5t-10.5 120.5t10 118t26.5 81t37.5 47t42 15q9 0 18.5 -4.5t17.5 -14.5t13 -26.5t5 -40.5q0 -63 -21 -163.5t-69 -228.5q13 -25 29.5 -49.5
t38.5 -50.5zM1112 952q0 -64 13 -112q12 37 23 75t19 72.5t13 63.5t5 49q0 14 -3 27t-13 13q-12 0 -22 -15.5t-18 -42t-12.5 -60.5t-4.5 -70z" />
    <glyph glyph-name="W" unicode="W" horiz-adv-x="1617" 
d="M530 43q24 0 56.5 23t70 65.5t77.5 102t78 131.5q27 64 46.5 121t41.5 118l237 651h119l-248 -698q-21 -60 -39 -117.5t-30.5 -111.5t-19 -102.5t-6.5 -88.5q0 -44 14.5 -69t40.5 -25q31 0 67 26t75.5 72.5t80.5 111t82.5 142t82.5 164t79 178.5q5 11 9 22.5t9 23.5
q-15 39 -25.5 90.5t-10.5 120.5t10 118t26.5 81t37.5 47t42 15q9 0 18.5 -4.5t17.5 -14.5t13 -26.5t5 -40.5q0 -63 -21 -163.5t-69 -228.5q13 -25 29.5 -49.5t38.5 -50.5l-30 -26q-10 12 -25 31t-31 48l-6 -15q-66 -162 -137 -297t-139.5 -231.5t-132.5 -150.5t-117 -54
q-35 0 -59.5 15t-41 42.5t-24 66t-7.5 85.5q0 26 1.5 53t5.5 56q-53 -93 -98.5 -154.5t-84.5 -97.5t-71 -51t-59 -15q-71 0 -104.5 57.5t-33.5 152.5q0 85 25 190t66 222l135 385q17 49 34 98.5t30 95.5t20.5 85.5t7.5 68.5q0 28 -8.5 44t-28.5 16q-3 0 -23 -2.5t-55 -16
t-85 -44t-113 -86t-138 -141t-161 -210.5l-27 125q91 100 180.5 176.5t169 129t146.5 79.5t114 27q66 0 98.5 -42.5t32.5 -108.5q0 -32 -5 -68.5t-13.5 -74.5t-20 -76.5t-23.5 -74.5l-148 -432q-20 -60 -37 -122t-29.5 -120.5t-19.5 -111t-7 -92.5q0 -38 10.5 -53t31.5 -15z
M1460 952q0 -64 13 -112q12 37 23 75t19 72.5t13 63.5t5 49q0 14 -3 27t-13 13q-12 0 -22 -15.5t-18 -42t-12.5 -60.5t-4.5 -70z" />
    <glyph glyph-name="X" unicode="X" horiz-adv-x="1259" 
d="M1001 163q-44 -54 -78.5 -89t-63 -55.5t-53.5 -28.5t-52 -8q-36 0 -59.5 14.5t-38 41t-20.5 64t-7 83.5l-7 391q-46 -57 -90 -110.5t-83.5 -101t-73.5 -88t-61 -70.5q-8 -9 -24 -28t-39 -42.5t-53.5 -49.5t-67 -48.5t-79 -39t-89.5 -21.5l18 142q19 -6 41 -4.5t45 8.5
t46 18t44 24q49 30 98 72q36 34 79 79.5t89.5 99t97 114t101.5 123.5l-7 391q-2 88 -3.5 154.5t-7 110t-16.5 65.5t-30 22q-10 0 -28.5 -3t-46 -16.5t-64 -41.5t-82.5 -77.5t-100.5 -124.5t-118.5 -183l-20 147q86 99 158 163.5t131.5 102.5t107.5 54t87 17q47 1 78 -17
t49.5 -57.5t26.5 -101t9 -145.5l3 -302q55 69 109 135.5t103.5 126t94 109.5t81.5 86q36 31 76 56q35 21 78.5 39t90.5 18q5 0 9.5 -0.5t9.5 -0.5l-59 -121q-48 -2 -94 -22t-82 -43q-42 -27 -81 -61q-17 -17 -50.5 -56t-77.5 -93t-97 -119t-110 -135l6 -547q1 -63 13.5 -90
t46.5 -27q22 0 44 12.5t42 31t38.5 40.5t34.5 40z" />
    <glyph glyph-name="Y" unicode="Y" horiz-adv-x="1344" 
d="M576 989q22 53 45 106.5t41 102t29.5 89.5t11.5 69q0 18 -7.5 29.5t-22.5 11.5q-71 -11 -163 -68q-39 -24 -86.5 -61t-103 -90.5t-118 -125t-131.5 -165.5l-21 135q97 100 191.5 176.5t179 129t154 79.5t116.5 27q57 0 83.5 -33.5t26.5 -85.5q0 -34 -8 -73.5t-20.5 -82
t-29 -86t-34.5 -84.5l-242 -565q-21 -51 -40 -102.5t-33 -97.5t-22.5 -84t-8.5 -61q0 -44 43 -44q16 0 46.5 6.5t75 29.5t101.5 68.5t125 124.5t146.5 195.5t166.5 282.5l219 513h129l-414 -974q-21 -49 -45 -105.5t-52 -115.5t-60.5 -119.5t-70.5 -118.5h134l-41 -88h-156
q-44 -56 -95 -104.5t-109 -84t-124 -55.5t-140 -20q-44 0 -75.5 10t-51.5 28t-29 42.5t-9 52.5q0 11 4.5 32t19 45.5t40.5 49.5t68.5 45.5t105 33.5t148.5 13h179q51 84 108 196.5t120 262.5l63 148q-89 -132 -168.5 -218.5t-149 -137.5t-129 -71t-107.5 -20q-65 0 -96.5 39
t-31.5 97q0 31 7 68.5t19 78t27 81t31 78.5zM241 -489q40 0 80 9.5t82.5 34t87 68t93.5 111.5h-162q-48 0 -101.5 -5.5t-98 -20.5t-73.5 -42.5t-29 -70.5q0 -39 28 -61.5t93 -22.5z" />
    <glyph glyph-name="Z" unicode="Z" horiz-adv-x="1270" 
d="M985 388q29 -24 46.5 -59.5t17.5 -83.5q0 -69 -34 -119.5t-88.5 -84t-124 -50t-139.5 -16.5q-76 0 -147 9t-137 22.5t-126 30.5t-112 32q-66 -42 -122.5 -65t-102.5 -23q-31 0 -53 7.5t-36.5 20t-21 28t-6.5 31.5q0 44 41.5 74t120.5 30q46 0 97 -6.5t108 -17.5
q83 67 174 161t182 200.5t177.5 218.5t161 216.5t133 194t93.5 150.5q-99 0 -179 9t-153 20.5t-145.5 20.5t-155.5 9q-63 0 -102 -18t-60.5 -43t-29 -51.5t-7.5 -44.5q0 -27 11 -51.5t31.5 -42.5t50 -29t67.5 -11q26 0 65 5.5t84 22.5l-41 -96q-19 -7 -45 -12t-58 -5
q-43 0 -82 12t-68.5 36t-47 60t-17.5 84q0 69 34 119.5t88.5 84t123.5 50t140 16.5q46 0 90 -3.5t90 -9t96 -11.5t109 -11.5t128.5 -9t154.5 -3.5q-28 -73 -87.5 -173t-140.5 -214t-178.5 -235t-202 -235.5t-211 -216.5t-204.5 -177q113 -22 243.5 -43t282.5 -21
q77 0 123.5 14.5t72 35t34 43.5t8.5 41q0 38 -30 64t-69 36zM-81 24q35 0 76 16.5t87 46.5q-47 13 -85 21.5t-68 8.5q-24 0 -39.5 -4t-25 -10.5t-13.5 -15t-4 -16.5q0 -16 15.5 -31.5t56.5 -15.5z" />
    <glyph glyph-name="bracketleft" unicode="[" horiz-adv-x="657" 
d="M-133 -106l678 1630h252l-20 -49h-141l-639 -1532h141l-19 -49h-252z" />
    <glyph glyph-name="backslash" unicode="\" horiz-adv-x="526" 
d="M304 0l-154 1434h72l154 -1434h-72z" />
    <glyph glyph-name="bracketright" unicode="]" horiz-adv-x="657" 
d="M-108 -106l19 49h141l643 1532h-142l20 49h252l-682 -1630h-251z" />
    <glyph glyph-name="asciicircum" unicode="^" horiz-adv-x="750" 
d="M188 984l357 413h109l33 -413h-111l-9 331l-261 -331h-118z" />
    <glyph glyph-name="underscore" unicode="_" horiz-adv-x="512" 
d="M-219 -254l39 86h479l-39 -86h-479z" />
    <glyph glyph-name="grave" unicode="`" horiz-adv-x="500" 
d="M307 844l-90 194h125l-2 -194h-33z" />
    <glyph glyph-name="a" unicode="a" horiz-adv-x="701" 
d="M344 170q-4 -9 -7 -19t-3 -17q0 -12 5.5 -16t14.5 -4q14 0 34 14t42 41l183 226l25 -20l-221 -273q-24 -30 -45 -50t-39.5 -31.5t-37 -16.5t-37.5 -5q-30 0 -50 17.5t-20 44.5q0 30 11.5 62t33.5 80q8 17 19.5 44.5t24.5 58t26 61.5t23 56.5t16.5 42.5t6.5 20q0 10 -7 10
q-9 0 -19 -15q-6 -8 -24 -34t-44 -62t-56 -78t-60 -82t-57 -73t-46 -52q-48 -48 -85 -75.5t-73 -27.5q-12 0 -26.5 5t-27 17.5t-20.5 35t-8 57.5q0 52 23.5 115t64.5 128.5t97 128.5t121.5 113.5t137.5 84.5t146 41v-18q-61 -18 -117 -55.5t-105 -86.5t-89 -104.5
t-69 -109.5t-44.5 -102.5t-15.5 -81.5q0 -18 5.5 -30t15.5 -12q11 0 32.5 18t49.5 48.5t61 70t67 82.5t67.5 87t62.5 83q44 60 73 99t50 62.5t38 32.5t37 9q21 0 29 -11t8 -27q0 -13 -3.5 -27t-8.5 -25q-4 -9 -17.5 -42.5t-32.5 -80t-40.5 -99.5t-41 -100.5t-34.5 -84
t-20 -48.5z" />
    <glyph glyph-name="b" unicode="b" 
d="M734 371q-95 -118 -190 -187.5t-183.5 -107.5t-166.5 -53t-138 -23v18q67 24 125.5 64t106.5 88t86 101t64 104.5t39.5 97t13.5 78.5q0 20 -6 33.5t-17 13.5t-32.5 -19t-50 -51t-62 -74t-68 -87t-68 -90t-62.5 -84q-44 -60 -74 -99t-51.5 -62.5t-38.5 -32.5t-36 -9
q-22 0 -30 10.5t-8 26.5q0 13 4 27.5t9 25.5l236 562q-16 -24 -36.5 -54t-49 -67.5t-65 -84t-83.5 -104.5l-25 20q70 85 119.5 150.5t85 116t60 90t43 74t34 67t34.5 69.5l126 300h121l-414 -979q-4 -9 -4 -17q0 -10 7 -10q9 0 20 14q5 8 23.5 34.5t44.5 64t57.5 81t62 84
t57.5 74.5t46 53q48 48 85 77t75 29q12 0 26.5 -5.5t27 -19t21 -36.5t8.5 -58q0 -68 -32 -143.5t-86 -147.5t-123.5 -135t-144.5 -107q34 10 86 32t112.5 59.5t126 93t127.5 134.5z" />
    <glyph glyph-name="c" unicode="c" horiz-adv-x="585" 
d="M513 364q-69 -88 -126.5 -149.5t-105 -102t-85.5 -63t-68 -33.5t-53 -13.5t-40 -2.5q-7 0 -23 1.5t-37 7.5t-43 17.5t-40 31.5t-30 50t-12 73q0 80 29 151t74.5 131t102.5 107.5t114 80.5t107 50.5t83 17.5q18 0 36 -5.5t32.5 -17.5t23.5 -31t9 -46q0 -17 -3 -33
q-4 -20 -25 -40.5t-48.5 -37t-56 -27t-47.5 -10.5q36 47 57.5 92.5t21.5 75.5q0 18 -8.5 29.5t-26.5 11.5q-32 0 -71 -28.5t-78.5 -74.5t-77.5 -105t-67 -120t-47 -119t-18 -102q0 -26 6 -43.5t17.5 -28t26.5 -15t33 -4.5q36 0 78.5 16t96 55t118.5 105.5t146 167.5z" />
    <glyph glyph-name="d" unicode="d" horiz-adv-x="701" 
d="M344 170q-4 -9 -7 -19t-3 -17q0 -12 5.5 -16t14.5 -4q14 0 34 14t42 41l183 226l25 -20l-221 -273q-24 -30 -45 -50t-39.5 -31.5t-37 -16.5t-37.5 -5q-30 0 -50 17.5t-20 44.5q0 30 12 62t33 80q10 24 26 61t32.5 75.5t31 73t22.5 52.5q4 9 4 17q0 10 -7 10t-19 -15
q-31 -40 -67 -91t-74.5 -104.5t-78.5 -104.5t-79.5 -91t-76.5 -64.5t-69 -24.5q-12 0 -26.5 5t-27 18t-20.5 36t-8 58q0 57 24.5 122.5t67 130.5t100 126.5t123 110t136 80.5t139.5 39v-18q-62 -21 -119 -59.5t-106 -87.5t-88.5 -104t-68 -108t-43.5 -100.5t-15 -80.5
q0 -18 5.5 -30t15.5 -12q11 0 32.5 18t49.5 48.5t61 70t67 82.5t67.5 87t62.5 83q45 60 79 114.5t58 96.5q28 49 49 92l170 404h121l-440 -1049v0z" />
    <glyph glyph-name="e" unicode="e" horiz-adv-x="573" 
d="M37 40q36 0 78.5 16t96 55t118.5 105.5t146 167.5l25 -20q-69 -88 -127 -149.5t-106 -102t-86.5 -63t-68.5 -33.5t-53 -13.5t-39 -2.5q-24 0 -54 7t-56 25.5t-43.5 50.5t-17.5 83q0 75 24.5 145t64.5 131.5t90.5 112.5t103 87.5t101.5 56.5t86 20q53 0 76.5 -31.5
t23.5 -80.5q0 -45 -20 -87t-53 -79.5t-76.5 -69t-91 -54t-96 -35.5t-90.5 -13q-13 -38 -20.5 -72t-7.5 -63q0 -54 21 -74t51 -20zM287 678q-27 0 -65 -34.5t-78.5 -89.5t-78 -122.5t-62.5 -134.5q71 12 129.5 48.5t100 85t64 102.5t22.5 99q0 27 -9 36.5t-23 9.5z" />
    <glyph glyph-name="f" unicode="f" horiz-adv-x="500" 
d="M429 365q-62 -78 -118 -139t-113 -114t-117 -103t-130 -107l-155 -375l-142 -45l482 1161q-16 -25 -37 -55.5t-49.5 -68.5t-65 -84t-82.5 -103l-25 20q63 77 110 139t83 113t61.5 92.5t45.5 77.5t36 68l32 64q32 76 65.5 137.5t69.5 104t74.5 65.5t79.5 23q39 0 62.5 -28
t23.5 -69q0 -75 -36 -153.5t-94 -155.5t-130.5 -151t-145.5 -141l-233 -563q41 30 88 68.5t99.5 88t111.5 112t124 141.5zM248 619q72 70 133 138.5t105 134t68.5 127.5t24.5 120q0 18 -6 36t-26 18q-35 0 -70.5 -54t-74.5 -148z" />
    <glyph glyph-name="g" unicode="g" horiz-adv-x="699" 
d="M630 365q-48 -60 -92 -110t-87.5 -93.5t-87.5 -82.5t-92 -79l-96 -231q-32 -77 -65.5 -139t-71.5 -105t-82 -66t-97 -23q-35 0 -59 11.5t-39 29.5t-21.5 40t-6.5 42q0 66 37 121.5t96.5 106.5t133 101.5t147.5 107.5l196 472q6 15 6 18q0 10 -7 10q-9 0 -19 -15
q-6 -8 -24 -34t-44 -62t-56 -78t-60 -82t-57 -73t-46 -52q-48 -48 -85 -75.5t-73 -27.5q-12 0 -26.5 5t-27 17.5t-20.5 35t-8 57.5q0 52 23.5 115t64.5 128.5t97 128.5t121.5 113.5t137.5 84.5t146 41v-18q-61 -18 -117 -55.5t-105 -86.5t-89 -104.5t-69 -109.5
t-44.5 -102.5t-15.5 -81.5q0 -18 5.5 -30t15.5 -12q11 0 32.5 18t49.5 48.5t61 70t67 82.5t67.5 87t62.5 83q44 60 73.5 99t51 62.5t38.5 32.5t37 9q21 0 29 -11t8 -27q0 -13 -3.5 -27t-8.5 -25l-232 -556q66 57 141.5 133.5t163.5 182.5zM122 -65q-80 -58 -145 -104.5
t-110.5 -89t-70 -86.5t-24.5 -97q0 -14 4 -29t12.5 -27t22.5 -19.5t34 -7.5q50 0 91.5 56t80.5 150z" />
    <glyph glyph-name="h" unicode="h" horiz-adv-x="763" 
d="M91 248q-2 -5 -3 -9q-3 -8 -3 -13q0 -10 8 -10q11 0 24 20l209 311q32 48 57.5 81.5t48 54.5t43 30.5t42.5 9.5q38 0 58 -15t20 -44q0 -17 -5 -35.5t-10 -32.5l-174 -426q-4 -10 -7 -19.5t-3 -16.5q0 -12 5.5 -16t14.5 -4q14 0 34 14t42 41l183 226l25 -20l-221 -273
q-24 -30 -45 -50t-39.5 -31.5t-37 -16.5t-37.5 -5q-30 0 -50 17.5t-20 44.5q0 25 12 59t33 83l162 383q3 7 3 15q0 20 -19 20q-8 0 -17.5 -5t-19.5 -20l-330 -490q-39 -58 -68.5 -82.5t-57.5 -24.5q-46 0 -46 44q0 23 11.5 57t31.5 82l196 469q-16 -25 -37 -55.5t-50 -69.5
t-66.5 -87t-85.5 -107l-25 20q68 84 118 150t87 119.5t62.5 96.5t45.5 80.5t37 71.5l35 70l117 279h121l-409 -971v0z" />
    <glyph glyph-name="i" unicode="i" horiz-adv-x="441" 
d="M370 1115q30 0 47 -21.5t17 -50.5q0 -16 -5.5 -32.5t-16 -29.5t-25 -21.5t-33.5 -8.5q-29 0 -47 22.5t-18 50.5q0 21 7.5 37.5t19 28.5t26 18.5t28.5 6.5zM133 573q3 7 3 11q0 6 -3.5 8.5t-8.5 2.5q-10 0 -18 -11l-198 -245l-25 20l225 278q26 32 54.5 56.5t59.5 24.5
q29 0 42 -15.5t13 -34.5t-7 -43t-18 -50l-168 -405q-4 -10 -7 -19.5t-3 -16.5q0 -12 5.5 -16t14.5 -4q14 0 34 14t42 41l183 226l25 -20l-221 -273q-24 -30 -45 -50t-39.5 -31.5t-37 -16.5t-37.5 -5q-30 0 -50 17.5t-20 44.5q0 25 12 59t33 83z" />
    <glyph glyph-name="j" unicode="j" horiz-adv-x="437" 
d="M368 365q-49 -62 -94.5 -113t-90.5 -95.5t-90.5 -85t-94.5 -81.5l-203 -467l-151 -41q131 292 237 527q45 100 88.5 197t78.5 175.5t58 130.5t27 61q3 7 3 11q0 6 -3.5 8.5t-8.5 2.5q-10 0 -18 -11l-198 -245l-25 20l225 278q26 32 54.5 56.5t59.5 24.5q29 0 42 -15.5
t13 -34.5t-7.5 -43t-18.5 -50l-223 -514q67 57 145.5 135t169.5 189zM370 1115q30 0 47 -21.5t17 -50.5q0 -16 -5.5 -32.5t-16 -29.5t-25 -21.5t-33.5 -8.5q-29 0 -47 22.5t-18 50.5q0 21 7.5 37.5t19 28.5t26 18.5t28.5 6.5z" />
    <glyph glyph-name="k" unicode="k" horiz-adv-x="775" 
d="M377 90q18 0 36 7.5t34.5 18.5t31 25t25.5 28l183 226l25 -20l-221 -273q-49 -60 -89 -81.5t-84 -20.5q-22 0 -43.5 10t-38 28t-27 43t-10.5 55q0 40 16.5 77.5t43 71.5t59 65t65.5 59t54 54.5t33.5 51t17 47.5t4.5 44q0 16 -8.5 27t-20.5 11q-17 0 -33.5 -16.5
t-26.5 -31.5l-326 -487q-39 -58 -68 -83.5t-64 -25.5q-23 0 -32.5 11.5t-9.5 31.5q1 23 12 57.5t31 81.5l195 469q-16 -25 -37 -55.5t-50 -69.5t-66.5 -87t-85.5 -107l-25 20q67 82 116.5 147.5t86 118.5t62.5 95.5t46 80t36.5 71t34.5 68.5l119 286h121
q-75 -178 -132 -314.5t-99.5 -238t-72 -172t-48.5 -116.5q-46 -109 -55 -130q-4 -11 -4 -19q0 -13 8 -13q11 0 24 20l237 364q35 54 74 88.5t81 34.5q16 0 32 -5t29.5 -17.5t22 -33.5t8.5 -53q0 -49 -23 -85t-57.5 -66.5t-75 -57.5t-75 -58.5t-57.5 -69.5t-23 -90
q0 -48 23.5 -72.5t60.5 -24.5z" />
    <glyph glyph-name="l" unicode="l" horiz-adv-x="415" 
d="M58 170q-4 -10 -7 -19.5t-3 -16.5q0 -12 5.5 -16t14.5 -4q14 0 34 14t42 41l183 226l25 -20l-221 -273q-24 -30 -43.5 -50t-37 -31.5t-35 -16.5t-36.5 -5q-30 0 -50 17.5t-20 44.5q0 25 12.5 59t32.5 83l189 451q-16 -25 -37 -56t-50.5 -70t-67 -87.5t-86.5 -108.5
l-25 20q69 85 120 152.5t88 121.5t63 97t46 81t36.5 72.5t35.5 71.5l114 271h120z" />
    <glyph glyph-name="m" unicode="m" horiz-adv-x="1095" 
d="M422 106q-38 -59 -68 -83t-58 -24q-46 0 -46 44q0 23 11.5 57t31.5 82l177 415q3 7 3 11q0 9 -6 12.5t-11 3.5q-11 0 -20 -8t-17 -20l-323 -490q-39 -58 -68.5 -82.5t-57.5 -24.5q-46 0 -46 44q0 23 11.5 57t31.5 82l166 391q3 7 3 11q0 6 -3.5 8.5t-8.5 2.5
q-10 0 -18 -11l-198 -245l-25 20l225 278q26 32 54.5 56.5t59.5 24.5q29 0 42 -15.5t13 -34.5t-7 -43t-18 -50l-139 -327q-6 -14 -6 -22q0 -10 8 -10q11 0 24 20l219 336q27 42 48.5 70t42.5 45t43 24t51 7t44.5 -15.5t15.5 -34.5t-7 -43t-18 -50l-139 -327q-6 -14 -6 -22
q0 -10 8 -10q11 0 24 20l193 311q31 48 56.5 81.5t48 54.5t43.5 30.5t43 9.5q38 0 58 -15t20 -44q0 -17 -5 -35.5t-10 -32.5l-174 -426q-4 -10 -7 -19.5t-3 -16.5q0 -12 5.5 -16t14.5 -4q14 0 34 14t42 41l183 226l25 -20l-221 -273q-24 -30 -45 -50t-39.5 -31.5t-37 -16.5
t-37.5 -5q-30 0 -50 17.5t-20 44.5q0 25 12 59t33 83l162 383q3 7 3 15q0 9 -6 14.5t-14 5.5t-18 -6t-18 -19z" />
    <glyph glyph-name="n" unicode="n" horiz-adv-x="787" 
d="M133 573q3 7 3 11q0 6 -3.5 8.5t-8.5 2.5q-10 0 -18 -11l-198 -245l-25 20l225 278q26 32 54.5 56.5t59.5 24.5q29 0 42 -15.5t13 -34.5t-7 -43t-18 -50l-139 -327q-6 -14 -6 -22q0 -10 8 -10q11 0 24 20l209 311q32 48 57.5 81.5t48 54.5t43 30.5t42.5 9.5q38 0 58 -15
t20 -44q0 -17 -5 -35.5t-10 -32.5l-174 -426q-4 -10 -7 -19.5t-3 -16.5q0 -12 5.5 -16t14.5 -4q14 0 34 14t42 41l183 226l25 -20l-221 -273q-24 -30 -45 -50t-39.5 -31.5t-37 -16.5t-37.5 -5q-30 0 -50 17.5t-20 44.5q0 25 12 59t33 83l162 383q3 7 3 15q0 20 -19 20
q-8 0 -17.5 -5t-19.5 -20l-330 -490q-39 -58 -68.5 -82.5t-57.5 -24.5q-46 0 -46 44q0 23 11.5 57t31.5 82l166 391v0z" />
    <glyph glyph-name="o" unicode="o" horiz-adv-x="668" 
d="M594 362q-32 -41 -60 -69t-55 -46t-52.5 -27t-51.5 -12q-30 -44 -66.5 -82.5t-77 -67t-85.5 -45t-91 -16.5q-37 0 -72 12.5t-62.5 38t-44 64t-16.5 90.5q0 81 29 160.5t81 148.5t125 124t161 88l9 -14q-77 -67 -132.5 -143t-91.5 -152.5t-53.5 -148.5t-17.5 -131
q0 -19 4 -36.5t12.5 -31t20.5 -21.5t29 -8q22 0 48.5 15t54.5 40.5t56.5 60.5t55.5 75q-48 26 -69 74.5t-21 105.5q0 53 19 103.5t49 89.5t66 62.5t70 23.5q18 0 39 -8t39 -27t30 -51t12 -80q0 -64 -23 -135.5t-63 -140.5q18 4 36.5 13t39 25t44 40.5t51.5 59.5zM198 411
q0 -54 17.5 -94t54.5 -60q27 43 50 89t40 90.5t27 85t10 72.5q0 16 -5 26t-12.5 15.5t-16 7.5t-14.5 2q-19 0 -45 -19.5t-49.5 -52t-40 -75t-16.5 -87.5z" />
    <glyph glyph-name="p" unicode="p" horiz-adv-x="798" 
d="M732 371q-95 -118 -190 -187.5t-183.5 -107.5t-166.5 -53t-138 -23v18q67 24 125.5 64t106.5 88t86 101t64 104.5t39.5 97t13.5 78.5q0 20 -6 33.5t-17 13.5q-15 0 -41.5 -23t-61.5 -62.5t-75 -91.5t-82 -110t-82.5 -118.5t-75.5 -116t-62.5 -103.5t-42.5 -81
q-19 -41 -39.5 -88.5t-41 -96t-39.5 -95t-36 -86.5l-141 -44q15 34 32 73.5t34.5 80.5t35 82.5t33.5 79.5q37 89 75 178l279 666q-15 -24 -35.5 -53t-48.5 -66.5t-65 -85.5t-86 -108l-25 20q62 76 107.5 135t79 104.5t57 80t41 64t31.5 55t28 53.5l20 48h122l-259 -617
q-4 -9 -4 -17q0 -10 7 -10t18 14l22.5 31.5t42 58.5t53.5 73t57.5 76.5t54.5 69t45 50.5q48 48 85 77t75 29q12 0 26.5 -5.5t27 -19t21 -36.5t8.5 -58q0 -68 -32 -143.5t-86 -147.5t-123.5 -135t-144.5 -107q34 10 86 32t112.5 59.5t126 93t127.5 134.5z" />
    <glyph glyph-name="q" unicode="q" horiz-adv-x="700" 
d="M304 72q65 57 140 132.5t161 180.5l25 -20q-44 -55 -84.5 -101t-80 -86.5t-80 -77.5t-82.5 -73q-1 -35 -6.5 -92.5t-16.5 -123.5t-29 -132.5t-43.5 -120.5t-60 -88t-79.5 -34q-50 0 -69.5 28.5t-19.5 67.5q0 18 3.5 37t9 38.5t12.5 37.5t13 34l326 789q6 15 6 18
q0 10 -7 10q-9 0 -19 -15q-6 -8 -24 -34t-44 -62t-56 -78t-60 -82t-57 -73t-46 -52q-48 -48 -85 -75.5t-73 -27.5q-12 0 -26.5 5t-27 17.5t-20.5 35t-8 57.5q0 52 23.5 115t64.5 128.5t97 128.5t121.5 113.5t137.5 84.5t146 41v-18q-61 -18 -117 -55.5t-105 -86.5
t-89 -104.5t-69 -109.5t-44.5 -102.5t-15.5 -81.5q0 -18 5.5 -30t15.5 -12q11 0 32.5 18t49.5 48.5t61 70t67 82.5t67.5 87t62.5 83q44 60 73.5 99t51 62.5t38.5 32.5t37 9q21 0 29 -11t8 -27q0 -13 -3.5 -27t-8.5 -25zM96 -517q21 0 41.5 24t38 63.5t33 91.5t27.5 108
t20 112t12 104l-172 -417q-2 -4 -5 -11.5t-6 -16.5t-5 -19t-2 -17q0 -11 5 -16.5t13 -5.5z" />
    <glyph glyph-name="r" unicode="r" horiz-adv-x="501" 
d="M142 170q-4 -10 -7 -19.5t-3 -16.5q0 -12 5.5 -16t14.5 -4q14 0 34 14t42 41l183 226l25 -20l-221 -273q-24 -30 -44.5 -50t-38.5 -31.5t-36 -16.5t-37 -5q-30 0 -48.5 17.5t-18.5 44.5q0 25 12 59t33 83l140 334q5 12 10 25t9 25t6.5 21.5t2.5 14.5t-3.5 7.5t-8.5 2.5
q-13 0 -28 1t-30 5q-17 -24 -39 -54t-50.5 -67.5t-64 -83.5t-79.5 -102l-25 20q76 97 131 168.5t95 128.5q-23 10 -38.5 27.5t-15.5 46.5q0 11 6.5 31t19 39t31.5 33t44 14q20 0 37.5 -11.5t17.5 -35.5q0 -17 -12 -44t-44 -65q15 -7 29 -8t29 -1q19 0 34.5 1.5t29.5 1.5
q28 0 39 -14t11 -32q0 -19 -8.5 -46t-16.5 -47l-154 -369v0z" />
    <glyph glyph-name="s" unicode="s" horiz-adv-x="512" 
d="M-186 44q0 15 12 36t30 39.5t38 32t36 13.5q20 0 23.5 -12.5t2 -27.5t-1.5 -27.5t15 -12.5q42 0 78 36t62.5 92t41.5 125.5t15 135.5q0 57 -11.5 93.5t-25.5 62.5q-34 -49 -88.5 -120t-138.5 -178l-25 20q80 102 137 176.5t98 133.5q-5 11 -8.5 20.5t-3.5 19.5
q0 23 13 47.5t33 44.5t44.5 32.5t47.5 12.5q12 0 26 -6.5t14 -27.5q0 -7 -7 -19t-15.5 -25t-15.5 -25t-7 -19q0 -8 6.5 -26t14 -46t14 -64.5t6.5 -81.5q0 -56 -14 -111.5t-38 -107t-57 -97.5t-71 -82q75 41 158 111t169 179l25 -20q-60 -77 -124 -137t-128 -105
t-126.5 -74.5t-119.5 -44.5q-17 -5 -33.5 -7.5t-33.5 -2.5q-11 0 -23 1.5t-22 6.5t-16 13.5t-6 22.5z" />
    <glyph glyph-name="t" unicode="t" horiz-adv-x="445" 
d="M384 943h283l-19 -41h-281l-309 -732q-4 -10 -8 -22.5t-4 -23.5q0 -12 7 -19.5t20 -7.5q23 0 51 22.5t50 49.5l183 226l25 -20l-211 -261q-49 -60 -93 -87.5t-83 -27.5q-15 0 -30 4.5t-27 13t-19.5 22t-7.5 31.5q0 25 11.5 54.5t31.5 78.5l189 451q-16 -25 -37 -56
t-50 -70t-67 -87.5t-87 -108.5l-25 20q93 114 153 196.5t99.5 145t65 111.5t48.5 97h-243l19 41h245l79 187h120z" />
    <glyph glyph-name="u" unicode="u" horiz-adv-x="799" 
d="M102 219q-11 -24 -18 -49.5t-7 -42.5q0 -23 12 -28.5t26 -5.5q15 0 35 21.5t43.5 56.5t50 81t53.5 94.5l54 97t53 89.5q35 56 58.5 92.5t43.5 58.5t39.5 30.5t47.5 8.5q21 0 34 -11t13 -27q0 -13 -3.5 -27t-8.5 -25q-4 -9 -17.5 -43t-33 -81.5t-41 -101.5t-41 -102.5
t-35 -85.5t-20.5 -49q-4 -9 -7 -19t-3 -17q0 -12 5.5 -16t14.5 -4q14 0 34 14t42 41l183 226l25 -20l-221 -273q-24 -30 -45 -50t-39.5 -31.5t-37 -16.5t-37.5 -5q-30 0 -50 17.5t-20 44.5q0 30 11.5 62t33.5 80q8 17 19.5 44.5t24.5 58t26 61.5t23 56.5t16.5 42.5t6.5 20
q0 10 -7 10q-9 0 -19 -15q-63 -96 -110 -183.5t-90 -154t-86.5 -105.5t-98.5 -39q-33 0 -56.5 24.5t-23.5 69.5q0 18 3.5 37t8.5 35.5t9.5 29.5t7.5 19l150 359q3 7 3 11q0 6 -3.5 8.5t-8.5 2.5q-10 0 -18 -11l-198 -245l-25 20l225 278q26 32 54.5 56.5t59.5 24.5
q29 0 42 -15.5t13 -34.5t-7 -43t-18 -50z" />
    <glyph glyph-name="v" unicode="v" horiz-adv-x="778" 
d="M133 573q3 7 3 11q0 6 -3.5 8.5t-8.5 2.5q-10 0 -18 -11l-198 -245l-25 20l225 278q26 32 54.5 56.5t59.5 24.5q29 0 42 -15.5t13 -34.5t-7 -43t-18 -50l-154 -382q-14 -35 -23 -63.5t-9 -50.5q0 -15 8 -24.5t22 -9.5q17 0 43 17.5t57 47.5t65.5 70t69.5 85
q-17 25 -25 59t-8 76q0 60 21 117.5t54.5 103.5t75 74t82.5 28q39 0 61.5 -25t22.5 -76q0 -41 -15 -88t-40.5 -96t-61 -99t-75.5 -96q12 -3 27 -3q27 0 52 4.5t52 19.5t57.5 43.5t68.5 75.5l24 -21q-36 -47 -68 -77t-62.5 -47t-60.5 -24t-62 -7q-31 0 -53 7
q-43 -47 -89.5 -87t-91.5 -69.5t-86.5 -46.5t-75.5 -17q-41 0 -65 26.5t-24 80.5q0 35 12.5 83t35.5 103zM337 402q0 -65 19 -104q34 48 65.5 97.5t54.5 95t37 85t14 67.5q0 13 -4 24.5t-20 11.5q-18 0 -46.5 -21.5t-55 -59t-45.5 -88t-19 -108.5z" />
    <glyph glyph-name="w" unicode="w" horiz-adv-x="1100" 
d="M601 642l-181 -449q-14 -35 -23 -63.5t-9 -50.5q0 -15 8 -24.5t22 -9.5q16 0 40.5 16t54.5 44t63 65.5t66 80.5q-17 27 -24.5 62.5t-7.5 76.5q0 60 22.5 119.5t58 107t78.5 77t84 29.5q39 0 61.5 -25t22.5 -76q0 -43 -16 -92.5t-44.5 -101.5t-66.5 -104t-81 -100
q13 -4 33 -4q27 0 53 7t54.5 25t60.5 49t71 80l24 -21q-73 -95 -135.5 -134t-126.5 -39q-35 0 -59 10q-42 -44 -86 -81t-87 -64t-82 -42.5t-72 -15.5q-41 0 -65 26.5t-24 80.5q0 13 2 28t5 32q-69 -77 -133 -122t-115 -45q-41 0 -65 26.5t-24 80.5q0 35 12.5 83t35.5 103
l119 286q3 7 3 11q0 6 -3.5 8.5t-8.5 2.5q-10 0 -18 -11l-198 -245l-25 20l225 278q26 32 54.5 56.5t59.5 24.5q29 0 42 -15.5t13 -34.5t-7 -43t-18 -50l-154 -382q-14 -35 -23 -63.5t-9 -50.5q0 -15 8 -24.5t22 -9.5q17 0 44 18t59.5 49.5t68.5 73t71 88.5l2 6t3 7l147 355
h118zM649 392q0 -65 18 -108q36 49 69 100.5t58 99t40 89t15 70.5q0 13 -4 24.5t-20 11.5q-18 0 -48 -23t-58.5 -62.5t-49 -91.5t-20.5 -110z" />
    <glyph glyph-name="x" unicode="x" horiz-adv-x="681" 
d="M164 254q-50 -64 -90 -107.5t-72 -71.5t-56 -43.5t-43.5 -22.5t-35 -8t-28.5 -1v96q2 -1 6 -2t19 -1q16 0 43.5 6.5t65 28t84.5 62t103 109.5l-26 276q-2 15 -13 15q-7 0 -12 -4.5t-10 -10.5l-191 -236l-25 20l225 278q13 16 24.5 30.5t23 26t24.5 18t28 6.5
q29 0 38 -15.5t11 -34.5l20 -214q62 82 104 129.5t72.5 72t54 33t50.5 11.5l10 -118q-4 1 -8 3q-5 2 -11 3t-14 1q-16 0 -39 -7t-54.5 -26.5t-71.5 -56t-89 -94.5l25 -261q2 -12 7 -21t19 -9q12 0 33 14t43 41l183 226l25 -20l-221 -273q-24 -30 -42.5 -50t-34.5 -31.5
t-32 -16.5t-35 -5q-30 0 -48.5 16.5t-20.5 45.5z" />
    <glyph glyph-name="y" unicode="y" horiz-adv-x="790" 
d="M721 365q-50 -62 -95.5 -113t-90 -95.5t-90.5 -85t-95 -81.5l-202 -467l-151 -41q119 265 215 479q41 91 80.5 179.5t72 160t53.5 119.5t25 57q2 5 2.5 12t-7.5 7q-9 0 -19 -15q-63 -96 -110 -183.5t-90 -154t-86.5 -105.5t-98.5 -39q-33 0 -56.5 24.5t-23.5 69.5
q0 18 3.5 37t8.5 35.5t9.5 29.5t7.5 19l150 359q3 7 3 11q0 6 -3.5 8.5t-8.5 2.5q-10 0 -18 -11l-198 -245l-25 20l225 278q26 32 54.5 56.5t59.5 24.5q29 0 42 -15.5t13 -34.5t-7 -43t-18 -50l-150 -356q-11 -24 -18 -49.5t-7 -42.5q0 -23 12 -28.5t26 -5.5q15 0 35 21.5
t43.5 56.5t50 81t53.5 94.5l54 97t53 89.5q35 56 58.5 92.5t43.5 58.5t39.5 30.5t47.5 8.5q21 0 34 -11t13 -27q0 -13 -3.5 -27t-8.5 -25l-248 -573q68 57 146.5 135.5t169.5 189.5z" />
    <glyph glyph-name="z" unicode="z" horiz-adv-x="571" 
d="M501 365q-52 -65 -97.5 -116t-89.5 -94.5t-89 -83.5t-96 -82q1 -5 1 -9v-9q0 -55 -15 -113.5t-40 -114t-57.5 -105t-67 -87t-68.5 -59t-62 -21.5q-21 0 -40 13t-19 48q0 42 26.5 92.5t66 101.5t85.5 99t85 85q2 17 3.5 33t1.5 32q0 24 -4 46.5t-12 40.5
q-26 -13 -50.5 -20t-47.5 -7q-20 0 -34 9t-14 28q0 12 7 24.5t21 23t35.5 17t51.5 6.5q17 0 31.5 -3.5t27.5 -8.5q42 43 80.5 101t68 117.5t47 112t17.5 84.5q0 38 -16 54.5t-39 16.5q-35 0 -77 -32t-87 -89l-46 -56q-20 -24 -41.5 -51.5t-39.5 -49.5l-25 20q13 16 34 42
t41 51q24 29 49 60q86 109 165 162.5t138 53.5q16 0 33.5 -6t32 -20t24 -37.5t9.5 -59.5q0 -54 -28.5 -122.5t-75 -138t-105.5 -133t-120 -107.5q15 -16 25.5 -35.5t16.5 -40.5q73 59 161.5 145t192.5 212zM-182 -497q19 0 46.5 30.5t55.5 79t53 111t40 127.5
q-30 -28 -68 -69.5t-71 -86.5t-56 -88t-23 -73q0 -11 2.5 -17.5t6 -9.5t7.5 -3.5t7 -0.5zM-87 58q20 0 40 8t40 22q-19 17 -47 17q-30 0 -42 -10.5t-12 -19.5q0 -6 5 -11.5t16 -5.5z" />
    <glyph glyph-name="braceleft" unicode="{" horiz-adv-x="647" 
d="M155 726q25 7 53.5 25t55 42t47.5 52.5t33 56.5q11 26 19.5 67t17.5 87t19.5 90.5t24.5 78.5q15 37 39 69.5t53 60.5t61 51.5t63 42.5q73 44 155 76l11 -30q-63 -31 -120 -73q-24 -18 -49.5 -40t-49 -48t-43 -55t-32.5 -62q-17 -41 -24.5 -85t-12.5 -88.5t-11.5 -86
t-20.5 -75.5q-9 -21 -25.5 -47t-39.5 -51t-51.5 -46t-61.5 -33q22 -17 30.5 -41.5t8.5 -51.5q0 -43 -17.5 -83.5t-43.5 -80.5t-56.5 -80t-56.5 -82t-43.5 -87.5t-17.5 -95.5q0 -45 11 -79.5t25 -58.5q16 -28 36 -50l-20 -21l-21 17t-46 47t-45.5 71.5t-20.5 90.5t15.5 94.5
t38.5 88t50 81.5t50 76t38.5 72.5t15.5 69.5q0 11 -2.5 25.5t-8 29.5t-14.5 28t-22 20z" />
    <glyph glyph-name="bar" unicode="|" horiz-adv-x="500" 
d="M210 -328v1761h80v-1761h-80z" />
    <glyph glyph-name="braceright" unicode="}" horiz-adv-x="647" 
d="M501 693q-26 -7 -54 -25t-54.5 -42t-47.5 -52.5t-33 -56.5q-11 -26 -20 -67t-18 -87t-19 -90.5t-24 -78.5q-15 -37 -39 -69.5t-53 -60.5t-61 -51.5t-63 -42.5q-73 -44 -155 -76l-11 30q63 31 120 73q24 18 49.5 40t48.5 47.5t42.5 55t33.5 62.5q16 40 23.5 84.5t13 89
t12 85.5t20.5 76q9 21 25.5 47t39.5 51t51.5 46t61.5 33q-22 17 -30.5 41.5t-8.5 51.5q0 43 17.5 83.5t43.5 80.5t56.5 80t56.5 82t43.5 87t17.5 96q0 45 -11 79.5t-25 58.5q-16 28 -36 50l20 21l21 -17t46 -47t45.5 -71.5t20.5 -90.5t-15.5 -94.5t-38.5 -88t-50 -81.5
t-50 -76t-38.5 -72.5t-15.5 -69.5q0 -11 2.5 -25.5t8 -29.5t14.5 -28t22 -20z" />
    <glyph glyph-name="asciitilde" unicode="~" 
d="M659 690q-27 -54 -52 -92.5t-51 -63.5t-53.5 -37t-59.5 -12q-42 0 -70.5 20.5t-50.5 45t-41 45t-43 20.5q-30 0 -58.5 -28.5t-63.5 -102.5h-80q52 109 100 157t104 48q40 0 67 -20.5t48.5 -45t42.5 -45t49 -20.5q14 0 29 5.5t31.5 19.5t34 39.5t37.5 66.5h80v0z" />
    <glyph glyph-name="nonbreakingspace" unicode="&#xa0;" horiz-adv-x="490" 
 />
    <glyph glyph-name="exclamdown" unicode="&#xa1;" horiz-adv-x="445" 
d="M225 680h27l-481 -1198h-141zM215 813q0 29 21 50.5t50 21.5t49.5 -21.5t20.5 -50.5t-20.5 -49t-49.5 -20t-50 20t-21 49z" />
    <glyph glyph-name="cent" unicode="&#xa2;" horiz-adv-x="550" 
d="M407 878q4 1 11 1q16 0 32 -5t29 -16t21 -28t8 -41q0 -7 -0.5 -14t-1.5 -15q-4 -18 -23 -36.5t-43.5 -33t-50 -24t-42.5 -9.5q32 42 52 80.5t20 65.5q0 15 -7 25t-21 12l-238 -566q41 4 92.5 31.5t121.5 94.5l25 -24q-49 -48 -88.5 -76t-70.5 -42.5t-55 -19t-42 -4.5
l-98 -234l-38 15l94 222q-19 3 -42 11.5t-43.5 26.5t-34.5 47.5t-14 73.5q0 62 19.5 118.5t52 105t74.5 89.5t86.5 73t88 53.5t79.5 32.5l95 225l36 -16zM64 356q0 -37 12.5 -55.5t34.5 -23.5l231 549q-29 -16 -61 -47t-63 -71.5t-58.5 -87.5t-49 -94t-34 -91t-12.5 -79z
" />
    <glyph glyph-name="sterling" unicode="&#xa3;" horiz-adv-x="942" 
d="M397 549q-17 -49 -36.5 -99t-41.5 -99t-46.5 -95t-52.5 -86q24 -17 49 -33t52.5 -28.5t58 -20t65.5 -7.5q37 0 68.5 4.5t58 18.5t48 40.5t38.5 71.5l40 -11q-24 -75 -59 -119t-72.5 -66.5t-73.5 -28.5t-64 -6q-42 0 -78 10.5t-67.5 27.5t-59 39t-52.5 45
q-48 -55 -103 -87.5t-118 -32.5q-23 0 -46.5 7t-42 22t-30.5 38t-12 55q0 33 14 63t39 53.5t59 37t74 13.5t75.5 -16t69.5 -40q36 70 66 155t56 174h-182l23 52h175q7 25 14 49.5t14 48.5q32 113 67.5 195t72 140t74 94t74 56t72 27.5t67.5 7.5q42 0 74.5 -12t55 -32.5
t34.5 -48t12 -58.5t-11.5 -59t-32 -52t-47.5 -42.5t-57 -30.5l-35 99q22 1 44 7t40 18.5t29 31t11 44.5q0 18 -7 35t-21.5 29.5t-37.5 20.5t-56 8q-60 0 -105.5 -47.5t-81.5 -121.5t-64 -163.5t-52 -173.5q-5 -17 -11 -34.5t-11 -35.5h287l-23 -52h-281zM-56 33
q50 0 92.5 34t79.5 91q-32 28 -62 47t-62 19t-55.5 -10t-39 -26.5t-23.5 -36.5t-8 -39q0 -35 22 -57t56 -22z" />
    <glyph glyph-name="currency" unicode="&#xa4;" 
d="M555 790q27 -39 38 -77.5t11 -77.5q0 -41 -10 -78.5t-39 -76.5l53.5 -53.5l54.5 -54.5l-27 -27t-25 -26l-109 109q-36 -23 -78 -36.5t-77 -13.5q-40 0 -78 12t-75 39q-25 -26 -54 -54.5t-55 -54.5q-14 15 -26.5 26.5t-25.5 25.5l110 110q-27 37 -39.5 75.5t-12.5 77.5
q0 41 11.5 78.5t40.5 76.5q-26 25 -55 54l-55 55l51 51l110 -109q37 26 78 38.5t79 12.5q39 0 77 -11t75 -38l44 44q16 16 32 33t31 31q16 -16 27 -26.5t26 -25.5zM215 501q27 -27 61.5 -39t70.5 -12q35 0 69 12t60.5 35.5t43 58t16.5 79.5q0 38 -15 72t-41 59.5t-60 40.5
t-73 15q-40 0 -74 -15.5t-58.5 -41.5t-38.5 -60t-14 -70q0 -38 12 -71.5t41 -62.5z" />
    <glyph glyph-name="yen" unicode="&#xa5;" horiz-adv-x="1112" 
d="M597 -54q-41 -75 -91.5 -145.5t-112.5 -125t-136.5 -87.5t-162.5 -33q-60 0 -100.5 23t-63.5 58l72 71q6 -15 13.5 -34.5t20 -37t32 -29t49.5 -11.5t67 13t81 51.5t95 107t111 179.5h-304l23 52h308q11 20 21.5 42.5t21.5 45.5h-317l23 52h318q11 23 21.5 47.5t21.5 50.5
l140 331q-69 -96 -130.5 -159.5t-115.5 -101t-100.5 -52.5t-84.5 -15q-55 0 -81.5 32.5t-26.5 81.5q0 26 6 57.5t16 65.5t22.5 68t26.5 66l94 221q19 44 38 87.5t34.5 82t25 71.5t9.5 56q0 15 -7.5 24.5t-27.5 9.5q-11 0 -39.5 -7.5t-76 -37t-114 -88.5t-153.5 -162l-20 97
q66 58 129 103t118.5 76t101.5 46.5t79 15.5q48 0 76.5 -28t28.5 -72q0 -29 -6.5 -62.5t-17.5 -69t-24.5 -72t-28.5 -70.5l-95 -221q-18 -42 -34 -85.5t-28 -82.5t-19 -71t-7 -51q0 -14 8 -20.5t20 -6.5q10 0 34 6.5t60.5 28t84 61.5t104 106.5t122 163.5t138.5 233l139 327
h122l-417 -983q-10 -23 -20.5 -47.5t-21.5 -50.5h145l-23 -52h-145q-10 -22 -20.5 -43.5t-21.5 -44.5h153l-23 -52h-157z" />
    <glyph glyph-name="brokenbar" unicode="&#xa6;" 
d="M210 778v656h80v-656h-80zM210 -327v656h80v-656h-80z" />
    <glyph glyph-name="section" unicode="&#xa7;" 
d="M648 634q0 -54 -17.5 -98t-47 -77.5t-67.5 -56.5t-80 -35q19 -35 31 -70t12 -72q0 -72 -26.5 -123.5t-68 -84t-93 -47.5t-102.5 -15q-48 0 -88.5 12.5t-73.5 32t-58 43t-42 46.5l84 68q46 -86 90 -124.5t97 -38.5q36 0 69 11.5t58.5 34.5t40.5 59t15 84q0 41 -20.5 81
t-50.5 81.5t-66 84t-66 88.5t-50.5 95.5t-20.5 105.5q0 54 17.5 97.5t47 77.5t67.5 57t80 35q-20 35 -31.5 70t-11.5 72q0 72 26.5 123.5t68 84t93 47.5t102.5 15q48 0 88.5 -12.5t73.5 -32t58 -43.5t42 -46l-84 -68q-46 86 -90 124.5t-97 38.5q-36 0 -69 -11.5t-58.5 -34.5
t-40.5 -59t-15 -84q0 -41 20.5 -81t50.5 -81.5t66 -84t66 -88.5t50.5 -96t20.5 -105zM548 601q0 42 -21 84.5t-52.5 86t-67.5 88t-66 90.5q-27 -9 -51.5 -27t-43 -43t-29 -57.5t-10.5 -70.5q0 -42 21 -85t52 -86.5t67.5 -87.5t66.5 -90q27 9 51.5 27t43 43t29 57.5
t10.5 70.5z" />
    <glyph glyph-name="dieresis" unicode="&#xa8;" horiz-adv-x="500" 
d="M479 939q0 -29 -21.5 -50.5t-50.5 -21.5q-31 0 -52 21.5t-21 50.5q0 31 21 52.5t52 21.5q29 0 50.5 -21.5t21.5 -52.5zM266 939q0 -29 -21.5 -50.5t-52.5 -21.5q-29 0 -50 21.5t-21 50.5q0 31 21 52.5t50 21.5q31 0 52.5 -21.5t21.5 -52.5z" />
    <glyph glyph-name="copyright" unicode="&#xa9;" horiz-adv-x="1536" 
d="M842 1253q-89 0 -173 -26.5t-159 -73t-137.5 -110.5t-108 -139.5t-70.5 -160t-25 -170.5q0 -106 34.5 -197.5t99 -159t158 -106t210.5 -38.5q87 0 171 26t159.5 72t139 109t110 138t72.5 158t26 169q0 107 -35 200t-100.5 161.5t-159.5 108t-212 39.5zM854 1325
q125 0 230.5 -43.5t182 -120t119.5 -180.5t43 -225q0 -104 -29.5 -200.5t-82.5 -180.5t-125.5 -153t-157.5 -118.5t-180.5 -76.5t-193.5 -27q-125 0 -230 43.5t-180.5 119.5t-117.5 179.5t-42 223.5q0 104 29 201t81 181t123.5 153.5t156 119t180 77t194.5 27.5zM871 719
q36 18 63.5 45.5t46.5 61.5t28.5 73t9.5 81q0 59 -25.5 95t-70.5 36q-53 0 -106 -30t-101.5 -80t-91 -116t-73.5 -139t-48.5 -147t-17.5 -141q0 -97 35.5 -148t100.5 -51q6 0 26 1t49 8.5t64.5 25.5t73.5 53l19 -28q-41 -40 -82 -62.5t-75.5 -33t-60 -13t-35.5 -2.5
q-38 0 -80.5 11.5t-78.5 40t-59.5 75.5t-23.5 119q0 91 25.5 177t69 163t100 141.5t118.5 111t124.5 72.5t118.5 26q45 0 81.5 -12.5t62.5 -35t40 -54t14 -69.5q0 -43 -19 -87t-50.5 -82.5t-72.5 -68.5t-84 -45z" />
    <glyph glyph-name="ordfeminine" unicode="&#xaa;" horiz-adv-x="512" 
d="M447 865q-7 -14 -7 -24q0 -14 14 -14q11 0 17.5 6.5t22.5 24.5l135 152l26 -24l-162 -183q-35 -40 -63 -54.5t-57 -14.5q-26 0 -40 12t-14 30q0 20 8.5 41.5t24.5 53.5q9 18 20.5 43t22.5 49t18.5 41.5t7.5 20.5q0 6 -5 6q-7 0 -14 -10q-6 -8 -28 -36t-50 -62.5
t-56.5 -68t-49.5 -52.5q-35 -32 -63 -50.5t-62 -18.5q-9 0 -19.5 3.5t-19.5 12t-15 23.5t-6 38q0 34 17 76.5t47 86.5t71 86t89 76t100.5 56.5t106.5 27.5v-21q-44 -12 -84.5 -36.5t-75.5 -56.5t-63 -68t-48 -71t-31 -66.5t-11 -53.5q0 -14 3.5 -19t8.5 -5q12 0 39.5 25.5
t62 63.5t72 83t69.5 84q32 40 54 66.5t38 42t29 21.5t28 6t22.5 -7t7.5 -18q0 -9 -3 -18t-6 -17q-3 -6 -12.5 -27.5t-22.5 -51t-27.5 -63t-28 -63.5t-24 -53t-14.5 -31zM-10 599l24 48h416l-24 -48h-416z" />
    <glyph glyph-name="guillemotleft" unicode="&#xab;" horiz-adv-x="655" 
d="M-10 371l334 227l-45 -102l-187 -125l78 -125l-45 -103zM195 371l334 227l-45 -102l-187 -125l78 -125l-45 -103z" />
    <glyph glyph-name="logicalnot" unicode="&#xac;" 
d="M562 627h-521l31 76h605l-113 -282h-84z" />
    <glyph glyph-name="uni00AD" unicode="&#xad;" 
d="M55 412l39 116h507l-39 -116h-507z" />
    <glyph glyph-name="registered" unicode="&#xae;" horiz-adv-x="1024" 
d="M608 1261q-85 0 -162.5 -36.5t-136.5 -97t-94 -138.5t-35 -161q0 -67 21.5 -125t62.5 -100.5t100 -67t133 -24.5q83 0 161 36t138 95.5t96 136.5t36 160q0 68 -22 127t-63.5 102.5t-100.5 68t-134 24.5zM615 1326q84 0 154.5 -29t121.5 -80t79.5 -120.5t28.5 -149.5
q0 -104 -43 -195t-114.5 -159t-163 -107.5t-188.5 -39.5q-84 0 -153.5 29t-120 79.5t-78.5 119.5t-28 149q0 103 42 195t112.5 160t161.5 108t189 40zM774 1081q0 -41 -13 -71.5t-36.5 -53.5t-56.5 -40t-73 -31q-23 -8 -27 -16t-4 -18q0 -2 8.5 -20.5t23.5 -49.5t35.5 -70.5
t44.5 -83.5l-78 -26q-19 36 -33 64t-26.5 54.5t-25 55.5t-27.5 67q-2 4 -3.5 10t-1.5 10q0 11 7 16.5t21 10.5t35 12t49 20q54 28 77.5 68t23.5 88q0 15 -3 29t-10 25t-18.5 18t-27.5 7q-15 0 -31 -4t-32.5 -19t-34 -44t-34.5 -78l-136 -385h-79l137 385q16 47 40 81
t52.5 55.5t60 31.5t63.5 10q24 0 47.5 -6.5t42.5 -20t31 -33.5t12 -48z" />
    <glyph glyph-name="macron" unicode="&#xaf;" horiz-adv-x="500" 
d="M120 911l20 65h359l-23 -65h-356z" />
    <glyph glyph-name="degree" unicode="&#xb0;" horiz-adv-x="354" 
d="M472 1119q0 -31 -14 -60.5t-37 -52.5t-54 -37t-64 -14q-51 0 -76.5 28.5t-25.5 70.5q0 31 14 60.5t37 53t53.5 37.5t63.5 14q48 0 75.5 -28.5t27.5 -71.5zM309 985q21 0 38 16t29.5 39t19 49t6.5 46q0 31 -12.5 41t-27.5 10t-31 -13t-29.5 -34t-22.5 -48t-9 -55
q0 -24 9.5 -37.5t29.5 -13.5z" />
    <glyph glyph-name="plusminus" unicode="&#xb1;" 
d="M354 547l-111 -276h-84l112 276h-264l31 76h263l112 275h84l-112 -275h278l-31 -76h-278zM-133 87l31 76h625l-31 -76h-625z" />
    <glyph glyph-name="twosuperior" unicode="&#xb2;" horiz-adv-x="611" 
d="M147 808q-11 39 -11 73q0 64 28 125t76.5 108t114 76t141.5 29q50 0 87.5 -14t62 -38.5t37 -56.5t12.5 -68q0 -65 -26 -117t-70 -97t-103.5 -84.5t-127 -78t-139 -79.5t-139.5 -88q10 4 15.5 7t11 4t13.5 1.5t25 0.5q38 0 82.5 -3.5t92.5 -3.5q24 0 42 4t32 10.5
t25.5 15.5t23.5 20l32 -17l-107 -123q-80 10 -155.5 22t-163.5 12q-29 0 -59.5 -8t-55.5 -27l-20 23q82 61 163 112.5t154.5 99t136.5 92.5t109.5 92.5t72.5 99.5t26 114q0 60 -30.5 95.5t-90.5 35.5q-58 0 -104 -20.5t-77.5 -53.5t-48 -75t-16.5 -85q0 -46 25 -83z" />
    <glyph glyph-name="threesuperior" unicode="&#xb3;" horiz-adv-x="592" 
d="M209 902q15 6 31 11t34 7q33 8 68.5 24t65 40t49 56t19.5 71q0 41 -21.5 58t-52.5 17q-30 0 -55.5 -12t-47.5 -32t-39 -47t-29 -57l-61 76q69 60 130 82.5t117 22.5q32 0 63 -7.5t55 -22t38.5 -35.5t14.5 -48q0 -36 -20.5 -65.5t-52.5 -52.5t-72 -40t-79 -27
q39 -6 70 -22.5t52.5 -39.5t32.5 -52.5t11 -60.5q0 -68 -33.5 -123.5t-88 -99.5t-123.5 -77t-139.5 -56.5t-137 -37.5t-115.5 -19l-3 33q53 5 112 19.5t117 37t110.5 54t92.5 71t64 87.5t24 105q0 27 -5.5 52.5t-19 46t-36 32.5t-55.5 12q-20 0 -39 -4t-36 -10z" />
    <glyph glyph-name="acute" unicode="&#xb4;" horiz-adv-x="500" 
d="M224 844h-49l144 194h145z" />
    <glyph glyph-name="mu" unicode="&#xb5;" horiz-adv-x="680" 
d="M483 208q-57 -70 -93.5 -111.5t-61.5 -63t-43 -28t-37 -6.5q-27 0 -38.5 14t-13 34.5t4 44.5t11.5 45q-49 -74 -91 -106t-87 -32q-11 0 -24.5 3t-25 13t-18.5 29t-3 51l-7 -1q-15 -39 -30 -85.5l-30 -93t-29 -88.5t-26 -71l-141 -44q30 69 70 162t90.5 213t113 268
t138.5 327h117l-194 -463q-11 -24 -18 -44t-7 -37q0 -23 11.5 -34t28.5 -11q28 0 51.5 8t47 31t49.5 64t58.5 106.5t73.5 158.5t96 221h117q-3 -7 -13 -30t-24.5 -57.5t-32.5 -76.5t-37 -86t-37 -87t-33.5 -79t-26.5 -61.5t-15 -34.5t-7 -19t-3 -17q0 -12 5.5 -16t14.5 -4
q7 0 16.5 4.5t23.5 17t34.5 34.5t49.5 58z" />
    <glyph glyph-name="paragraph" unicode="&#xb6;" horiz-adv-x="934" 
d="M489 0h-67l571 1359q-25 -2 -49.5 -5t-50.5 -8l-564 -1346h-67l291 694q-58 -13 -129 -13q-63 0 -118.5 11.5t-97 35.5t-65 60.5t-23.5 86.5q0 65 37 127.5t102.5 119t156 104.5t196.5 84.5t223.5 59t238.5 27.5zM476 729q49 0 96 9l248 591q-108 -28 -209.5 -75
t-180 -106.5t-126 -128.5t-47.5 -140q0 -39 18 -67.5t48 -46.5t69.5 -27t83.5 -9z" />
    <glyph glyph-name="periodcentered" unicode="&#xb7;" horiz-adv-x="268" 
d="M135 554q0 -30 -21.5 -51.5t-52.5 -21.5q-29 0 -50.5 21.5t-21.5 51.5q0 29 21.5 50.5t50.5 21.5q31 0 52.5 -21.5t21.5 -50.5z" />
    <glyph glyph-name="cedilla" unicode="&#xb8;" horiz-adv-x="500" 
d="M61 -91q17 10 41 13.5t47 3.5q39 0 64.5 -21t25.5 -53q0 -29 -17 -55.5t-45.5 -46.5t-66.5 -32t-80 -12q-44 0 -70 10t-40 19l16 24q9 -6 31 -15t57 -9q27 0 50 7.5t40 21.5t27 33.5t10 42.5q0 29 -15.5 42.5t-35.5 13.5q-22 0 -38.5 -8t-34.5 -25h-27l104 147h27z" />
    <glyph glyph-name="onesuperior" unicode="&#xb9;" horiz-adv-x="438" 
d="M166 422h-105l295 690l-291 -295l-29 29l353 359h109z" />
    <glyph glyph-name="ordmasculine" unicode="&#xba;" horiz-adv-x="488" 
d="M608 978q-47 -56 -85 -78.5t-76 -26.5q-22 -30 -48.5 -55.5t-56.5 -44t-62 -29.5t-66 -11q-27 0 -52.5 8.5t-45.5 25.5t-32 42.5t-12 60.5q0 55 21 107t59 98t91 83t118 61l13 -16q-56 -45 -96 -95t-66 -99.5t-38 -97t-12 -86.5q0 -26 7 -42t31 -16q15 0 33.5 9.5t38 26
t40 38.5t40.5 48q-32 18 -46 50t-14 69q0 36 14 69.5t35.5 59.5t48 42t50.5 16q13 0 28.5 -5.5t28.5 -18t22 -34t9 -53.5q0 -40 -15 -85t-41 -89q23 5 49.5 24.5t64.5 64.5zM329 1010q0 -68 44 -92q35 51 58 106t23 99q0 17 -8 25.5t-17 8.5q-15 0 -32.5 -11.5t-32.5 -31.5
t-25 -47t-10 -57zM0 599l24 48h376l-24 -48h-376z" />
    <glyph glyph-name="guillemotright" unicode="&#xbb;" horiz-adv-x="655" 
d="M274 371l-334 -228l45 103l186 125l-77 125l45 102zM479 371l-334 -228l45 103l186 125l-78 125l45 102z" />
    <glyph glyph-name="onequarter" unicode="&#xbc;" horiz-adv-x="1137" 
d="M347 148q74 56 142 123t126.5 134.5t106.5 131.5t83 114l83 -42q-14 -21 -41.5 -54t-64 -73t-80.5 -83.5t-91 -85.5t-95 -79.5t-93 -64.5q29 11 50.5 13t35.5 2q45 0 87.5 -8.5t84.5 -13.5l126 297h93l-126 -298q25 2 46 5t35 9l-10 -36q-23 -8 -44.5 -14.5t-45.5 -10.5
l-48 -114h-94l45 108q-53 1 -103.5 12t-98.5 11h-48t-47 -11zM84 0h-84l853 1219h84zM210 577h-94l229 535l-220 -222l-29 27l283 288h98z" />
    <glyph glyph-name="onehalf" unicode="&#xbd;" horiz-adv-x="1227" 
d="M210 577h-94l229 535l-220 -222l-29 27l283 288h98zM84 0h-84l853 1219h84zM576 305q-9 30 -9 58q0 51 22.5 100t62 87t92.5 61t113 23q40 0 71.5 -11.5t53.5 -31t33.5 -45t11.5 -54.5q0 -52 -20 -93t-54 -75.5t-80 -65t-98.5 -60.5t-109 -62t-111.5 -70q17 8 30.5 9.5
t25.5 1.5q15 0 28 -1t25.5 -2t27 -2t33.5 -1q40 0 69.5 11.5t49.5 28.5l26 -14l-96 -108q-65 8 -129.5 17.5t-136.5 9.5q-23 0 -47.5 -6.5t-44.5 -21.5l-19 23q66 49 131 90t123.5 78.5t109 73t87 73t57.5 79t21 90.5q0 17 -4 34.5t-14.5 31.5t-28.5 23t-45 9
q-42 0 -76.5 -15.5t-59.5 -40.5t-38.5 -57.5t-13.5 -66.5q0 -18 5 -34t14 -31z" />
    <glyph glyph-name="threequarters" unicode="&#xbe;" horiz-adv-x="1218" 
d="M428 148q74 56 142 123t126.5 134.5t106.5 131.5t83 114l83 -42q-14 -21 -41.5 -54t-64 -73t-80.5 -83.5t-91 -85.5t-95 -79.5t-93 -64.5q29 11 50.5 13t35.5 2q45 0 87.5 -8.5t84.5 -13.5l126 297h93l-126 -298q25 2 46 5t35 9l-10 -36q-23 -8 -44.5 -14.5t-45.5 -10.5
l-48 -114h-94l45 108q-53 1 -103.5 12t-98.5 11h-48t-47 -11zM165 0h-84l853 1219h84zM40 560q60 16 115.5 42.5t98 61.5t68 78t25.5 93q0 17 -4 36t-14.5 35.5t-28 27t-44.5 10.5q-16 0 -31.5 -3t-29.5 -8l-9 32q11 5 22.5 8.5t23.5 5.5h1q2 0 2.5 0.5t2.5 0.5
q26 6 54.5 18.5t52.5 32t39.5 45t15.5 57.5t-17 43.5t-42 11.5q-24 0 -44 -9.5t-37 -26t-30 -38t-23 -45.5l-52 66q56 48 104.5 66t93.5 18q66 0 106.5 -23.5t40.5 -66.5q0 -30 -16 -54t-42 -42.5t-59.5 -31.5t-67.5 -21q69 -11 104 -50t35 -90q0 -65 -38.5 -115.5t-98 -89
t-130.5 -64.5t-136 -41z" />
    <glyph glyph-name="questiondown" unicode="&#xbf;" horiz-adv-x="840" 
d="M542 812q0 30 21.5 51.5t52.5 21.5q29 0 50.5 -21.5t21.5 -51.5q0 -29 -21.5 -50.5t-50.5 -21.5q-31 0 -52.5 21.5t-21.5 50.5zM606 676q-30 -79 -70.5 -145.5t-87 -126t-95.5 -113.5t-95.5 -106.5t-88.5 -105t-73 -110t-49.5 -121.5t-18.5 -138q0 -37 9.5 -72t28.5 -62
t47 -43.5t66 -16.5q57 0 111 26t95.5 69.5t66.5 98.5t25 114q0 62 -34 98t-97 36q-26 0 -45 -7t-33 -16t-23 -18.5t-13 -13.5l-13 26q21 24 46 40t50.5 26t49 14.5t41.5 4.5q34 0 66.5 -10.5t57.5 -31.5t40 -52t15 -71q0 -51 -18.5 -98t-50.5 -88.5t-74.5 -75.5t-91.5 -58
t-101 -37.5t-102 -13.5q-54 0 -99.5 18t-78.5 50t-51.5 75.5t-18.5 95.5q0 75 23.5 141t63 126.5t91.5 116t109 110t114.5 108.5t108.5 110.5t92 117.5t64 129h41z" />
    <glyph glyph-name="Agrave" unicode="&#xc0;" horiz-adv-x="1471" 
d="M1214 534h101l-43 -92h-96l-186 -442h-133l185 442h-435q-4 -8 -7.5 -14.5t-7.5 -13.5q-77 -139 -151 -223.5t-142 -131t-128 -62t-110 -15.5q-43 0 -79.5 13.5t-63.5 38t-42.5 60.5t-15.5 81q0 85 44.5 152t123.5 113t188.5 70t239.5 24h65q108 184 197 322t164 238
t137.5 166t117.5 104.5t104.5 54t97.5 15.5q63 0 100 -37.5t37 -119.5q0 -58 -20 -137t-64 -184zM1328 1397q-33 0 -64 -8.5t-68 -37.5t-83.5 -85.5t-110 -152.5t-147.5 -237.5t-196 -341.5h421l177 422q58 140 92.5 232.5t34.5 145.5q0 32 -13 47.5t-43 15.5zM69 32
q66 0 118.5 32.5t97 85.5t84 120t78.5 136l21 36h-59q-143 0 -239 -22.5t-154 -59.5t-82.5 -84.5t-24.5 -96.5q0 -28 8.5 -54.5t27.5 -47t49.5 -33t74.5 -12.5zM1390 1536l-90 194h125l-2 -194h-33z" />
    <glyph glyph-name="Aacute" unicode="&#xc1;" horiz-adv-x="1471" 
d="M1214 534h101l-43 -92h-96l-186 -442h-133l185 442h-435q-4 -8 -7.5 -14.5t-7.5 -13.5q-77 -139 -151 -223.5t-142 -131t-128 -62t-110 -15.5q-43 0 -79.5 13.5t-63.5 38t-42.5 60.5t-15.5 81q0 85 44.5 152t123.5 113t188.5 70t239.5 24h65q108 184 197 322t164 238
t137.5 166t117.5 104.5t104.5 54t97.5 15.5q63 0 100 -37.5t37 -119.5q0 -58 -20 -137t-64 -184zM1328 1397q-33 0 -64 -8.5t-68 -37.5t-83.5 -85.5t-110 -152.5t-147.5 -237.5t-196 -341.5h421l177 422q58 140 92.5 232.5t34.5 145.5q0 32 -13 47.5t-43 15.5zM69 32
q66 0 118.5 32.5t97 85.5t84 120t78.5 136l21 36h-59q-143 0 -239 -22.5t-154 -59.5t-82.5 -84.5t-24.5 -96.5q0 -28 8.5 -54.5t27.5 -47t49.5 -33t74.5 -12.5zM1307 1536h-49l144 194h145z" />
    <glyph glyph-name="Acircumflex" unicode="&#xc2;" horiz-adv-x="1471" 
d="M1214 534h101l-43 -92h-96l-186 -442h-133l185 442h-435q-4 -8 -7.5 -14.5t-7.5 -13.5q-77 -139 -151 -223.5t-142 -131t-128 -62t-110 -15.5q-43 0 -79.5 13.5t-63.5 38t-42.5 60.5t-15.5 81q0 85 44.5 152t123.5 113t188.5 70t239.5 24h65q108 184 197 322t164 238
t137.5 166t117.5 104.5t104.5 54t97.5 15.5q63 0 100 -37.5t37 -119.5q0 -58 -20 -137t-64 -184zM1328 1397q-33 0 -64 -8.5t-68 -37.5t-83.5 -85.5t-110 -152.5t-147.5 -237.5t-196 -341.5h421l177 422q58 140 92.5 232.5t34.5 145.5q0 32 -13 47.5t-43 15.5zM69 32
q66 0 118.5 32.5t97 85.5t84 120t78.5 136l21 36h-59q-143 0 -239 -22.5t-154 -59.5t-82.5 -84.5t-24.5 -96.5q0 -28 8.5 -54.5t27.5 -47t49.5 -33t74.5 -12.5zM1439 1536l-34 132l-145 -132h-75l205 192h91l59 -192h-101z" />
    <glyph glyph-name="Atilde" unicode="&#xc3;" horiz-adv-x="1471" 
d="M1214 534h101l-43 -92h-96l-186 -442h-133l185 442h-435q-4 -8 -7.5 -14.5t-7.5 -13.5q-77 -139 -151 -223.5t-142 -131t-128 -62t-110 -15.5q-43 0 -79.5 13.5t-63.5 38t-42.5 60.5t-15.5 81q0 85 44.5 152t123.5 113t188.5 70t239.5 24h65q108 184 197 322t164 238
t137.5 166t117.5 104.5t104.5 54t97.5 15.5q63 0 100 -37.5t37 -119.5q0 -58 -20 -137t-64 -184zM1328 1397q-33 0 -64 -8.5t-68 -37.5t-83.5 -85.5t-110 -152.5t-147.5 -237.5t-196 -341.5h421l177 422q58 140 92.5 232.5t34.5 145.5q0 32 -13 47.5t-43 15.5zM69 32
q66 0 118.5 32.5t97 85.5t84 120t78.5 136l21 36h-59q-143 0 -239 -22.5t-154 -59.5t-82.5 -84.5t-24.5 -96.5q0 -28 8.5 -54.5t27.5 -47t49.5 -33t74.5 -12.5zM1610 1719q-39 -88 -75 -127.5t-83 -39.5q-24 0 -42.5 13t-34.5 28.5t-30.5 28.5t-32.5 13q-11 0 -20.5 -3.5
t-19.5 -13t-20.5 -25.5t-23.5 -41h-53q38 90 72.5 128.5t76.5 38.5q24 0 41 -13t32.5 -28.5t31.5 -28.5t36 -13q10 0 20.5 3t22 12t23.5 25t26 43h53v0z" />
    <glyph glyph-name="Adieresis" unicode="&#xc4;" horiz-adv-x="1471" 
d="M1214 534h101l-43 -92h-96l-186 -442h-133l185 442h-435q-4 -8 -7.5 -14.5t-7.5 -13.5q-77 -139 -151 -223.5t-142 -131t-128 -62t-110 -15.5q-43 0 -79.5 13.5t-63.5 38t-42.5 60.5t-15.5 81q0 85 44.5 152t123.5 113t188.5 70t239.5 24h65q108 184 197 322t164 238
t137.5 166t117.5 104.5t104.5 54t97.5 15.5q63 0 100 -37.5t37 -119.5q0 -58 -20 -137t-64 -184zM1328 1397q-33 0 -64 -8.5t-68 -37.5t-83.5 -85.5t-110 -152.5t-147.5 -237.5t-196 -341.5h421l177 422q58 140 92.5 232.5t34.5 145.5q0 32 -13 47.5t-43 15.5zM69 32
q66 0 118.5 32.5t97 85.5t84 120t78.5 136l21 36h-59q-143 0 -239 -22.5t-154 -59.5t-82.5 -84.5t-24.5 -96.5q0 -28 8.5 -54.5t27.5 -47t49.5 -33t74.5 -12.5zM1562 1631q0 -29 -21.5 -50.5t-50.5 -21.5q-31 0 -52 21.5t-21 50.5q0 31 21 52.5t52 21.5q29 0 50.5 -21.5
t21.5 -52.5zM1349 1631q0 -29 -21.5 -50.5t-52.5 -21.5q-29 0 -50 21.5t-21 50.5q0 31 21 52.5t50 21.5q31 0 52.5 -21.5t21.5 -52.5z" />
    <glyph glyph-name="Aring" unicode="&#xc5;" horiz-adv-x="1471" 
d="M1214 534h101l-43 -92h-96l-186 -442h-133l185 442h-435q-4 -8 -7.5 -14.5t-7.5 -13.5q-77 -139 -151 -223.5t-142 -131t-128 -62t-110 -15.5q-43 0 -79.5 13.5t-63.5 38t-42.5 60.5t-15.5 81q0 85 44.5 152t123.5 113t188.5 70t239.5 24h65q108 184 197 322t164 238
t137.5 166t117.5 104.5t104.5 54t97.5 15.5q63 0 100 -37.5t37 -119.5q0 -58 -20 -137t-64 -184zM1328 1397q-33 0 -64 -8.5t-68 -37.5t-83.5 -85.5t-110 -152.5t-147.5 -237.5t-196 -341.5h421l177 422q58 140 92.5 232.5t34.5 145.5q0 32 -13 47.5t-43 15.5zM69 32
q66 0 118.5 32.5t97 85.5t84 120t78.5 136l21 36h-59q-143 0 -239 -22.5t-154 -59.5t-82.5 -84.5t-24.5 -96.5q0 -28 8.5 -54.5t27.5 -47t49.5 -33t74.5 -12.5zM1445 1840q54 0 88.5 -30.5t34.5 -80.5q0 -47 -21 -86t-53 -67t-70.5 -44t-74.5 -16q-54 0 -86.5 30.5
t-32.5 78.5q0 43 19 82t49.5 68.5t69 47t77.5 17.5zM1442 1806q-32 0 -57.5 -19t-43.5 -47.5t-28 -61.5t-10 -60q0 -34 13.5 -51t37.5 -17q31 0 56.5 19t44.5 47t29.5 60.5t10.5 59.5q0 33 -14 51.5t-39 18.5z" />
    <glyph glyph-name="AE" unicode="&#xc6;" horiz-adv-x="1900" 
d="M-140 175q0 85 44.5 152t123.5 113t188.5 70t239.5 24h65q108 184 197 322t164 238t137.5 166t117.5 104.5t104.5 54t97.5 15.5q63 0 100 -37.5t37 -119.5q0 -14 -1.5 -28.5t-3.5 -30.5q27 45 61.5 84.5t75.5 69t87 46.5t96 17q52 0 85.5 -34.5t33.5 -88.5
q0 -45 -28 -86.5t-80.5 -78t-127 -68t-167.5 -55.5q5 -25 12.5 -46t15 -41t13 -39.5t5.5 -41.5q0 -62 -30 -104t-75 -75.5t-97.5 -64.5t-97.5 -71.5t-75 -97t-30 -140.5q0 -66 24.5 -115t63.5 -82t86.5 -49t92.5 -16q30 0 65.5 3.5t79.5 19t97 46.5t116 86l26 -32
q-68 -57 -126 -92.5t-110.5 -55.5t-102 -27t-100.5 -7q-52 0 -99.5 9.5t-88 29t-72.5 48t-53 66.5l-57 -135h-133l185 442h-435q-4 -8 -7.5 -14.5t-7.5 -13.5q-77 -139 -151 -223.5t-142 -131t-128 -62t-110 -15.5q-43 0 -79.5 13.5t-63.5 38t-42.5 60.5t-15.5 81z
M1328 1397q-33 0 -64 -8.5t-68 -37.5t-83.5 -85.5t-110 -152.5t-147.5 -237.5t-196 -341.5h421l177 422q58 140 92.5 232.5t34.5 145.5q0 32 -13 47.5t-43 15.5zM69 32q66 0 118.5 32.5t97 85.5t84 120t78.5 136l21 36h-59q-143 0 -239 -22.5t-154 -59.5t-82.5 -84.5
t-24.5 -96.5q0 -28 8.5 -54.5t27.5 -47t49.5 -33t74.5 -12.5zM1503 1066q148 39 229 102t81 149q0 38 -18 55.5t-51 17.5q-30 0 -71 -22.5t-79 -63.5t-64.5 -100t-26.5 -132v-6zM1250 618q36 23 69.5 43.5t59 41.5t41 43t15.5 48q0 13 -5.5 29.5t-12 38t-12.5 48.5t-6 63
q-2 -5 -3.5 -9t-3.5 -8z" />
    <glyph glyph-name="Ccedilla" unicode="&#xc7;" horiz-adv-x="1054" 
d="M791 764q113 54 177 162t64 253q0 47 -10.5 87t-31.5 69t-52 45.5t-71 16.5q-64 0 -128 -27t-126 -75t-119.5 -113.5t-108 -142.5t-92.5 -162t-72 -172t-46.5 -172t-16.5 -163q0 -86 18 -147t50 -101t76 -58.5t97 -18.5q10 0 41.5 2.5t77 16.5t101.5 43t115 83l25 -36
q-64 -62 -127.5 -97t-117 -51.5t-93 -20t-54.5 -3.5q-9 0 -18.5 0.5t-18.5 1.5l-52 -75q17 10 41 13.5t47 3.5q39 0 64.5 -21t25.5 -53q0 -29 -17 -55.5t-45.5 -46.5t-66.5 -32t-80 -12q-44 0 -70 10t-40 19l16 24q9 -6 31 -15t57 -9q27 0 50 7.5t40 21.5t27 33.5t10 42.5
q0 29 -15.5 42.5t-35.5 13.5q-22 0 -38.5 -8t-34.5 -25h-27l87 124q-51 8 -102 32t-92.5 68.5t-67.5 112t-26 163.5q0 105 22.5 207t63 197t95 181.5t118 160.5t133.5 134t140 102.5t138 65.5t128 23q64 0 117 -19t91.5 -54t60 -83.5t21.5 -107.5q0 -66 -27 -133.5t-73 -126
t-106.5 -104.5t-126.5 -69z" />
    <glyph glyph-name="Egrave" unicode="&#xc8;" horiz-adv-x="837" 
d="M165 1020q94 9 177 24q12 68 46.5 137.5t85.5 126t116 92t138 35.5q52 0 85.5 -34.5t33.5 -88.5q0 -45 -28 -86.5t-80.5 -78t-127 -68t-167.5 -55.5q4 -24 12 -45.5t15.5 -41.5t13 -39.5t5.5 -41.5q0 -62 -30 -104t-75 -75.5t-97.5 -64.5t-97.5 -71.5t-75 -97t-30 -140.5
q0 -66 24.5 -115t63.5 -82t86.5 -49t92.5 -16q30 0 65.5 3.5t79.5 19t97 46.5t116 86l26 -32q-68 -57 -126 -92.5t-110.5 -55.5t-102 -27t-100.5 -7q-72 0 -135.5 19t-110.5 56t-74.5 92t-27.5 127q0 82 31.5 142t78.5 104.5t101.5 78.5t101.5 64.5t78.5 60.5t31.5 68
q0 14 -5.5 30.5t-12.5 38.5t-12.5 50t-5.5 65v10.5t1 11.5q-35 -7 -72 -12.5t-75 -10.5zM440 1066q148 39 229 102t81 149q0 38 -18 55.5t-51 17.5q-30 0 -71 -22.5t-79 -63.5t-64.5 -100t-26.5 -132v-6zM727 1535l-90 194h125l-2 -194h-33z" />
    <glyph glyph-name="Eacute" unicode="&#xc9;" horiz-adv-x="837" 
d="M165 1020q94 9 177 24q12 68 46.5 137.5t85.5 126t116 92t138 35.5q52 0 85.5 -34.5t33.5 -88.5q0 -45 -28 -86.5t-80.5 -78t-127 -68t-167.5 -55.5q4 -24 12 -45.5t15.5 -41.5t13 -39.5t5.5 -41.5q0 -62 -30 -104t-75 -75.5t-97.5 -64.5t-97.5 -71.5t-75 -97t-30 -140.5
q0 -66 24.5 -115t63.5 -82t86.5 -49t92.5 -16q30 0 65.5 3.5t79.5 19t97 46.5t116 86l26 -32q-68 -57 -126 -92.5t-110.5 -55.5t-102 -27t-100.5 -7q-72 0 -135.5 19t-110.5 56t-74.5 92t-27.5 127q0 82 31.5 142t78.5 104.5t101.5 78.5t101.5 64.5t78.5 60.5t31.5 68
q0 14 -5.5 30.5t-12.5 38.5t-12.5 50t-5.5 65v10.5t1 11.5q-35 -7 -72 -12.5t-75 -10.5zM440 1066q148 39 229 102t81 149q0 38 -18 55.5t-51 17.5q-30 0 -71 -22.5t-79 -63.5t-64.5 -100t-26.5 -132v-6zM644 1535h-49l144 194h145z" />
    <glyph glyph-name="Ecircumflex" unicode="&#xca;" horiz-adv-x="837" 
d="M165 1020q94 9 177 24q12 68 46.5 137.5t85.5 126t116 92t138 35.5q52 0 85.5 -34.5t33.5 -88.5q0 -45 -28 -86.5t-80.5 -78t-127 -68t-167.5 -55.5q4 -24 12 -45.5t15.5 -41.5t13 -39.5t5.5 -41.5q0 -62 -30 -104t-75 -75.5t-97.5 -64.5t-97.5 -71.5t-75 -97t-30 -140.5
q0 -66 24.5 -115t63.5 -82t86.5 -49t92.5 -16q30 0 65.5 3.5t79.5 19t97 46.5t116 86l26 -32q-68 -57 -126 -92.5t-110.5 -55.5t-102 -27t-100.5 -7q-72 0 -135.5 19t-110.5 56t-74.5 92t-27.5 127q0 82 31.5 142t78.5 104.5t101.5 78.5t101.5 64.5t78.5 60.5t31.5 68
q0 14 -5.5 30.5t-12.5 38.5t-12.5 50t-5.5 65v10.5t1 11.5q-35 -7 -72 -12.5t-75 -10.5zM440 1066q148 39 229 102t81 149q0 38 -18 55.5t-51 17.5q-30 0 -71 -22.5t-79 -63.5t-64.5 -100t-26.5 -132v-6zM776 1535l-34 132l-145 -132h-75l205 192h91l59 -192h-101z" />
    <glyph glyph-name="Edieresis" unicode="&#xcb;" horiz-adv-x="837" 
d="M165 1020q94 9 177 24q12 68 46.5 137.5t85.5 126t116 92t138 35.5q52 0 85.5 -34.5t33.5 -88.5q0 -45 -28 -86.5t-80.5 -78t-127 -68t-167.5 -55.5q4 -24 12 -45.5t15.5 -41.5t13 -39.5t5.5 -41.5q0 -62 -30 -104t-75 -75.5t-97.5 -64.5t-97.5 -71.5t-75 -97t-30 -140.5
q0 -66 24.5 -115t63.5 -82t86.5 -49t92.5 -16q30 0 65.5 3.5t79.5 19t97 46.5t116 86l26 -32q-68 -57 -126 -92.5t-110.5 -55.5t-102 -27t-100.5 -7q-72 0 -135.5 19t-110.5 56t-74.5 92t-27.5 127q0 82 31.5 142t78.5 104.5t101.5 78.5t101.5 64.5t78.5 60.5t31.5 68
q0 14 -5.5 30.5t-12.5 38.5t-12.5 50t-5.5 65v10.5t1 11.5q-35 -7 -72 -12.5t-75 -10.5zM440 1066q148 39 229 102t81 149q0 38 -18 55.5t-51 17.5q-30 0 -71 -22.5t-79 -63.5t-64.5 -100t-26.5 -132v-6zM899 1630q0 -29 -21.5 -50.5t-50.5 -21.5q-31 0 -52 21.5t-21 50.5
q0 31 21 52.5t52 21.5q29 0 50.5 -21.5t21.5 -52.5zM686 1630q0 -29 -21.5 -50.5t-52.5 -21.5q-29 0 -50 21.5t-21 50.5q0 31 21 52.5t50 21.5q31 0 52.5 -21.5t21.5 -52.5z" />
    <glyph glyph-name="Igrave" unicode="&#xcc;" horiz-adv-x="914" 
d="M847 635q-54 -61 -105.5 -113.5t-105.5 -92.5q-41 -78 -92.5 -157.5t-114.5 -144t-137 -105t-159 -40.5q-80 0 -126 42t-47 109l98 62q-13 -48 -13 -82q0 -47 21 -68t50 -21q76 0 164.5 78t182.5 242q-47 -11 -95 -11q-51 0 -102.5 17t-93 51.5t-67.5 88t-26 127.5
q0 102 38 202t99.5 191t138.5 168.5t154.5 134.5t148.5 89t121 32q49 0 82 -51.5t33 -157.5q0 -109 -46 -274t-149 -394q-7 -14 -13 -29q32 31 63.5 66t65.5 73zM417 388q38 0 77 11q25 48 50 102t51 115q45 108 84 211.5t68 194.5t45.5 166t16.5 125q0 40 -12 62t-38 22
q-29 0 -81 -33t-113 -89.5t-124.5 -132.5t-115 -162t-84 -178t-32.5 -180q0 -57 17 -100.5t45.5 -73.5t66.5 -45t79 -15zM776 1534l-90 194h125l-2 -194h-33z" />
    <glyph glyph-name="Iacute" unicode="&#xcd;" horiz-adv-x="914" 
d="M847 635q-54 -61 -105.5 -113.5t-105.5 -92.5q-41 -78 -92.5 -157.5t-114.5 -144t-137 -105t-159 -40.5q-80 0 -126 42t-47 109l98 62q-13 -48 -13 -82q0 -47 21 -68t50 -21q76 0 164.5 78t182.5 242q-47 -11 -95 -11q-51 0 -102.5 17t-93 51.5t-67.5 88t-26 127.5
q0 102 38 202t99.5 191t138.5 168.5t154.5 134.5t148.5 89t121 32q49 0 82 -51.5t33 -157.5q0 -109 -46 -274t-149 -394q-7 -14 -13 -29q32 31 63.5 66t65.5 73zM417 388q38 0 77 11q25 48 50 102t51 115q45 108 84 211.5t68 194.5t45.5 166t16.5 125q0 40 -12 62t-38 22
q-29 0 -81 -33t-113 -89.5t-124.5 -132.5t-115 -162t-84 -178t-32.5 -180q0 -57 17 -100.5t45.5 -73.5t66.5 -45t79 -15zM693 1534h-49l144 194h145z" />
    <glyph glyph-name="Icircumflex" unicode="&#xce;" horiz-adv-x="914" 
d="M847 635q-54 -61 -105.5 -113.5t-105.5 -92.5q-41 -78 -92.5 -157.5t-114.5 -144t-137 -105t-159 -40.5q-80 0 -126 42t-47 109l98 62q-13 -48 -13 -82q0 -47 21 -68t50 -21q76 0 164.5 78t182.5 242q-47 -11 -95 -11q-51 0 -102.5 17t-93 51.5t-67.5 88t-26 127.5
q0 102 38 202t99.5 191t138.5 168.5t154.5 134.5t148.5 89t121 32q49 0 82 -51.5t33 -157.5q0 -109 -46 -274t-149 -394q-7 -14 -13 -29q32 31 63.5 66t65.5 73zM417 388q38 0 77 11q25 48 50 102t51 115q45 108 84 211.5t68 194.5t45.5 166t16.5 125q0 40 -12 62t-38 22
q-29 0 -81 -33t-113 -89.5t-124.5 -132.5t-115 -162t-84 -178t-32.5 -180q0 -57 17 -100.5t45.5 -73.5t66.5 -45t79 -15zM825 1534l-34 132l-145 -132h-75l205 192h91l59 -192h-101z" />
    <glyph glyph-name="Idieresis" unicode="&#xcf;" horiz-adv-x="914" 
d="M847 635q-54 -61 -105.5 -113.5t-105.5 -92.5q-41 -78 -92.5 -157.5t-114.5 -144t-137 -105t-159 -40.5q-80 0 -126 42t-47 109l98 62q-13 -48 -13 -82q0 -47 21 -68t50 -21q76 0 164.5 78t182.5 242q-47 -11 -95 -11q-51 0 -102.5 17t-93 51.5t-67.5 88t-26 127.5
q0 102 38 202t99.5 191t138.5 168.5t154.5 134.5t148.5 89t121 32q49 0 82 -51.5t33 -157.5q0 -109 -46 -274t-149 -394q-7 -14 -13 -29q32 31 63.5 66t65.5 73zM417 388q38 0 77 11q25 48 50 102t51 115q45 108 84 211.5t68 194.5t45.5 166t16.5 125q0 40 -12 62t-38 22
q-29 0 -81 -33t-113 -89.5t-124.5 -132.5t-115 -162t-84 -178t-32.5 -180q0 -57 17 -100.5t45.5 -73.5t66.5 -45t79 -15zM948 1629q0 -29 -21.5 -50.5t-50.5 -21.5q-31 0 -52 21.5t-21 50.5q0 31 21 52.5t52 21.5q29 0 50.5 -21.5t21.5 -52.5zM735 1629q0 -29 -21.5 -50.5
t-52.5 -21.5q-29 0 -50 21.5t-21 50.5q0 31 21 52.5t50 21.5q31 0 52.5 -21.5t21.5 -52.5z" />
    <glyph glyph-name="Eth" unicode="&#xd0;" horiz-adv-x="1410" 
d="M575 -18q-52 0 -96 12.5t-82 33t-71 47t-62 53.5q-59 -74 -122.5 -108.5t-137.5 -34.5q-27 0 -54.5 8.5t-50 26t-36.5 45t-14 65.5q0 39 16.5 75t46 63.5t70 43.5t88.5 16q42 0 79.5 -20t74.5 -51q27 55 57.5 125t66.5 157h-195l28 62h192l118 282h-118q-50 0 -99 10.5
t-87 33t-61.5 56.5t-23.5 82q0 68 45 134.5t127.5 118.5t200 84t262.5 32q109 0 212 -39t183.5 -114t129 -183.5t48.5 -247.5q0 -97 -26 -199t-73 -198t-114 -182t-148.5 -150t-176 -101.5t-197.5 -37.5zM476 539l-50 -119q-60 -143 -121 -235q29 -27 59 -52.5t63 -45.5
t69 -32t76 -12q86 0 163.5 36.5t144 99.5t120.5 146.5t91.5 177t58 192.5t20.5 192q0 106 -26.5 199t-81.5 162t-139.5 109t-201.5 40q-115 0 -209 -26.5t-160.5 -68.5t-102.5 -95t-36 -107q0 -28 9 -51.5t31.5 -40t59.5 -26t94 -9.5h122l147 350h128l-147 -350h322l-37 -90
h-322l-118 -282h225l-28 -62h-223zM-4 35q30 0 55.5 9.5t49 29.5t46 50t45.5 72q-35 32 -68.5 54t-70.5 22q-38 0 -66.5 -13t-48.5 -33.5t-30 -45t-10 -47.5q0 -45 26 -71.5t72 -26.5z" />
    <glyph glyph-name="Ntilde" unicode="&#xd1;" horiz-adv-x="1310" 
d="M1092 954q22 53 45.5 106.5t42.5 102.5t31 86.5t12 64.5q0 20 -9.5 31t-25.5 11q-80 0 -183 -73q-44 -31 -97 -80.5t-112.5 -119t-125 -163t-135.5 -216.5l-300 -704h-125l466 1098q22 52 43.5 105t38 101t27 88.5t10.5 68.5q0 46 -32 46q-68 -7 -158 -62
q-38 -23 -85 -59.5t-102 -89t-117 -124t-131 -164.5l-20 122q97 100 190 177t175.5 129t150.5 79t115 27q59 0 83.5 -35.5t24.5 -91.5q0 -34 -7 -73t-19 -80t-27.5 -83t-32.5 -81l-79 -184q99 144 183 237.5t155 148t130 76t109 21.5q54 0 81 -34.5t27 -91.5q0 -33 -7 -72
t-19 -80t-27.5 -83.5t-31.5 -81.5l-281 -663q-65 -153 -103 -252t-38 -147q0 -20 8.5 -32.5t27.5 -12.5q7 0 20 4.5t31.5 16.5t43.5 34t55 57l31 -27q-38 -44 -68.5 -70t-55.5 -39.5t-45 -17.5t-37 -4q-33 0 -55.5 10.5t-36 28t-19.5 40t-6 46.5q0 39 10.5 83.5t27 92t37 96
t40.5 93.5zM1299 1722q-39 -88 -75 -127.5t-83 -39.5q-24 0 -42.5 13t-34.5 28.5t-30.5 28.5t-32.5 13q-11 0 -20.5 -3.5t-19.5 -13t-20.5 -25.5t-23.5 -41h-53q38 90 72.5 128.5t76.5 38.5q24 0 41 -13t32.5 -28.5t31.5 -28.5t36 -13q10 0 20.5 3t22 12t23.5 25t26 43h53v0
z" />
    <glyph glyph-name="Ograve" unicode="&#xd2;" horiz-adv-x="1162" 
d="M1039 1131q0 22 -2 51t-7 59t-15 58.5t-26 51t-39 36.5t-55 14q-45 0 -89.5 -27.5t-85.5 -74.5t-76.5 -110t-61.5 -134t-41 -146.5t-15 -146.5q0 -107 30.5 -160t102.5 -53q25 0 44.5 6t33 14t21.5 16t10 13l10 -27q-20 -30 -43 -47.5t-46 -27t-43 -12.5t-34 -3
q-88 0 -137 71.5t-49 202.5q0 72 21 150.5t57.5 154t84.5 144t101.5 120t109.5 82t109 30.5q36 0 77.5 -18t77.5 -61.5t59.5 -116.5t23.5 -183q0 -140 -38 -274.5t-102 -255t-148 -222.5t-176.5 -175.5t-187 -115t-179.5 -41.5q-69 0 -125 28.5t-95 79.5t-60 121.5
t-21 155.5q0 79 14.5 168.5t48.5 186.5q31 88 68.5 162.5t77.5 136t81.5 110.5t79.5 87q90 89 184 143l18 -23q-61 -52 -123 -137q-27 -36 -56.5 -83.5t-60.5 -106t-62 -130t-60 -155.5q-38 -109 -57 -207.5t-19 -181.5q0 -66 12.5 -120.5t36.5 -93t58 -60t77 -21.5
q65 0 142.5 48t156 130.5t152 191.5t130.5 231t91 250t34 247zM896 1537l-90 194h125l-2 -194h-33z" />
    <glyph glyph-name="Oacute" unicode="&#xd3;" horiz-adv-x="1162" 
d="M1039 1131q0 22 -2 51t-7 59t-15 58.5t-26 51t-39 36.5t-55 14q-45 0 -89.5 -27.5t-85.5 -74.5t-76.5 -110t-61.5 -134t-41 -146.5t-15 -146.5q0 -107 30.5 -160t102.5 -53q25 0 44.5 6t33 14t21.5 16t10 13l10 -27q-20 -30 -43 -47.5t-46 -27t-43 -12.5t-34 -3
q-88 0 -137 71.5t-49 202.5q0 72 21 150.5t57.5 154t84.5 144t101.5 120t109.5 82t109 30.5q36 0 77.5 -18t77.5 -61.5t59.5 -116.5t23.5 -183q0 -140 -38 -274.5t-102 -255t-148 -222.5t-176.5 -175.5t-187 -115t-179.5 -41.5q-69 0 -125 28.5t-95 79.5t-60 121.5
t-21 155.5q0 79 14.5 168.5t48.5 186.5q31 88 68.5 162.5t77.5 136t81.5 110.5t79.5 87q90 89 184 143l18 -23q-61 -52 -123 -137q-27 -36 -56.5 -83.5t-60.5 -106t-62 -130t-60 -155.5q-38 -109 -57 -207.5t-19 -181.5q0 -66 12.5 -120.5t36.5 -93t58 -60t77 -21.5
q65 0 142.5 48t156 130.5t152 191.5t130.5 231t91 250t34 247zM813 1537h-49l144 194h145z" />
    <glyph glyph-name="Ocircumflex" unicode="&#xd4;" horiz-adv-x="1162" 
d="M1039 1131q0 22 -2 51t-7 59t-15 58.5t-26 51t-39 36.5t-55 14q-45 0 -89.5 -27.5t-85.5 -74.5t-76.5 -110t-61.5 -134t-41 -146.5t-15 -146.5q0 -107 30.5 -160t102.5 -53q25 0 44.5 6t33 14t21.5 16t10 13l10 -27q-20 -30 -43 -47.5t-46 -27t-43 -12.5t-34 -3
q-88 0 -137 71.5t-49 202.5q0 72 21 150.5t57.5 154t84.5 144t101.5 120t109.5 82t109 30.5q36 0 77.5 -18t77.5 -61.5t59.5 -116.5t23.5 -183q0 -140 -38 -274.5t-102 -255t-148 -222.5t-176.5 -175.5t-187 -115t-179.5 -41.5q-69 0 -125 28.5t-95 79.5t-60 121.5
t-21 155.5q0 79 14.5 168.5t48.5 186.5q31 88 68.5 162.5t77.5 136t81.5 110.5t79.5 87q90 89 184 143l18 -23q-61 -52 -123 -137q-27 -36 -56.5 -83.5t-60.5 -106t-62 -130t-60 -155.5q-38 -109 -57 -207.5t-19 -181.5q0 -66 12.5 -120.5t36.5 -93t58 -60t77 -21.5
q65 0 142.5 48t156 130.5t152 191.5t130.5 231t91 250t34 247zM945 1537l-34 132l-145 -132h-75l205 192h91l59 -192h-101z" />
    <glyph glyph-name="Otilde" unicode="&#xd5;" horiz-adv-x="1162" 
d="M1039 1131q0 22 -2 51t-7 59t-15 58.5t-26 51t-39 36.5t-55 14q-45 0 -89.5 -27.5t-85.5 -74.5t-76.5 -110t-61.5 -134t-41 -146.5t-15 -146.5q0 -107 30.5 -160t102.5 -53q25 0 44.5 6t33 14t21.5 16t10 13l10 -27q-20 -30 -43 -47.5t-46 -27t-43 -12.5t-34 -3
q-88 0 -137 71.5t-49 202.5q0 72 21 150.5t57.5 154t84.5 144t101.5 120t109.5 82t109 30.5q36 0 77.5 -18t77.5 -61.5t59.5 -116.5t23.5 -183q0 -140 -38 -274.5t-102 -255t-148 -222.5t-176.5 -175.5t-187 -115t-179.5 -41.5q-69 0 -125 28.5t-95 79.5t-60 121.5
t-21 155.5q0 79 14.5 168.5t48.5 186.5q31 88 68.5 162.5t77.5 136t81.5 110.5t79.5 87q90 89 184 143l18 -23q-61 -52 -123 -137q-27 -36 -56.5 -83.5t-60.5 -106t-62 -130t-60 -155.5q-38 -109 -57 -207.5t-19 -181.5q0 -66 12.5 -120.5t36.5 -93t58 -60t77 -21.5
q65 0 142.5 48t156 130.5t152 191.5t130.5 231t91 250t34 247zM1116 1720q-39 -88 -75 -127.5t-83 -39.5q-24 0 -42.5 13t-34.5 28.5t-30.5 28.5t-32.5 13q-11 0 -20.5 -3.5t-19.5 -13t-20.5 -25.5t-23.5 -41h-53q38 90 72.5 128.5t76.5 38.5q24 0 41 -13t32.5 -28.5
t31.5 -28.5t36 -13q10 0 20.5 3t22 12t23.5 25t26 43h53v0z" />
    <glyph glyph-name="Odieresis" unicode="&#xd6;" horiz-adv-x="1162" 
d="M1039 1131q0 22 -2 51t-7 59t-15 58.5t-26 51t-39 36.5t-55 14q-45 0 -89.5 -27.5t-85.5 -74.5t-76.5 -110t-61.5 -134t-41 -146.5t-15 -146.5q0 -107 30.5 -160t102.5 -53q25 0 44.5 6t33 14t21.5 16t10 13l10 -27q-20 -30 -43 -47.5t-46 -27t-43 -12.5t-34 -3
q-88 0 -137 71.5t-49 202.5q0 72 21 150.5t57.5 154t84.5 144t101.5 120t109.5 82t109 30.5q36 0 77.5 -18t77.5 -61.5t59.5 -116.5t23.5 -183q0 -140 -38 -274.5t-102 -255t-148 -222.5t-176.5 -175.5t-187 -115t-179.5 -41.5q-69 0 -125 28.5t-95 79.5t-60 121.5
t-21 155.5q0 79 14.5 168.5t48.5 186.5q31 88 68.5 162.5t77.5 136t81.5 110.5t79.5 87q90 89 184 143l18 -23q-61 -52 -123 -137q-27 -36 -56.5 -83.5t-60.5 -106t-62 -130t-60 -155.5q-38 -109 -57 -207.5t-19 -181.5q0 -66 12.5 -120.5t36.5 -93t58 -60t77 -21.5
q65 0 142.5 48t156 130.5t152 191.5t130.5 231t91 250t34 247zM1068 1632q0 -29 -21.5 -50.5t-50.5 -21.5q-31 0 -52 21.5t-21 50.5q0 31 21 52.5t52 21.5q29 0 50.5 -21.5t21.5 -52.5zM855 1632q0 -29 -21.5 -50.5t-52.5 -21.5q-29 0 -50 21.5t-21 50.5q0 31 21 52.5
t50 21.5q31 0 52.5 -21.5t21.5 -52.5z" />
    <glyph glyph-name="multiply" unicode="&#xd7;" 
d="M353 638l247 209l43 -53l-247 -209l171 -208l-64 -54l-170 208l-246 -208l-44 54l246 208l-170 209l63 53z" />
    <glyph glyph-name="Oslash" unicode="&#xd8;" horiz-adv-x="1162" 
d="M1066 1354q35 -45 58 -116.5t23 -180.5q0 -140 -38 -274.5t-102 -255t-148 -222.5t-176.5 -175.5t-187 -115t-179.5 -41.5q-45 0 -83.5 11.5t-70.5 33.5l-114 -168l-54 35l119 175q-48 52 -73 128t-25 170q0 79 14.5 168.5t48.5 186.5q31 88 68.5 162.5t77.5 136
t81.5 110.5t79.5 87q90 89 184 143l18 -23q-61 -52 -123 -137q-27 -36 -56.5 -83.5t-60.5 -106t-62 -130t-60 -155.5q-38 -109 -57 -207.5t-19 -181.5q0 -99 28 -172l285 420q-17 34 -26.5 78.5t-9.5 100.5q0 72 21 150.5t57.5 154t84.5 144t101.5 120t109.5 82t109 30.5
q26 0 54 -9t56 -29l94 139l53 -36zM1039 1131q0 31 -4 72.5t-16 81.5l-462 -683q31 -53 102 -53q25 0 44.5 6t33 14t21.5 16t10 13l10 -27q-20 -30 -43 -47.5t-46 -27t-43 -12.5t-34 -3q-67 0 -110 40l-289 -428q46 -60 120 -60q65 0 142.5 48t156 130.5t152 191.5
t130.5 231t91 250t34 247zM526 762q0 -23 1 -44t4 -39l457 673q-17 22 -39 35.5t-54 13.5q-45 0 -89.5 -27.5t-85.5 -74.5t-76.5 -110t-61.5 -134t-41 -146.5t-15 -146.5z" />
    <glyph glyph-name="Ugrave" unicode="&#xd9;" horiz-adv-x="1398" 
d="M576 989q22 53 45 106.5t41 102t29.5 89.5t11.5 69q0 18 -7.5 29.5t-22.5 11.5q-71 -11 -163 -68q-39 -24 -86.5 -61t-103 -90.5t-118 -125t-131.5 -165.5l-21 135q97 100 191.5 176.5t179 129t154 79.5t116.5 27q57 0 83.5 -33.5t26.5 -85.5q0 -34 -8 -73.5t-20.5 -82
t-29 -86t-34.5 -84.5l-242 -565q-21 -51 -40 -102.5t-33 -97.5t-22.5 -84t-8.5 -61q0 -44 43 -44q16 0 47 6.5t75.5 30t102 69.5t126.5 126t148 198.5t167 286.5l277 645h129l-505 -1188q-18 -44 -26 -75.5t-8 -51.5q0 -26 10.5 -36.5t23.5 -10.5q34 0 64.5 19t66.5 61
t82 109.5t112 165.5l27 -17q-64 -99 -113.5 -173t-93.5 -122.5t-87 -73t-94 -24.5q-9 0 -28 2.5t-38.5 14t-34 35t-14.5 65.5q0 32 11 77.5t37 106.5l64 150q-89 -133 -169 -219.5t-149.5 -137.5t-129 -71.5t-107.5 -20.5q-65 0 -96.5 39t-31.5 97q0 31 7 68.5t19 78t27 81
t31 78.5zM1102 1520l-90 194h125l-2 -194h-33z" />
    <glyph glyph-name="Uacute" unicode="&#xda;" horiz-adv-x="1398" 
d="M576 989q22 53 45 106.5t41 102t29.5 89.5t11.5 69q0 18 -7.5 29.5t-22.5 11.5q-71 -11 -163 -68q-39 -24 -86.5 -61t-103 -90.5t-118 -125t-131.5 -165.5l-21 135q97 100 191.5 176.5t179 129t154 79.5t116.5 27q57 0 83.5 -33.5t26.5 -85.5q0 -34 -8 -73.5t-20.5 -82
t-29 -86t-34.5 -84.5l-242 -565q-21 -51 -40 -102.5t-33 -97.5t-22.5 -84t-8.5 -61q0 -44 43 -44q16 0 47 6.5t75.5 30t102 69.5t126.5 126t148 198.5t167 286.5l277 645h129l-505 -1188q-18 -44 -26 -75.5t-8 -51.5q0 -26 10.5 -36.5t23.5 -10.5q34 0 64.5 19t66.5 61
t82 109.5t112 165.5l27 -17q-64 -99 -113.5 -173t-93.5 -122.5t-87 -73t-94 -24.5q-9 0 -28 2.5t-38.5 14t-34 35t-14.5 65.5q0 32 11 77.5t37 106.5l64 150q-89 -133 -169 -219.5t-149.5 -137.5t-129 -71.5t-107.5 -20.5q-65 0 -96.5 39t-31.5 97q0 31 7 68.5t19 78t27 81
t31 78.5zM1019 1520h-49l144 194h145z" />
    <glyph glyph-name="Ucircumflex" unicode="&#xdb;" horiz-adv-x="1398" 
d="M576 989q22 53 45 106.5t41 102t29.5 89.5t11.5 69q0 18 -7.5 29.5t-22.5 11.5q-71 -11 -163 -68q-39 -24 -86.5 -61t-103 -90.5t-118 -125t-131.5 -165.5l-21 135q97 100 191.5 176.5t179 129t154 79.5t116.5 27q57 0 83.5 -33.5t26.5 -85.5q0 -34 -8 -73.5t-20.5 -82
t-29 -86t-34.5 -84.5l-242 -565q-21 -51 -40 -102.5t-33 -97.5t-22.5 -84t-8.5 -61q0 -44 43 -44q16 0 47 6.5t75.5 30t102 69.5t126.5 126t148 198.5t167 286.5l277 645h129l-505 -1188q-18 -44 -26 -75.5t-8 -51.5q0 -26 10.5 -36.5t23.5 -10.5q34 0 64.5 19t66.5 61
t82 109.5t112 165.5l27 -17q-64 -99 -113.5 -173t-93.5 -122.5t-87 -73t-94 -24.5q-9 0 -28 2.5t-38.5 14t-34 35t-14.5 65.5q0 32 11 77.5t37 106.5l64 150q-89 -133 -169 -219.5t-149.5 -137.5t-129 -71.5t-107.5 -20.5q-65 0 -96.5 39t-31.5 97q0 31 7 68.5t19 78t27 81
t31 78.5zM1151 1520l-34 132l-145 -132h-75l205 192h91l59 -192h-101z" />
    <glyph glyph-name="Udieresis" unicode="&#xdc;" horiz-adv-x="1398" 
d="M576 989q22 53 45 106.5t41 102t29.5 89.5t11.5 69q0 18 -7.5 29.5t-22.5 11.5q-71 -11 -163 -68q-39 -24 -86.5 -61t-103 -90.5t-118 -125t-131.5 -165.5l-21 135q97 100 191.5 176.5t179 129t154 79.5t116.5 27q57 0 83.5 -33.5t26.5 -85.5q0 -34 -8 -73.5t-20.5 -82
t-29 -86t-34.5 -84.5l-242 -565q-21 -51 -40 -102.5t-33 -97.5t-22.5 -84t-8.5 -61q0 -44 43 -44q16 0 47 6.5t75.5 30t102 69.5t126.5 126t148 198.5t167 286.5l277 645h129l-505 -1188q-18 -44 -26 -75.5t-8 -51.5q0 -26 10.5 -36.5t23.5 -10.5q34 0 64.5 19t66.5 61
t82 109.5t112 165.5l27 -17q-64 -99 -113.5 -173t-93.5 -122.5t-87 -73t-94 -24.5q-9 0 -28 2.5t-38.5 14t-34 35t-14.5 65.5q0 32 11 77.5t37 106.5l64 150q-89 -133 -169 -219.5t-149.5 -137.5t-129 -71.5t-107.5 -20.5q-65 0 -96.5 39t-31.5 97q0 31 7 68.5t19 78t27 81
t31 78.5zM1274 1615q0 -29 -21.5 -50.5t-50.5 -21.5q-31 0 -52 21.5t-21 50.5q0 31 21 52.5t52 21.5q29 0 50.5 -21.5t21.5 -52.5zM1061 1615q0 -29 -21.5 -50.5t-52.5 -21.5q-29 0 -50 21.5t-21 50.5q0 31 21 52.5t50 21.5q31 0 52.5 -21.5t21.5 -52.5z" />
    <glyph glyph-name="Yacute" unicode="&#xdd;" horiz-adv-x="1344" 
d="M576 989q22 53 45 106.5t41 102t29.5 89.5t11.5 69q0 18 -7.5 29.5t-22.5 11.5q-71 -11 -163 -68q-39 -24 -86.5 -61t-103 -90.5t-118 -125t-131.5 -165.5l-21 135q97 100 191.5 176.5t179 129t154 79.5t116.5 27q57 0 83.5 -33.5t26.5 -85.5q0 -34 -8 -73.5t-20.5 -82
t-29 -86t-34.5 -84.5l-242 -565q-21 -51 -40 -102.5t-33 -97.5t-22.5 -84t-8.5 -61q0 -44 43 -44q16 0 46.5 6.5t75 29.5t101.5 68.5t125 124.5t146.5 195.5t166.5 282.5l219 513h129l-414 -974q-21 -49 -45 -105.5t-52 -115.5t-60.5 -119.5t-70.5 -118.5h134l-41 -88h-156
q-44 -56 -95 -104.5t-109 -84t-124 -55.5t-140 -20q-44 0 -75.5 10t-51.5 28t-29 42.5t-9 52.5q0 11 4.5 32t19 45.5t40.5 49.5t68.5 45.5t105 33.5t148.5 13h179q51 84 108 196.5t120 262.5l63 148q-89 -132 -168.5 -218.5t-149 -137.5t-129 -71t-107.5 -20q-65 0 -96.5 39
t-31.5 97q0 31 7 68.5t19 78t27 81t31 78.5zM241 -489q40 0 80 9.5t82.5 34t87 68t93.5 111.5h-162q-48 0 -101.5 -5.5t-98 -20.5t-73.5 -42.5t-29 -70.5q0 -39 28 -61.5t93 -22.5zM1039 1473h-49l144 194h145z" />
    <glyph glyph-name="Thorn" unicode="&#xde;" horiz-adv-x="1095" 
d="M-101 0l120 285h-56q-23 0 -44 0.5t-38 0.5l57 97q32 -2 62 -2h59l133 314q1 4 5 12l290 690h126l-140 -334q68 48 141.5 72.5t148.5 24.5q52 0 106 -17t97.5 -52t71 -87.5t27.5 -124.5q0 -81 -34 -150t-94.5 -128.5t-143.5 -109t-180 -89.5q-130 -55 -248 -79t-215 -32
l-122 -291h-129zM284 611l-96 -228q133 6 234 23.5t185 48.5q79 30 140 76.5t102 104.5t62 124t21 134q0 64 -16.5 108t-43 71t-60.5 38.5t-69 11.5q-39 0 -91 -21t-109 -70.5t-115 -131.5t-109 -205z" />
    <glyph glyph-name="germandbls" unicode="&#xdf;" horiz-adv-x="752" 
d="M58 38q0 13 6.5 24.5t16.5 20.5t22.5 14t24.5 5q16 0 25.5 -4t18.5 -9.5t20 -9.5t31 -4q36 0 69.5 37.5t59 95.5t41 129t15.5 137q0 53 -5.5 86.5t-11.5 55.5t-11.5 37t-5.5 32q0 20 9 37t23.5 34.5t33.5 38.5t40 50q53 74 81 142.5t28 136.5q0 11 -2 24.5t-7 25.5
t-13 20.5t-20 8.5q-18 0 -35.5 -15.5t-35.5 -43.5t-36.5 -67t-37.5 -86l-606 -1464l-142 -45l482 1161q-16 -25 -37 -55.5t-49.5 -68.5t-65 -84t-82.5 -103l-25 20q63 77 110 139t83 113t61.5 92.5t45.5 77.5t36 68l32 64q32 76 68.5 137.5t76.5 104t81.5 65.5t82.5 23
q30 0 51.5 -10t36 -27t21.5 -40t7 -50q0 -44 -16.5 -86t-44 -83t-62.5 -81.5t-72 -82.5q-2 -2 -2 -4.5v-4.5q0 -8 6.5 -34t14 -63t14 -81.5t6.5 -89.5q0 -57 -15 -113.5t-40.5 -109t-60 -98.5t-74.5 -82q77 41 163 111.5t174 183.5l25 -20q-64 -82 -132.5 -145.5
t-136.5 -109t-133.5 -73.5t-123.5 -38q-25 -5 -45 -5q-23 0 -40 8t-17 30z" />
    <glyph glyph-name="agrave" unicode="&#xe0;" horiz-adv-x="701" 
d="M344 170q-4 -9 -7 -19t-3 -17q0 -12 5.5 -16t14.5 -4q14 0 34 14t42 41l183 226l25 -20l-221 -273q-24 -30 -45 -50t-39.5 -31.5t-37 -16.5t-37.5 -5q-30 0 -50 17.5t-20 44.5q0 30 11.5 62t33.5 80q8 17 19.5 44.5t24.5 58t26 61.5t23 56.5t16.5 42.5t6.5 20q0 10 -7 10
q-9 0 -19 -15q-6 -8 -24 -34t-44 -62t-56 -78t-60 -82t-57 -73t-46 -52q-48 -48 -85 -75.5t-73 -27.5q-12 0 -26.5 5t-27 17.5t-20.5 35t-8 57.5q0 52 23.5 115t64.5 128.5t97 128.5t121.5 113.5t137.5 84.5t146 41v-18q-61 -18 -117 -55.5t-105 -86.5t-89 -104.5
t-69 -109.5t-44.5 -102.5t-15.5 -81.5q0 -18 5.5 -30t15.5 -12q11 0 32.5 18t49.5 48.5t61 70t67 82.5t67.5 87t62.5 83q44 60 73 99t50 62.5t38 32.5t37 9q21 0 29 -11t8 -27q0 -13 -3.5 -27t-8.5 -25q-4 -9 -17.5 -42.5t-32.5 -80t-40.5 -99.5t-41 -100.5t-34.5 -84
t-20 -48.5zM512 844l-90 194h125l-2 -194h-33z" />
    <glyph glyph-name="aacute" unicode="&#xe1;" horiz-adv-x="701" 
d="M344 170q-4 -9 -7 -19t-3 -17q0 -12 5.5 -16t14.5 -4q14 0 34 14t42 41l183 226l25 -20l-221 -273q-24 -30 -45 -50t-39.5 -31.5t-37 -16.5t-37.5 -5q-30 0 -50 17.5t-20 44.5q0 30 11.5 62t33.5 80q8 17 19.5 44.5t24.5 58t26 61.5t23 56.5t16.5 42.5t6.5 20q0 10 -7 10
q-9 0 -19 -15q-6 -8 -24 -34t-44 -62t-56 -78t-60 -82t-57 -73t-46 -52q-48 -48 -85 -75.5t-73 -27.5q-12 0 -26.5 5t-27 17.5t-20.5 35t-8 57.5q0 52 23.5 115t64.5 128.5t97 128.5t121.5 113.5t137.5 84.5t146 41v-18q-61 -18 -117 -55.5t-105 -86.5t-89 -104.5
t-69 -109.5t-44.5 -102.5t-15.5 -81.5q0 -18 5.5 -30t15.5 -12q11 0 32.5 18t49.5 48.5t61 70t67 82.5t67.5 87t62.5 83q44 60 73 99t50 62.5t38 32.5t37 9q21 0 29 -11t8 -27q0 -13 -3.5 -27t-8.5 -25q-4 -9 -17.5 -42.5t-32.5 -80t-40.5 -99.5t-41 -100.5t-34.5 -84
t-20 -48.5zM429 844h-49l144 194h145z" />
    <glyph glyph-name="acircumflex" unicode="&#xe2;" horiz-adv-x="691" 
d="M344 170q-4 -9 -7 -19t-3 -17q0 -12 5.5 -16t14.5 -4q14 0 34 14t42 41l183 226l25 -20l-221 -273q-24 -30 -45 -50t-39.5 -31.5t-37 -16.5t-37.5 -5q-30 0 -50 17.5t-20 44.5q0 30 11.5 62t33.5 80q8 17 19.5 44.5t24.5 58t26 61.5t23 56.5t16.5 42.5t6.5 20q0 10 -7 10
q-9 0 -19 -15q-6 -8 -24 -34t-44 -62t-56 -78t-60 -82t-57 -73t-46 -52q-48 -48 -85 -75.5t-73 -27.5q-12 0 -26.5 5t-27 17.5t-20.5 35t-8 57.5q0 52 23.5 115t64.5 128.5t97 128.5t121.5 113.5t137.5 84.5t146 41v-18q-61 -18 -117 -55.5t-105 -86.5t-89 -104.5
t-69 -109.5t-44.5 -102.5t-15.5 -81.5q0 -18 5.5 -30t15.5 -12q11 0 32.5 18t49.5 48.5t61 70t67 82.5t67.5 87t62.5 83q44 60 73 99t50 62.5t38 32.5t37 9q21 0 29 -11t8 -27q0 -13 -3.5 -27t-8.5 -25q-4 -9 -17.5 -42.5t-32.5 -80t-40.5 -99.5t-41 -100.5t-34.5 -84
t-20 -48.5zM561 844l-34 132l-145 -132h-75l205 192h91l59 -192h-101z" />
    <glyph glyph-name="atilde" unicode="&#xe3;" horiz-adv-x="701" 
d="M344 170q-4 -9 -7 -19t-3 -17q0 -12 5.5 -16t14.5 -4q14 0 34 14t42 41l183 226l25 -20l-221 -273q-24 -30 -45 -50t-39.5 -31.5t-37 -16.5t-37.5 -5q-30 0 -50 17.5t-20 44.5q0 30 11.5 62t33.5 80q8 17 19.5 44.5t24.5 58t26 61.5t23 56.5t16.5 42.5t6.5 20q0 10 -7 10
q-9 0 -19 -15q-6 -8 -24 -34t-44 -62t-56 -78t-60 -82t-57 -73t-46 -52q-48 -48 -85 -75.5t-73 -27.5q-12 0 -26.5 5t-27 17.5t-20.5 35t-8 57.5q0 52 23.5 115t64.5 128.5t97 128.5t121.5 113.5t137.5 84.5t146 41v-18q-61 -18 -117 -55.5t-105 -86.5t-89 -104.5
t-69 -109.5t-44.5 -102.5t-15.5 -81.5q0 -18 5.5 -30t15.5 -12q11 0 32.5 18t49.5 48.5t61 70t67 82.5t67.5 87t62.5 83q44 60 73 99t50 62.5t38 32.5t37 9q21 0 29 -11t8 -27q0 -13 -3.5 -27t-8.5 -25q-4 -9 -17.5 -42.5t-32.5 -80t-40.5 -99.5t-41 -100.5t-34.5 -84
t-20 -48.5zM732 1027q-39 -88 -75 -127.5t-83 -39.5q-24 0 -42.5 13t-34.5 28.5t-30.5 28.5t-32.5 13q-11 0 -20.5 -3.5t-19.5 -13t-20.5 -25.5t-23.5 -41h-53q38 90 72.5 128.5t76.5 38.5q24 0 41 -13t32.5 -28.5t31.5 -28.5t36 -13q10 0 20.5 3t22 12t23.5 25t26 43h53v0z
" />
    <glyph glyph-name="adieresis" unicode="&#xe4;" horiz-adv-x="701" 
d="M344 170q-4 -9 -7 -19t-3 -17q0 -12 5.5 -16t14.5 -4q14 0 34 14t42 41l183 226l25 -20l-221 -273q-24 -30 -45 -50t-39.5 -31.5t-37 -16.5t-37.5 -5q-30 0 -50 17.5t-20 44.5q0 30 11.5 62t33.5 80q8 17 19.5 44.5t24.5 58t26 61.5t23 56.5t16.5 42.5t6.5 20q0 10 -7 10
q-9 0 -19 -15q-6 -8 -24 -34t-44 -62t-56 -78t-60 -82t-57 -73t-46 -52q-48 -48 -85 -75.5t-73 -27.5q-12 0 -26.5 5t-27 17.5t-20.5 35t-8 57.5q0 52 23.5 115t64.5 128.5t97 128.5t121.5 113.5t137.5 84.5t146 41v-18q-61 -18 -117 -55.5t-105 -86.5t-89 -104.5
t-69 -109.5t-44.5 -102.5t-15.5 -81.5q0 -18 5.5 -30t15.5 -12q11 0 32.5 18t49.5 48.5t61 70t67 82.5t67.5 87t62.5 83q44 60 73 99t50 62.5t38 32.5t37 9q21 0 29 -11t8 -27q0 -13 -3.5 -27t-8.5 -25q-4 -9 -17.5 -42.5t-32.5 -80t-40.5 -99.5t-41 -100.5t-34.5 -84
t-20 -48.5zM684 939q0 -29 -21.5 -50.5t-50.5 -21.5q-31 0 -52 21.5t-21 50.5q0 31 21 52.5t52 21.5q29 0 50.5 -21.5t21.5 -52.5zM471 939q0 -29 -21.5 -50.5t-52.5 -21.5q-29 0 -50 21.5t-21 50.5q0 31 21 52.5t50 21.5q31 0 52.5 -21.5t21.5 -52.5z" />
    <glyph glyph-name="aring" unicode="&#xe5;" horiz-adv-x="701" 
d="M344 170q-4 -9 -7 -19t-3 -17q0 -12 5.5 -16t14.5 -4q14 0 34 14t42 41l183 226l25 -20l-221 -273q-24 -30 -45 -50t-39.5 -31.5t-37 -16.5t-37.5 -5q-30 0 -50 17.5t-20 44.5q0 30 11.5 62t33.5 80q8 17 19.5 44.5t24.5 58t26 61.5t23 56.5t16.5 42.5t6.5 20q0 10 -7 10
q-9 0 -19 -15q-6 -8 -24 -34t-44 -62t-56 -78t-60 -82t-57 -73t-46 -52q-48 -48 -85 -75.5t-73 -27.5q-12 0 -26.5 5t-27 17.5t-20.5 35t-8 57.5q0 52 23.5 115t64.5 128.5t97 128.5t121.5 113.5t137.5 84.5t146 41v-18q-61 -18 -117 -55.5t-105 -86.5t-89 -104.5
t-69 -109.5t-44.5 -102.5t-15.5 -81.5q0 -18 5.5 -30t15.5 -12q11 0 32.5 18t49.5 48.5t61 70t67 82.5t67.5 87t62.5 83q44 60 73 99t50 62.5t38 32.5t37 9q21 0 29 -11t8 -27q0 -13 -3.5 -27t-8.5 -25q-4 -9 -17.5 -42.5t-32.5 -80t-40.5 -99.5t-41 -100.5t-34.5 -84
t-20 -48.5zM567 1148q54 0 88.5 -30.5t34.5 -80.5q0 -47 -21 -86t-53 -67t-70.5 -44t-74.5 -16q-54 0 -86.5 30.5t-32.5 78.5q0 43 19 82t49.5 68.5t69 47t77.5 17.5zM564 1114q-32 0 -57.5 -19t-43.5 -47.5t-28 -61.5t-10 -60q0 -34 13.5 -51t37.5 -17q31 0 56.5 19
t44.5 47t29.5 60.5t10.5 59.5q0 33 -14 51.5t-39 18.5z" />
    <glyph glyph-name="ae" unicode="&#xe6;" horiz-adv-x="927" 
d="M391 40q36 0 78.5 16t96 55t118.5 105.5t146 167.5l25 -20q-69 -88 -127 -149.5t-106 -102t-86.5 -63t-68.5 -33.5t-53 -13.5t-39 -2.5q-24 0 -54 7t-56 25.5t-43.5 50.5t-17.5 83q0 66 19.5 128t51.5 119q-25 -36 -58 -81.5t-66 -90t-63.5 -82.5t-51.5 -59
q-48 -48 -85 -75.5t-73 -27.5q-12 0 -26.5 5t-27 17.5t-20.5 35t-8 57.5q0 52 23.5 115t64.5 128.5t97 128.5t121.5 113.5t137.5 84.5t146 41v-18q-61 -18 -117 -55.5t-105 -86.5t-89 -104.5t-69 -109.5t-44.5 -102.5t-15.5 -81.5q0 -18 5.5 -30t15.5 -12q11 0 32.5 18
t49.5 48.5t61 70t67 82.5t67.5 87t62.5 83q44 60 74 100.5t51.5 65t37.5 35t34 10.5q20 0 27.5 -9.5t7.5 -23.5q0 -4 -0.5 -7.5t-1.5 -8.5q38 21 73.5 33t63.5 12q53 0 76.5 -31.5t23.5 -80.5q0 -45 -20 -87t-53 -79.5t-76.5 -69t-91 -54t-96 -35.5t-90.5 -13
q-13 -38 -20.5 -72t-7.5 -63q0 -54 21 -74t51 -20zM641 678q-27 0 -65 -34.5t-78.5 -89.5t-78 -122.5t-62.5 -134.5q71 12 129.5 48.5t100 85t64 102.5t22.5 99q0 27 -9 36.5t-23 9.5z" />
    <glyph glyph-name="ccedilla" unicode="&#xe7;" horiz-adv-x="585" 
d="M513 364q-68 -86 -124.5 -147t-103 -101.5t-84.5 -63.5t-67.5 -34.5t-53 -14.5t-40.5 -3l-63 -91q17 10 41 13.5t47 3.5q39 0 64.5 -21t25.5 -53q0 -29 -17 -55.5t-45.5 -46.5t-66.5 -32t-80 -12q-44 0 -70 10t-40 19l16 24q9 -6 31 -15t57 -9q27 0 50 7.5t40 21.5
t27 33.5t10 42.5q0 29 -15.5 42.5t-35.5 13.5q-22 0 -38.5 -8t-34.5 -25h-27l97 138q-19 2 -47 10.5t-53.5 28t-44 53.5t-18.5 88q0 80 29 151t74.5 131t102.5 107.5t114 80.5t107 50.5t83 17.5q18 0 36 -5.5t32.5 -17.5t23.5 -31t9 -46q0 -17 -3 -33q-4 -20 -25 -40.5
t-48.5 -37t-56 -27t-47.5 -10.5q36 47 57.5 92.5t21.5 75.5q0 18 -8.5 29.5t-26.5 11.5q-32 0 -71 -28.5t-78.5 -74.5t-77.5 -105t-67 -120t-47 -119t-18 -102q0 -26 6 -43.5t17.5 -28t26.5 -15t33 -4.5q36 0 78.5 16t96 55t118.5 105.5t146 167.5z" />
    <glyph glyph-name="egrave" unicode="&#xe8;" horiz-adv-x="573" 
d="M37 40q36 0 78.5 16t96 55t118.5 105.5t146 167.5l25 -20q-69 -88 -127 -149.5t-106 -102t-86.5 -63t-68.5 -33.5t-53 -13.5t-39 -2.5q-24 0 -54 7t-56 25.5t-43.5 50.5t-17.5 83q0 75 24.5 145t64.5 131.5t90.5 112.5t103 87.5t101.5 56.5t86 20q53 0 76.5 -31.5
t23.5 -80.5q0 -45 -20 -87t-53 -79.5t-76.5 -69t-91 -54t-96 -35.5t-90.5 -13q-13 -38 -20.5 -72t-7.5 -63q0 -54 21 -74t51 -20zM287 678q-27 0 -65 -34.5t-78.5 -89.5t-78 -122.5t-62.5 -134.5q71 12 129.5 48.5t100 85t64 102.5t22.5 99q0 27 -9 36.5t-23 9.5zM385 844
l-90 194h125l-2 -194h-33z" />
    <glyph glyph-name="eacute" unicode="&#xe9;" horiz-adv-x="573" 
d="M37 40q36 0 78.5 16t96 55t118.5 105.5t146 167.5l25 -20q-69 -88 -127 -149.5t-106 -102t-86.5 -63t-68.5 -33.5t-53 -13.5t-39 -2.5q-24 0 -54 7t-56 25.5t-43.5 50.5t-17.5 83q0 75 24.5 145t64.5 131.5t90.5 112.5t103 87.5t101.5 56.5t86 20q53 0 76.5 -31.5
t23.5 -80.5q0 -45 -20 -87t-53 -79.5t-76.5 -69t-91 -54t-96 -35.5t-90.5 -13q-13 -38 -20.5 -72t-7.5 -63q0 -54 21 -74t51 -20zM287 678q-27 0 -65 -34.5t-78.5 -89.5t-78 -122.5t-62.5 -134.5q71 12 129.5 48.5t100 85t64 102.5t22.5 99q0 27 -9 36.5t-23 9.5zM302 844
h-49l144 194h145z" />
    <glyph glyph-name="ecircumflex" unicode="&#xea;" horiz-adv-x="573" 
d="M37 40q36 0 78.5 16t96 55t118.5 105.5t146 167.5l25 -20q-69 -88 -127 -149.5t-106 -102t-86.5 -63t-68.5 -33.5t-53 -13.5t-39 -2.5q-24 0 -54 7t-56 25.5t-43.5 50.5t-17.5 83q0 75 24.5 145t64.5 131.5t90.5 112.5t103 87.5t101.5 56.5t86 20q53 0 76.5 -31.5
t23.5 -80.5q0 -45 -20 -87t-53 -79.5t-76.5 -69t-91 -54t-96 -35.5t-90.5 -13q-13 -38 -20.5 -72t-7.5 -63q0 -54 21 -74t51 -20zM287 678q-27 0 -65 -34.5t-78.5 -89.5t-78 -122.5t-62.5 -134.5q71 12 129.5 48.5t100 85t64 102.5t22.5 99q0 27 -9 36.5t-23 9.5zM434 844
l-34 132l-145 -132h-75l205 192h91l59 -192h-101z" />
    <glyph glyph-name="edieresis" unicode="&#xeb;" horiz-adv-x="573" 
d="M37 40q36 0 78.5 16t96 55t118.5 105.5t146 167.5l25 -20q-69 -88 -127 -149.5t-106 -102t-86.5 -63t-68.5 -33.5t-53 -13.5t-39 -2.5q-24 0 -54 7t-56 25.5t-43.5 50.5t-17.5 83q0 75 24.5 145t64.5 131.5t90.5 112.5t103 87.5t101.5 56.5t86 20q53 0 76.5 -31.5
t23.5 -80.5q0 -45 -20 -87t-53 -79.5t-76.5 -69t-91 -54t-96 -35.5t-90.5 -13q-13 -38 -20.5 -72t-7.5 -63q0 -54 21 -74t51 -20zM287 678q-27 0 -65 -34.5t-78.5 -89.5t-78 -122.5t-62.5 -134.5q71 12 129.5 48.5t100 85t64 102.5t22.5 99q0 27 -9 36.5t-23 9.5zM557 939
q0 -29 -21.5 -50.5t-50.5 -21.5q-31 0 -52 21.5t-21 50.5q0 31 21 52.5t52 21.5q29 0 50.5 -21.5t21.5 -52.5zM344 939q0 -29 -21.5 -50.5t-52.5 -21.5q-29 0 -50 21.5t-21 50.5q0 31 21 52.5t50 21.5q31 0 52.5 -21.5t21.5 -52.5z" />
    <glyph glyph-name="igrave" unicode="&#xec;" horiz-adv-x="441" 
d="M133 573q3 7 3 11q0 6 -3.5 8.5t-8.5 2.5q-10 0 -18 -11l-198 -245l-25 20l225 278q26 32 54.5 56.5t59.5 24.5q29 0 42 -15.5t13 -34.5t-7 -43t-18 -50l-168 -405q-4 -10 -7 -19.5t-3 -16.5q0 -12 5.5 -16t14.5 -4q14 0 34 14t42 41l183 226l25 -20l-221 -273
q-24 -30 -45 -50t-39.5 -31.5t-37 -16.5t-37.5 -5q-30 0 -50 17.5t-20 44.5q0 25 12 59t33 83l160 370v0zM268 844l-90 194h125l-2 -194h-33z" />
    <glyph glyph-name="iacute" unicode="&#xed;" horiz-adv-x="441" 
d="M133 573q3 7 3 11q0 6 -3.5 8.5t-8.5 2.5q-10 0 -18 -11l-198 -245l-25 20l225 278q26 32 54.5 56.5t59.5 24.5q29 0 42 -15.5t13 -34.5t-7 -43t-18 -50l-168 -405q-4 -10 -7 -19.5t-3 -16.5q0 -12 5.5 -16t14.5 -4q14 0 34 14t42 41l183 226l25 -20l-221 -273
q-24 -30 -45 -50t-39.5 -31.5t-37 -16.5t-37.5 -5q-30 0 -50 17.5t-20 44.5q0 25 12 59t33 83l160 370v0zM185 844h-49l144 194h145z" />
    <glyph glyph-name="icircumflex" unicode="&#xee;" horiz-adv-x="441" 
d="M133 573q3 7 3 11q0 6 -3.5 8.5t-8.5 2.5q-10 0 -18 -11l-198 -245l-25 20l225 278q26 32 54.5 56.5t59.5 24.5q29 0 42 -15.5t13 -34.5t-7 -43t-18 -50l-168 -405q-4 -10 -7 -19.5t-3 -16.5q0 -12 5.5 -16t14.5 -4q14 0 34 14t42 41l183 226l25 -20l-221 -273
q-24 -30 -45 -50t-39.5 -31.5t-37 -16.5t-37.5 -5q-30 0 -50 17.5t-20 44.5q0 25 12 59t33 83l160 370v0zM317 844l-34 132l-145 -132h-75l205 192h91l59 -192h-101z" />
    <glyph glyph-name="idieresis" unicode="&#xef;" horiz-adv-x="441" 
d="M133 573q3 7 3 11q0 6 -3.5 8.5t-8.5 2.5q-10 0 -18 -11l-198 -245l-25 20l225 278q26 32 54.5 56.5t59.5 24.5q29 0 42 -15.5t13 -34.5t-7 -43t-18 -50l-168 -405q-4 -10 -7 -19.5t-3 -16.5q0 -12 5.5 -16t14.5 -4q14 0 34 14t42 41l183 226l25 -20l-221 -273
q-24 -30 -45 -50t-39.5 -31.5t-37 -16.5t-37.5 -5q-30 0 -50 17.5t-20 44.5q0 25 12 59t33 83l160 370v0zM440 939q0 -29 -21.5 -50.5t-50.5 -21.5q-31 0 -52 21.5t-21 50.5q0 31 21 52.5t52 21.5q29 0 50.5 -21.5t21.5 -52.5zM227 939q0 -29 -21.5 -50.5t-52.5 -21.5
q-29 0 -50 21.5t-21 50.5q0 31 21 52.5t50 21.5q31 0 52.5 -21.5t21.5 -52.5z" />
    <glyph glyph-name="eth" unicode="&#xf0;" horiz-adv-x="608" 
d="M333 1058q30 -44 58 -94t49 -109t33.5 -127.5t12.5 -149.5q0 -66 -16 -135t-45 -133.5t-69 -121.5t-87.5 -99.5t-102 -67t-111.5 -24.5q-37 0 -72 12.5t-62.5 38t-44 64t-16.5 90.5q0 61 18 121.5t50.5 116.5t77.5 104t98.5 83.5t113.5 55.5t123 20q11 0 22.5 -1.5
t21.5 -3.5q-7 98 -33 178.5t-64 150.5l-186 -126l-26 38l188 128q-23 36 -48 70t-51 66l34 23q24 -29 51.5 -61.5t55.5 -69.5l177 121l25 -39zM388 631v16t-1 16q-8 2 -16 3t-19 1q-61 0 -113 -28.5t-94.5 -74.5t-75 -104.5t-54.5 -117.5t-33.5 -114t-11.5 -94
q0 -19 3.5 -36.5t11 -31t19 -21.5t28.5 -8q30 0 68.5 25.5t78 68.5t77 101.5t67 124.5t47.5 136t18 138z" />
    <glyph glyph-name="ntilde" unicode="&#xf1;" horiz-adv-x="787" 
d="M133 573q3 7 3 11q0 6 -3.5 8.5t-8.5 2.5q-10 0 -18 -11l-198 -245l-25 20l225 278q26 32 54.5 56.5t59.5 24.5q29 0 42 -15.5t13 -34.5t-7 -43t-18 -50l-139 -327q-6 -14 -6 -22q0 -10 8 -10q11 0 24 20l209 311q32 48 57.5 81.5t48 54.5t43 30.5t42.5 9.5q38 0 58 -15
t20 -44q0 -17 -5 -35.5t-10 -32.5l-174 -426q-4 -10 -7 -19.5t-3 -16.5q0 -12 5.5 -16t14.5 -4q14 0 34 14t42 41l183 226l25 -20l-221 -273q-24 -30 -45 -50t-39.5 -31.5t-37 -16.5t-37.5 -5q-30 0 -50 17.5t-20 44.5q0 25 12 59t33 83l162 383q3 7 3 15q0 20 -19 20
q-8 0 -17.5 -5t-19.5 -20l-330 -490q-39 -58 -68.5 -82.5t-57.5 -24.5q-46 0 -46 44q0 23 11.5 57t31.5 82l166 391v0zM661 1027q-39 -88 -75 -127.5t-83 -39.5q-24 0 -42.5 13t-34.5 28.5t-30.5 28.5t-32.5 13q-11 0 -20.5 -3.5t-19.5 -13t-20.5 -25.5t-23.5 -41h-53
q38 90 72.5 128.5t76.5 38.5q24 0 41 -13t32.5 -28.5t31.5 -28.5t36 -13q10 0 20.5 3t22 12t23.5 25t26 43h53v0z" />
    <glyph glyph-name="ograve" unicode="&#xf2;" horiz-adv-x="668" 
d="M594 362q-32 -41 -60 -69t-55 -46t-52.5 -27t-51.5 -12q-30 -44 -66.5 -82.5t-77 -67t-85.5 -45t-91 -16.5q-37 0 -72 12.5t-62.5 38t-44 64t-16.5 90.5q0 81 29 160.5t81 148.5t125 124t161 88l9 -14q-77 -67 -132.5 -143t-91.5 -152.5t-53.5 -148.5t-17.5 -131
q0 -19 4 -36.5t12.5 -31t20.5 -21.5t29 -8q22 0 48.5 15t54.5 40.5t56.5 60.5t55.5 75q-48 26 -69 74.5t-21 105.5q0 53 19 103.5t49 89.5t66 62.5t70 23.5q18 0 39 -8t39 -27t30 -51t12 -80q0 -64 -23 -135.5t-63 -140.5q18 4 36.5 13t39 25t44 40.5t51.5 59.5zM198 411
q0 -54 17.5 -94t54.5 -60q27 43 50 89t40 90.5t27 85t10 72.5q0 16 -5 26t-12.5 15.5t-16 7.5t-14.5 2q-19 0 -45 -19.5t-49.5 -52t-40 -75t-16.5 -87.5zM373 844l-90 194h125l-2 -194h-33z" />
    <glyph glyph-name="oacute" unicode="&#xf3;" horiz-adv-x="668" 
d="M594 362q-32 -41 -60 -69t-55 -46t-52.5 -27t-51.5 -12q-30 -44 -66.5 -82.5t-77 -67t-85.5 -45t-91 -16.5q-37 0 -72 12.5t-62.5 38t-44 64t-16.5 90.5q0 81 29 160.5t81 148.5t125 124t161 88l9 -14q-77 -67 -132.5 -143t-91.5 -152.5t-53.5 -148.5t-17.5 -131
q0 -19 4 -36.5t12.5 -31t20.5 -21.5t29 -8q22 0 48.5 15t54.5 40.5t56.5 60.5t55.5 75q-48 26 -69 74.5t-21 105.5q0 53 19 103.5t49 89.5t66 62.5t70 23.5q18 0 39 -8t39 -27t30 -51t12 -80q0 -64 -23 -135.5t-63 -140.5q18 4 36.5 13t39 25t44 40.5t51.5 59.5zM198 411
q0 -54 17.5 -94t54.5 -60q27 43 50 89t40 90.5t27 85t10 72.5q0 16 -5 26t-12.5 15.5t-16 7.5t-14.5 2q-19 0 -45 -19.5t-49.5 -52t-40 -75t-16.5 -87.5zM290 844h-49l144 194h145z" />
    <glyph glyph-name="ocircumflex" unicode="&#xf4;" horiz-adv-x="668" 
d="M594 362q-32 -41 -60 -69t-55 -46t-52.5 -27t-51.5 -12q-30 -44 -66.5 -82.5t-77 -67t-85.5 -45t-91 -16.5q-37 0 -72 12.5t-62.5 38t-44 64t-16.5 90.5q0 81 29 160.5t81 148.5t125 124t161 88l9 -14q-77 -67 -132.5 -143t-91.5 -152.5t-53.5 -148.5t-17.5 -131
q0 -19 4 -36.5t12.5 -31t20.5 -21.5t29 -8q22 0 48.5 15t54.5 40.5t56.5 60.5t55.5 75q-48 26 -69 74.5t-21 105.5q0 53 19 103.5t49 89.5t66 62.5t70 23.5q18 0 39 -8t39 -27t30 -51t12 -80q0 -64 -23 -135.5t-63 -140.5q18 4 36.5 13t39 25t44 40.5t51.5 59.5zM198 411
q0 -54 17.5 -94t54.5 -60q27 43 50 89t40 90.5t27 85t10 72.5q0 16 -5 26t-12.5 15.5t-16 7.5t-14.5 2q-19 0 -45 -19.5t-49.5 -52t-40 -75t-16.5 -87.5zM422 844l-34 132l-145 -132h-75l205 192h91l59 -192h-101z" />
    <glyph glyph-name="otilde" unicode="&#xf5;" horiz-adv-x="668" 
d="M594 362q-32 -41 -60 -69t-55 -46t-52.5 -27t-51.5 -12q-30 -44 -66.5 -82.5t-77 -67t-85.5 -45t-91 -16.5q-37 0 -72 12.5t-62.5 38t-44 64t-16.5 90.5q0 81 29 160.5t81 148.5t125 124t161 88l9 -14q-77 -67 -132.5 -143t-91.5 -152.5t-53.5 -148.5t-17.5 -131
q0 -19 4 -36.5t12.5 -31t20.5 -21.5t29 -8q22 0 48.5 15t54.5 40.5t56.5 60.5t55.5 75q-48 26 -69 74.5t-21 105.5q0 53 19 103.5t49 89.5t66 62.5t70 23.5q18 0 39 -8t39 -27t30 -51t12 -80q0 -64 -23 -135.5t-63 -140.5q18 4 36.5 13t39 25t44 40.5t51.5 59.5zM198 411
q0 -54 17.5 -94t54.5 -60q27 43 50 89t40 90.5t27 85t10 72.5q0 16 -5 26t-12.5 15.5t-16 7.5t-14.5 2q-19 0 -45 -19.5t-49.5 -52t-40 -75t-16.5 -87.5zM593 1027q-39 -88 -75 -127.5t-83 -39.5q-24 0 -42.5 13t-34.5 28.5t-30.5 28.5t-32.5 13q-11 0 -20.5 -3.5t-19.5 -13
t-20.5 -25.5t-23.5 -41h-53q38 90 72.5 128.5t76.5 38.5q24 0 41 -13t32.5 -28.5t31.5 -28.5t36 -13q10 0 20.5 3t22 12t23.5 25t26 43h53v0z" />
    <glyph glyph-name="odieresis" unicode="&#xf6;" horiz-adv-x="668" 
d="M594 362q-32 -41 -60 -69t-55 -46t-52.5 -27t-51.5 -12q-30 -44 -66.5 -82.5t-77 -67t-85.5 -45t-91 -16.5q-37 0 -72 12.5t-62.5 38t-44 64t-16.5 90.5q0 81 29 160.5t81 148.5t125 124t161 88l9 -14q-77 -67 -132.5 -143t-91.5 -152.5t-53.5 -148.5t-17.5 -131
q0 -19 4 -36.5t12.5 -31t20.5 -21.5t29 -8q22 0 48.5 15t54.5 40.5t56.5 60.5t55.5 75q-48 26 -69 74.5t-21 105.5q0 53 19 103.5t49 89.5t66 62.5t70 23.5q18 0 39 -8t39 -27t30 -51t12 -80q0 -64 -23 -135.5t-63 -140.5q18 4 36.5 13t39 25t44 40.5t51.5 59.5zM198 411
q0 -54 17.5 -94t54.5 -60q27 43 50 89t40 90.5t27 85t10 72.5q0 16 -5 26t-12.5 15.5t-16 7.5t-14.5 2q-19 0 -45 -19.5t-49.5 -52t-40 -75t-16.5 -87.5zM545 939q0 -29 -21.5 -50.5t-50.5 -21.5q-31 0 -52 21.5t-21 50.5q0 31 21 52.5t52 21.5q29 0 50.5 -21.5t21.5 -52.5z
M332 939q0 -29 -21.5 -50.5t-52.5 -21.5q-29 0 -50 21.5t-21 50.5q0 31 21 52.5t50 21.5q31 0 52.5 -21.5t21.5 -52.5z" />
    <glyph glyph-name="divide" unicode="&#xf7;" 
d="M467 763q0 -31 -21 -52t-52 -21q-29 0 -50.5 21t-21.5 52q0 29 21.5 50.5t50.5 21.5q31 0 52 -21.5t21 -50.5zM339 408q0 -31 -21.5 -52.5t-52.5 -21.5q-29 0 -50.5 21.5t-21.5 52.5q0 29 21.5 50.5t50.5 21.5q31 0 52.5 -21.5t21.5 -50.5zM7 547l31 76h625l-31 -76h-625
z" />
    <glyph glyph-name="oslash" unicode="&#xf8;" horiz-adv-x="668" 
d="M440 655q20 -19 32.5 -51t12.5 -83q0 -64 -23 -135.5t-63 -140.5q18 4 36.5 13t39 25t44 40.5t51.5 59.5l24 -21q-32 -41 -60 -69t-55 -46t-52.5 -27t-51.5 -12q-30 -44 -66.5 -82.5t-77 -67t-85.5 -45t-91 -16.5q-32 0 -61.5 9t-55.5 27l-147 -181l-34 24l150 185
q-22 26 -34.5 61t-12.5 80q0 81 29 160.5t81 148.5t125 124t161 88l9 -14q-76 -66 -131.5 -141.5t-91.5 -151t-53.5 -147t-18.5 -130.5l192 238q-1 8 -1 15.5v15.5q0 53 19 103.5t49 89.5t66 62.5t70 23.5q20 0 41 -9l146 181l32 -26zM36 37q22 0 48.5 15t54.5 40.5
t56.5 60.5t55.5 75q-29 16 -48 41t-30 56l-194 -242q8 -20 21.5 -33t35.5 -13zM202 361q7 -35 23.5 -62t44.5 -42q27 43 50 89t40 90.5t27 85t10 72.5v7zM349 645q-19 0 -44 -18.5t-48.5 -49.5t-40 -71.5t-18.5 -84.5l176 218q-14 6 -25 6z" />
    <glyph glyph-name="ugrave" unicode="&#xf9;" horiz-adv-x="799" 
d="M102 219q-11 -24 -18 -49.5t-7 -42.5q0 -23 12 -28.5t26 -5.5q15 0 35 21.5t43.5 56.5t50 81t53.5 94.5l54 97t53 89.5q35 56 58.5 92.5t43.5 58.5t39.5 30.5t47.5 8.5q21 0 34 -11t13 -27q0 -13 -3.5 -27t-8.5 -25q-4 -9 -17.5 -43t-33 -81.5t-41 -101.5t-41 -102.5
t-35 -85.5t-20.5 -49q-4 -9 -7 -19t-3 -17q0 -12 5.5 -16t14.5 -4q14 0 34 14t42 41l183 226l25 -20l-221 -273q-24 -30 -45 -50t-39.5 -31.5t-37 -16.5t-37.5 -5q-30 0 -50 17.5t-20 44.5q0 30 11.5 62t33.5 80q8 17 19.5 44.5t24.5 58t26 61.5t23 56.5t16.5 42.5t6.5 20
q0 10 -7 10q-9 0 -19 -15q-63 -96 -110 -183.5t-90 -154t-86.5 -105.5t-98.5 -39q-33 0 -56.5 24.5t-23.5 69.5q0 18 3.5 37t8.5 35.5t9.5 29.5t7.5 19l150 359q3 7 3 11q0 6 -3.5 8.5t-8.5 2.5q-10 0 -18 -11l-198 -245l-25 20l225 278q26 32 54.5 56.5t59.5 24.5
q29 0 42 -15.5t13 -34.5t-7 -43t-18 -50zM451 844l-90 194h125l-2 -194h-33z" />
    <glyph glyph-name="uacute" unicode="&#xfa;" horiz-adv-x="799" 
d="M102 219q-11 -24 -18 -49.5t-7 -42.5q0 -23 12 -28.5t26 -5.5q15 0 35 21.5t43.5 56.5t50 81t53.5 94.5l54 97t53 89.5q35 56 58.5 92.5t43.5 58.5t39.5 30.5t47.5 8.5q21 0 34 -11t13 -27q0 -13 -3.5 -27t-8.5 -25q-4 -9 -17.5 -43t-33 -81.5t-41 -101.5t-41 -102.5
t-35 -85.5t-20.5 -49q-4 -9 -7 -19t-3 -17q0 -12 5.5 -16t14.5 -4q14 0 34 14t42 41l183 226l25 -20l-221 -273q-24 -30 -45 -50t-39.5 -31.5t-37 -16.5t-37.5 -5q-30 0 -50 17.5t-20 44.5q0 30 11.5 62t33.5 80q8 17 19.5 44.5t24.5 58t26 61.5t23 56.5t16.5 42.5t6.5 20
q0 10 -7 10q-9 0 -19 -15q-63 -96 -110 -183.5t-90 -154t-86.5 -105.5t-98.5 -39q-33 0 -56.5 24.5t-23.5 69.5q0 18 3.5 37t8.5 35.5t9.5 29.5t7.5 19l150 359q3 7 3 11q0 6 -3.5 8.5t-8.5 2.5q-10 0 -18 -11l-198 -245l-25 20l225 278q26 32 54.5 56.5t59.5 24.5
q29 0 42 -15.5t13 -34.5t-7 -43t-18 -50zM368 844h-49l144 194h145z" />
    <glyph glyph-name="ucircumflex" unicode="&#xfb;" horiz-adv-x="799" 
d="M102 219q-11 -24 -18 -49.5t-7 -42.5q0 -23 12 -28.5t26 -5.5q15 0 35 21.5t43.5 56.5t50 81t53.5 94.5l54 97t53 89.5q35 56 58.5 92.5t43.5 58.5t39.5 30.5t47.5 8.5q21 0 34 -11t13 -27q0 -13 -3.5 -27t-8.5 -25q-4 -9 -17.5 -43t-33 -81.5t-41 -101.5t-41 -102.5
t-35 -85.5t-20.5 -49q-4 -9 -7 -19t-3 -17q0 -12 5.5 -16t14.5 -4q14 0 34 14t42 41l183 226l25 -20l-221 -273q-24 -30 -45 -50t-39.5 -31.5t-37 -16.5t-37.5 -5q-30 0 -50 17.5t-20 44.5q0 30 11.5 62t33.5 80q8 17 19.5 44.5t24.5 58t26 61.5t23 56.5t16.5 42.5t6.5 20
q0 10 -7 10q-9 0 -19 -15q-63 -96 -110 -183.5t-90 -154t-86.5 -105.5t-98.5 -39q-33 0 -56.5 24.5t-23.5 69.5q0 18 3.5 37t8.5 35.5t9.5 29.5t7.5 19l150 359q3 7 3 11q0 6 -3.5 8.5t-8.5 2.5q-10 0 -18 -11l-198 -245l-25 20l225 278q26 32 54.5 56.5t59.5 24.5
q29 0 42 -15.5t13 -34.5t-7 -43t-18 -50zM500 844l-34 132l-145 -132h-75l205 192h91l59 -192h-101z" />
    <glyph glyph-name="udieresis" unicode="&#xfc;" horiz-adv-x="799" 
d="M102 219q-11 -24 -18 -49.5t-7 -42.5q0 -23 12 -28.5t26 -5.5q15 0 35 21.5t43.5 56.5t50 81t53.5 94.5l54 97t53 89.5q35 56 58.5 92.5t43.5 58.5t39.5 30.5t47.5 8.5q21 0 34 -11t13 -27q0 -13 -3.5 -27t-8.5 -25q-4 -9 -17.5 -43t-33 -81.5t-41 -101.5t-41 -102.5
t-35 -85.5t-20.5 -49q-4 -9 -7 -19t-3 -17q0 -12 5.5 -16t14.5 -4q14 0 34 14t42 41l183 226l25 -20l-221 -273q-24 -30 -45 -50t-39.5 -31.5t-37 -16.5t-37.5 -5q-30 0 -50 17.5t-20 44.5q0 30 11.5 62t33.5 80q8 17 19.5 44.5t24.5 58t26 61.5t23 56.5t16.5 42.5t6.5 20
q0 10 -7 10q-9 0 -19 -15q-63 -96 -110 -183.5t-90 -154t-86.5 -105.5t-98.5 -39q-33 0 -56.5 24.5t-23.5 69.5q0 18 3.5 37t8.5 35.5t9.5 29.5t7.5 19l150 359q3 7 3 11q0 6 -3.5 8.5t-8.5 2.5q-10 0 -18 -11l-198 -245l-25 20l225 278q26 32 54.5 56.5t59.5 24.5
q29 0 42 -15.5t13 -34.5t-7 -43t-18 -50zM623 939q0 -29 -21.5 -50.5t-50.5 -21.5q-31 0 -52 21.5t-21 50.5q0 31 21 52.5t52 21.5q29 0 50.5 -21.5t21.5 -52.5zM410 939q0 -29 -21.5 -50.5t-52.5 -21.5q-29 0 -50 21.5t-21 50.5q0 31 21 52.5t50 21.5q31 0 52.5 -21.5
t21.5 -52.5z" />
    <glyph glyph-name="yacute" unicode="&#xfd;" horiz-adv-x="790" 
d="M721 365q-50 -62 -95.5 -113t-90 -95.5t-90.5 -85t-95 -81.5l-202 -467l-151 -41q119 265 215 479q41 91 80.5 179.5t72 160t53.5 119.5t25 57q2 5 2.5 12t-7.5 7q-9 0 -19 -15q-63 -96 -110 -183.5t-90 -154t-86.5 -105.5t-98.5 -39q-33 0 -56.5 24.5t-23.5 69.5
q0 18 3.5 37t8.5 35.5t9.5 29.5t7.5 19l150 359q3 7 3 11q0 6 -3.5 8.5t-8.5 2.5q-10 0 -18 -11l-198 -245l-25 20l225 278q26 32 54.5 56.5t59.5 24.5q29 0 42 -15.5t13 -34.5t-7 -43t-18 -50l-150 -356q-11 -24 -18 -49.5t-7 -42.5q0 -23 12 -28.5t26 -5.5q15 0 35 21.5
t43.5 56.5t50 81t53.5 94.5l54 97t53 89.5q35 56 58.5 92.5t43.5 58.5t39.5 30.5t47.5 8.5q21 0 34 -11t13 -27q0 -13 -3.5 -27t-8.5 -25l-248 -573q68 57 146.5 135.5t169.5 189.5zM367 844h-49l144 194h145z" />
    <glyph glyph-name="thorn" unicode="&#xfe;" horiz-adv-x="798" 
d="M732 371q-95 -118 -190 -187.5t-183.5 -107.5t-166.5 -53t-138 -23v18q67 24 125.5 64t106.5 88t86 101t64 104.5t39.5 97t13.5 78.5q0 20 -6 33.5t-17 13.5q-15 0 -41.5 -23t-61.5 -62.5t-75 -91.5t-82 -110t-82.5 -118.5t-75.5 -116t-62.5 -103.5t-42.5 -81
q-19 -41 -39.5 -88.5t-41 -96t-39.5 -95t-36 -86.5l-141 -44q15 34 32 73.5t34.5 80.5t35 82.5t33.5 79.5q37 89 75 178l280 667q-15 -24 -35.5 -53t-48.5 -67t-65.5 -85.5t-86.5 -108.5l-25 20q94 117 152 193.5t94 130t57.5 93t43.5 81.5l156 372h122l-398 -947
q-4 -9 -4 -17q0 -10 7 -10t18 14l22.5 31.5t42 58.5t53.5 73t57.5 76.5t54.5 69t45 50.5q48 48 85 77t75 29q12 0 26.5 -5.5t27 -19t21 -36.5t8.5 -58q0 -68 -32 -143.5t-86 -147.5t-123.5 -135t-144.5 -107q34 10 86 32t112.5 59.5t126 93t127.5 134.5z" />
    <glyph glyph-name="ydieresis" unicode="&#xff;" horiz-adv-x="790" 
d="M721 365q-50 -62 -95.5 -113t-90 -95.5t-90.5 -85t-95 -81.5l-202 -467l-151 -41q119 265 215 479q41 91 80.5 179.5t72 160t53.5 119.5t25 57q2 5 2.5 12t-7.5 7q-9 0 -19 -15q-63 -96 -110 -183.5t-90 -154t-86.5 -105.5t-98.5 -39q-33 0 -56.5 24.5t-23.5 69.5
q0 18 3.5 37t8.5 35.5t9.5 29.5t7.5 19l150 359q3 7 3 11q0 6 -3.5 8.5t-8.5 2.5q-10 0 -18 -11l-198 -245l-25 20l225 278q26 32 54.5 56.5t59.5 24.5q29 0 42 -15.5t13 -34.5t-7 -43t-18 -50l-150 -356q-11 -24 -18 -49.5t-7 -42.5q0 -23 12 -28.5t26 -5.5q15 0 35 21.5
t43.5 56.5t50 81t53.5 94.5l54 97t53 89.5q35 56 58.5 92.5t43.5 58.5t39.5 30.5t47.5 8.5q21 0 34 -11t13 -27q0 -13 -3.5 -27t-8.5 -25l-248 -573q68 57 146.5 135.5t169.5 189.5zM622 939q0 -29 -21.5 -50.5t-50.5 -21.5q-31 0 -52 21.5t-21 50.5q0 31 21 52.5t52 21.5
q29 0 50.5 -21.5t21.5 -52.5zM409 939q0 -29 -21.5 -50.5t-52.5 -21.5q-29 0 -50 21.5t-21 50.5q0 31 21 52.5t50 21.5q31 0 52.5 -21.5t21.5 -52.5z" />
    <glyph glyph-name="Amacron" unicode="&#x100;" horiz-adv-x="1471" 
d="M1214 534h101l-43 -92h-96l-186 -442h-133l185 442h-435q-4 -8 -7.5 -14.5t-7.5 -13.5q-77 -139 -151 -223.5t-142 -131t-128 -62t-110 -15.5q-43 0 -79.5 13.5t-63.5 38t-42.5 60.5t-15.5 81q0 85 44.5 152t123.5 113t188.5 70t239.5 24h65q108 184 197 322t164 238
t137.5 166t117.5 104.5t104.5 54t97.5 15.5q63 0 100 -37.5t37 -119.5q0 -58 -20 -137t-64 -184zM1328 1397q-33 0 -64 -8.5t-68 -37.5t-83.5 -85.5t-110 -152.5t-147.5 -237.5t-196 -341.5h421l177 422q58 140 92.5 232.5t34.5 145.5q0 32 -13 47.5t-43 15.5zM69 32
q66 0 118.5 32.5t97 85.5t84 120t78.5 136l21 36h-59q-143 0 -239 -22.5t-154 -59.5t-82.5 -84.5t-24.5 -96.5q0 -28 8.5 -54.5t27.5 -47t49.5 -33t74.5 -12.5zM1203 1603l20 65h359l-23 -65h-356z" />
    <glyph glyph-name="amacron" unicode="&#x101;" horiz-adv-x="701" 
d="M344 170q-4 -9 -7 -19t-3 -17q0 -12 5.5 -16t14.5 -4q14 0 34 14t42 41l183 226l25 -20l-221 -273q-24 -30 -45 -50t-39.5 -31.5t-37 -16.5t-37.5 -5q-30 0 -50 17.5t-20 44.5q0 30 11.5 62t33.5 80q8 17 19.5 44.5t24.5 58t26 61.5t23 56.5t16.5 42.5t6.5 20q0 10 -7 10
q-9 0 -19 -15q-6 -8 -24 -34t-44 -62t-56 -78t-60 -82t-57 -73t-46 -52q-48 -48 -85 -75.5t-73 -27.5q-12 0 -26.5 5t-27 17.5t-20.5 35t-8 57.5q0 52 23.5 115t64.5 128.5t97 128.5t121.5 113.5t137.5 84.5t146 41v-18q-61 -18 -117 -55.5t-105 -86.5t-89 -104.5
t-69 -109.5t-44.5 -102.5t-15.5 -81.5q0 -18 5.5 -30t15.5 -12q11 0 32.5 18t49.5 48.5t61 70t67 82.5t67.5 87t62.5 83q44 60 73 99t50 62.5t38 32.5t37 9q21 0 29 -11t8 -27q0 -13 -3.5 -27t-8.5 -25q-4 -9 -17.5 -42.5t-32.5 -80t-40.5 -99.5t-41 -100.5t-34.5 -84
t-20 -48.5zM325 911l20 65h359l-23 -65h-356z" />
    <glyph glyph-name="Abreve" unicode="&#x102;" horiz-adv-x="1471" 
d="M1214 534h101l-43 -92h-96l-186 -442h-133l185 442h-435q-4 -8 -7.5 -14.5t-7.5 -13.5q-77 -139 -151 -223.5t-142 -131t-128 -62t-110 -15.5q-43 0 -79.5 13.5t-63.5 38t-42.5 60.5t-15.5 81q0 85 44.5 152t123.5 113t188.5 70t239.5 24h65q108 184 197 322t164 238
t137.5 166t117.5 104.5t104.5 54t97.5 15.5q63 0 100 -37.5t37 -119.5q0 -58 -20 -137t-64 -184zM1328 1397q-33 0 -64 -8.5t-68 -37.5t-83.5 -85.5t-110 -152.5t-147.5 -237.5t-196 -341.5h421l177 422q58 140 92.5 232.5t34.5 145.5q0 32 -13 47.5t-43 15.5zM69 32
q66 0 118.5 32.5t97 85.5t84 120t78.5 136l21 36h-59q-143 0 -239 -22.5t-154 -59.5t-82.5 -84.5t-24.5 -96.5q0 -28 8.5 -54.5t27.5 -47t49.5 -33t74.5 -12.5zM1617 1728q-19 -42 -43 -77.5t-55.5 -61t-71.5 -39.5t-90 -14q-33 0 -60 9.5t-46.5 26.5t-30 40.5t-10.5 50.5
q0 30 15 65h57q-4 -9 -7 -21t-3 -25t4.5 -25.5t15.5 -22.5t29.5 -16t47.5 -6q43 0 74 11.5t52.5 29t35 37.5t21.5 38h65v0z" />
    <glyph glyph-name="abreve" unicode="&#x103;" horiz-adv-x="701" 
d="M344 170q-4 -9 -7 -19t-3 -17q0 -12 5.5 -16t14.5 -4q14 0 34 14t42 41l183 226l25 -20l-221 -273q-24 -30 -45 -50t-39.5 -31.5t-37 -16.5t-37.5 -5q-30 0 -50 17.5t-20 44.5q0 30 11.5 62t33.5 80q8 17 19.5 44.5t24.5 58t26 61.5t23 56.5t16.5 42.5t6.5 20q0 10 -7 10
q-9 0 -19 -15q-6 -8 -24 -34t-44 -62t-56 -78t-60 -82t-57 -73t-46 -52q-48 -48 -85 -75.5t-73 -27.5q-12 0 -26.5 5t-27 17.5t-20.5 35t-8 57.5q0 52 23.5 115t64.5 128.5t97 128.5t121.5 113.5t137.5 84.5t146 41v-18q-61 -18 -117 -55.5t-105 -86.5t-89 -104.5
t-69 -109.5t-44.5 -102.5t-15.5 -81.5q0 -18 5.5 -30t15.5 -12q11 0 32.5 18t49.5 48.5t61 70t67 82.5t67.5 87t62.5 83q44 60 73 99t50 62.5t38 32.5t37 9q21 0 29 -11t8 -27q0 -13 -3.5 -27t-8.5 -25q-4 -9 -17.5 -42.5t-32.5 -80t-40.5 -99.5t-41 -100.5t-34.5 -84
t-20 -48.5zM739 1036q-19 -42 -43 -77.5t-55.5 -61t-71.5 -39.5t-90 -14q-33 0 -60 9.5t-46.5 26.5t-30 40.5t-10.5 50.5q0 30 15 65h57q-4 -9 -7 -21t-3 -25t4.5 -25.5t15.5 -22.5t29.5 -16t47.5 -6q43 0 74 11.5t52.5 29t35 37.5t21.5 38h65v0z" />
    <glyph glyph-name="Aogonek" unicode="&#x104;" horiz-adv-x="1471" 
d="M894 -285q-26 -12 -59.5 -21.5t-65.5 -9.5q-49 0 -68 21.5t-19 49.5q0 44 28 82.5t68.5 70t87 55t83.5 37.5h-92l185 442h-435q-4 -8 -7.5 -14.5t-7.5 -13.5q-77 -139 -151 -223.5t-142 -131t-128 -62t-110 -15.5q-43 0 -79.5 13.5t-63.5 38t-42.5 60.5t-15.5 81
q0 85 44.5 152t123.5 113t188.5 70t239.5 24h65q108 184 197 322t164 238t137.5 166t117.5 104.5t104.5 54t97.5 15.5q63 0 100 -37.5t37 -119.5q0 -58 -20 -137t-64 -184l-178 -422h101l-43 -92h-96l-186 -442q-120 -57 -173.5 -115t-53.5 -110q0 -28 15 -39.5t37 -11.5
q21 0 41 6.5t28 9.5zM1328 1397q-33 0 -64 -8.5t-68 -37.5t-83.5 -85.5t-110 -152.5t-147.5 -237.5t-196 -341.5h421l177 422q58 140 92.5 232.5t34.5 145.5q0 32 -13 47.5t-43 15.5zM69 32q66 0 118.5 32.5t97 85.5t84 120t78.5 136l21 36h-59q-143 0 -239 -22.5
t-154 -59.5t-82.5 -84.5t-24.5 -96.5q0 -28 8.5 -54.5t27.5 -47t49.5 -33t74.5 -12.5z" />
    <glyph glyph-name="aogonek" unicode="&#x105;" horiz-adv-x="701" 
d="M282 -256q-26 -12 -59.5 -21.5t-65.5 -9.5q-49 0 -68 21.5t-19 49.5q0 31 15 62.5t39 60t54.5 52.5t62.5 41q-23 5 -37 21.5t-14 39.5q0 30 11.5 61.5t31.5 80.5q8 19 19.5 46.5t24.5 58.5t26 61.5t23 55.5t16.5 41.5t6.5 19.5q0 10 -7 10q-9 0 -19 -15q-6 -8 -24 -34
t-44 -62t-56 -78t-60 -82t-57 -73t-46 -52q-48 -48 -85 -75.5t-73 -27.5q-12 0 -26.5 5t-27 17.5t-20.5 35t-8 57.5q0 52 23.5 115t64.5 128.5t97 128.5t121.5 113.5t137.5 84.5t146 41v-18q-61 -18 -117 -55.5t-105 -86.5t-89 -104.5t-69 -109.5t-44.5 -102.5t-15.5 -81.5
q0 -18 5.5 -30t15.5 -12q11 0 32.5 18t49.5 48.5t61 70t67 82.5t67.5 87t62.5 83q44 60 73 99t50 62.5t38 32.5t37 9q21 0 29 -11t8 -27q0 -13 -3.5 -27t-8.5 -25l-186 -455q-4 -9 -7 -19t-3 -17q0 -12 5.5 -16t14.5 -4q14 0 34 14t42 41l183 226l25 -20l-221 -273
q-36 -44 -61 -65.5t-51 -32.5q-47 -20 -76.5 -46.5t-47 -53.5t-24 -53.5t-6.5 -46.5q0 -28 15 -39.5t37 -11.5q21 0 41 6.5t28 9.5l10 -25v0z" />
    <glyph glyph-name="Cacute" unicode="&#x106;" horiz-adv-x="1054" 
d="M791 764q113 54 177 162t64 253q0 47 -10.5 87t-31.5 69t-52 45.5t-71 16.5q-64 0 -128 -27t-126 -75t-119.5 -113.5t-108 -142.5t-92.5 -162t-72 -172t-46.5 -172t-16.5 -163q0 -86 18 -147t50 -101t76 -58.5t97 -18.5q10 0 41.5 2.5t77 16.5t101.5 43t115 83l25 -36
q-64 -62 -127.5 -97t-117 -51.5t-93 -20t-54.5 -3.5q-55 0 -116.5 18t-113.5 61.5t-86.5 117t-34.5 184.5q0 105 22.5 207t63 197t95 181.5t118 160.5t133.5 134t140 102.5t138 65.5t128 23q64 0 117 -19t91.5 -54t60 -83.5t21.5 -107.5q0 -66 -27 -133.5t-73 -126
t-106.5 -104.5t-126.5 -69zM839 1534h-49l144 194h145z" />
    <glyph glyph-name="cacute" unicode="&#x107;" horiz-adv-x="585" 
d="M513 364q-69 -88 -126.5 -149.5t-105 -102t-85.5 -63t-68 -33.5t-53 -13.5t-40 -2.5q-7 0 -23 1.5t-37 7.5t-43 17.5t-40 31.5t-30 50t-12 73q0 80 29 151t74.5 131t102.5 107.5t114 80.5t107 50.5t83 17.5q18 0 36 -5.5t32.5 -17.5t23.5 -31t9 -46q0 -17 -3 -33
q-4 -20 -25 -40.5t-48.5 -37t-56 -27t-47.5 -10.5q36 47 57.5 92.5t21.5 75.5q0 18 -8.5 29.5t-26.5 11.5q-32 0 -71 -28.5t-78.5 -74.5t-77.5 -105t-67 -120t-47 -119t-18 -102q0 -26 6 -43.5t17.5 -28t26.5 -15t33 -4.5q36 0 78.5 16t96 55t118.5 105.5t146 167.5z
M342 844h-49l144 194h145z" />
    <glyph glyph-name="Ccircumflex" unicode="&#x108;" horiz-adv-x="1054" 
d="M791 764q113 54 177 162t64 253q0 47 -10.5 87t-31.5 69t-52 45.5t-71 16.5q-64 0 -128 -27t-126 -75t-119.5 -113.5t-108 -142.5t-92.5 -162t-72 -172t-46.5 -172t-16.5 -163q0 -86 18 -147t50 -101t76 -58.5t97 -18.5q10 0 41.5 2.5t77 16.5t101.5 43t115 83l25 -36
q-64 -62 -127.5 -97t-117 -51.5t-93 -20t-54.5 -3.5q-55 0 -116.5 18t-113.5 61.5t-86.5 117t-34.5 184.5q0 105 22.5 207t63 197t95 181.5t118 160.5t133.5 134t140 102.5t138 65.5t128 23q64 0 117 -19t91.5 -54t60 -83.5t21.5 -107.5q0 -66 -27 -133.5t-73 -126
t-106.5 -104.5t-126.5 -69zM971 1534l-34 132l-145 -132h-75l205 192h91l59 -192h-101z" />
    <glyph glyph-name="ccircumflex" unicode="&#x109;" horiz-adv-x="585" 
d="M513 364q-69 -88 -126.5 -149.5t-105 -102t-85.5 -63t-68 -33.5t-53 -13.5t-40 -2.5q-7 0 -23 1.5t-37 7.5t-43 17.5t-40 31.5t-30 50t-12 73q0 80 29 151t74.5 131t102.5 107.5t114 80.5t107 50.5t83 17.5q18 0 36 -5.5t32.5 -17.5t23.5 -31t9 -46q0 -17 -3 -33
q-4 -20 -25 -40.5t-48.5 -37t-56 -27t-47.5 -10.5q36 47 57.5 92.5t21.5 75.5q0 18 -8.5 29.5t-26.5 11.5q-32 0 -71 -28.5t-78.5 -74.5t-77.5 -105t-67 -120t-47 -119t-18 -102q0 -26 6 -43.5t17.5 -28t26.5 -15t33 -4.5q36 0 78.5 16t96 55t118.5 105.5t146 167.5z
M474 844l-34 132l-145 -132h-75l205 192h91l59 -192h-101z" />
    <glyph glyph-name="Cdotaccent" unicode="&#x10a;" horiz-adv-x="1054" 
d="M791 764q113 54 177 162t64 253q0 47 -10.5 87t-31.5 69t-52 45.5t-71 16.5q-64 0 -128 -27t-126 -75t-119.5 -113.5t-108 -142.5t-92.5 -162t-72 -172t-46.5 -172t-16.5 -163q0 -86 18 -147t50 -101t76 -58.5t97 -18.5q10 0 41.5 2.5t77 16.5t101.5 43t115 83l25 -36
q-64 -62 -127.5 -97t-117 -51.5t-93 -20t-54.5 -3.5q-55 0 -116.5 18t-113.5 61.5t-86.5 117t-34.5 184.5q0 105 22.5 207t63 197t95 181.5t118 160.5t133.5 134t140 102.5t138 65.5t128 23q64 0 117 -19t91.5 -54t60 -83.5t21.5 -107.5q0 -66 -27 -133.5t-73 -126
t-106.5 -104.5t-126.5 -69zM987 1629q0 -29 -21 -50.5t-52 -21.5q-29 0 -50.5 21.5t-21.5 50.5q0 31 21.5 52t50.5 21q31 0 52 -21t21 -52z" />
    <glyph glyph-name="cdotaccent" unicode="&#x10b;" horiz-adv-x="585" 
d="M513 364q-69 -88 -126.5 -149.5t-105 -102t-85.5 -63t-68 -33.5t-53 -13.5t-40 -2.5q-7 0 -23 1.5t-37 7.5t-43 17.5t-40 31.5t-30 50t-12 73q0 80 29 151t74.5 131t102.5 107.5t114 80.5t107 50.5t83 17.5q18 0 36 -5.5t32.5 -17.5t23.5 -31t9 -46q0 -17 -3 -33
q-4 -20 -25 -40.5t-48.5 -37t-56 -27t-47.5 -10.5q36 47 57.5 92.5t21.5 75.5q0 18 -8.5 29.5t-26.5 11.5q-32 0 -71 -28.5t-78.5 -74.5t-77.5 -105t-67 -120t-47 -119t-18 -102q0 -26 6 -43.5t17.5 -28t26.5 -15t33 -4.5q36 0 78.5 16t96 55t118.5 105.5t146 167.5z
M490 939q0 -29 -21 -50.5t-52 -21.5q-29 0 -50.5 21.5t-21.5 50.5q0 31 21.5 52t50.5 21q31 0 52 -21t21 -52z" />
    <glyph glyph-name="Ccaron" unicode="&#x10c;" horiz-adv-x="1054" 
d="M791 764q113 54 177 162t64 253q0 47 -10.5 87t-31.5 69t-52 45.5t-71 16.5q-64 0 -128 -27t-126 -75t-119.5 -113.5t-108 -142.5t-92.5 -162t-72 -172t-46.5 -172t-16.5 -163q0 -86 18 -147t50 -101t76 -58.5t97 -18.5q10 0 41.5 2.5t77 16.5t101.5 43t115 83l25 -36
q-64 -62 -127.5 -97t-117 -51.5t-93 -20t-54.5 -3.5q-55 0 -116.5 18t-113.5 61.5t-86.5 117t-34.5 184.5q0 105 22.5 207t63 197t95 181.5t118 160.5t133.5 134t140 102.5t138 65.5t128 23q64 0 117 -19t91.5 -54t60 -83.5t21.5 -107.5q0 -66 -27 -133.5t-73 -126
t-106.5 -104.5t-126.5 -69zM878 1726l34 -132l145 132h75l-205 -192h-91l-59 192h101z" />
    <glyph glyph-name="ccaron" unicode="&#x10d;" horiz-adv-x="585" 
d="M513 364q-69 -88 -126.5 -149.5t-105 -102t-85.5 -63t-68 -33.5t-53 -13.5t-40 -2.5q-7 0 -23 1.5t-37 7.5t-43 17.5t-40 31.5t-30 50t-12 73q0 80 29 151t74.5 131t102.5 107.5t114 80.5t107 50.5t83 17.5q18 0 36 -5.5t32.5 -17.5t23.5 -31t9 -46q0 -17 -3 -33
q-4 -20 -25 -40.5t-48.5 -37t-56 -27t-47.5 -10.5q36 47 57.5 92.5t21.5 75.5q0 18 -8.5 29.5t-26.5 11.5q-32 0 -71 -28.5t-78.5 -74.5t-77.5 -105t-67 -120t-47 -119t-18 -102q0 -26 6 -43.5t17.5 -28t26.5 -15t33 -4.5q36 0 78.5 16t96 55t118.5 105.5t146 167.5z
M381 1036l34 -132l145 132h75l-205 -192h-91l-59 192h101z" />
    <glyph glyph-name="Dcaron" unicode="&#x10e;" horiz-adv-x="1410" 
d="M575 -18q-52 0 -96 12.5t-82 33t-71 47t-62 53.5q-59 -74 -122.5 -108.5t-137.5 -34.5q-27 0 -54.5 8.5t-50 26t-36.5 45t-14 65.5q0 39 16.5 75t46 63.5t70 43.5t88.5 16q42 0 79.5 -20t74.5 -51q30 60 63 138.5t75 177.5l130 310h-119q-50 0 -99 10.5t-87 33
t-61.5 56.5t-23.5 82q0 68 45 134.5t127.5 118.5t200 84t262.5 32q109 0 212 -39t183.5 -114t129 -183.5t48.5 -247.5q0 -97 -26 -199t-73 -198t-114 -182t-148.5 -150t-176 -101.5t-197.5 -37.5zM620 883l-194 -463q-60 -143 -121 -235q29 -27 59 -52.5t63 -45.5t69 -32
t76 -12q86 0 163.5 36.5t144 99.5t120.5 146.5t91.5 177t58 192.5t20.5 192q0 106 -26.5 199t-81.5 162t-139.5 109t-201.5 40q-115 0 -209 -26.5t-160.5 -68.5t-102.5 -95t-36 -107q0 -28 9 -51.5t31.5 -40t59.5 -26t94 -9.5h122l147 350h128l-147 -350h322l-37 -90h-322z
M-4 35q30 0 55.5 9.5t49 29.5t46 50t45.5 72q-35 32 -68.5 54t-70.5 22q-38 0 -66.5 -13t-48.5 -33.5t-30 -45t-10 -47.5q0 -45 26 -71.5t72 -26.5zM785 1726l34 -132l145 132h75l-205 -192h-91l-59 192h101z" />
    <glyph glyph-name="dcaron" unicode="&#x10f;" horiz-adv-x="701" 
d="M344 170q-4 -9 -7 -19t-3 -17q0 -12 5.5 -16t14.5 -4q14 0 34 14t42 41l183 226l25 -20l-221 -273q-24 -30 -45 -50t-39.5 -31.5t-37 -16.5t-37.5 -5q-30 0 -50 17.5t-20 44.5q0 30 12 62t33 80q10 24 26 61t32.5 75.5t31 73t22.5 52.5q4 9 4 17q0 10 -7 10t-19 -15
q-31 -40 -67 -91t-74.5 -104.5t-78.5 -104.5t-79.5 -91t-76.5 -64.5t-69 -24.5q-12 0 -26.5 5t-27 18t-20.5 36t-8 58q0 57 24.5 122.5t67 130.5t100 126.5t123 110t136 80.5t139.5 39v-18q-62 -21 -119 -59.5t-106 -87.5t-88.5 -104t-68 -108t-43.5 -100.5t-15 -80.5
q0 -18 5.5 -30t15.5 -12q11 0 32.5 18t49.5 48.5t61 70t67 82.5t67.5 87t62.5 83q45 60 79 114.5t58 96.5q28 49 49 92l170 404h121l-440 -1049v0zM802 1019q26 16 51 38t31 44q-24 5 -39 23t-15 39q0 28 19 47t44 19q29 0 48 -19t19 -48q0 -24 -13 -48.5t-33.5 -47
t-45.5 -42.5t-50 -33z" />
    <glyph glyph-name="Dcroat" unicode="&#x110;" horiz-adv-x="1410" 
d="M575 -18q-52 0 -96 12.5t-82 33t-71 47t-62 53.5q-59 -74 -122.5 -108.5t-137.5 -34.5q-27 0 -54.5 8.5t-50 26t-36.5 45t-14 65.5q0 39 16.5 75t46 63.5t70 43.5t88.5 16q42 0 79.5 -20t74.5 -51q27 55 57.5 125t66.5 157h-195l28 62h192l118 282h-118q-50 0 -99 10.5
t-87 33t-61.5 56.5t-23.5 82q0 68 45 134.5t127.5 118.5t200 84t262.5 32q109 0 212 -39t183.5 -114t129 -183.5t48.5 -247.5q0 -97 -26 -199t-73 -198t-114 -182t-148.5 -150t-176 -101.5t-197.5 -37.5zM476 539l-50 -119q-60 -143 -121 -235q29 -27 59 -52.5t63 -45.5
t69 -32t76 -12q86 0 163.5 36.5t144 99.5t120.5 146.5t91.5 177t58 192.5t20.5 192q0 106 -26.5 199t-81.5 162t-139.5 109t-201.5 40q-115 0 -209 -26.5t-160.5 -68.5t-102.5 -95t-36 -107q0 -28 9 -51.5t31.5 -40t59.5 -26t94 -9.5h122l147 350h128l-147 -350h322l-37 -90
h-322l-118 -282h225l-28 -62h-223zM-4 35q30 0 55.5 9.5t49 29.5t46 50t45.5 72q-35 32 -68.5 54t-70.5 22q-38 0 -66.5 -13t-48.5 -33.5t-30 -45t-10 -47.5q0 -45 26 -71.5t72 -26.5z" />
    <glyph glyph-name="dcroat" unicode="&#x111;" horiz-adv-x="701" 
d="M344 170q-4 -9 -7 -19t-3 -17q0 -12 5.5 -16t14.5 -4q14 0 34 14t42 41l183 226l25 -20l-221 -273q-24 -30 -45 -50t-39.5 -31.5t-37 -16.5t-37.5 -5q-30 0 -50 17.5t-20 44.5q0 30 12 62t33 80q10 24 26 61t32.5 75.5t31 73t22.5 52.5q4 9 4 17q0 10 -7 10t-19 -15
q-31 -40 -67 -91t-74.5 -104.5t-78.5 -104.5t-79.5 -91t-76.5 -64.5t-69 -24.5q-12 0 -26.5 5t-27 18t-20.5 36t-8 58q0 57 24.5 122.5t67 130.5t100 126.5t123 110t136 80.5t139.5 39v-18q-62 -21 -119 -59.5t-106 -87.5t-88.5 -104t-68 -108t-43.5 -100.5t-15 -80.5
q0 -18 5.5 -30t15.5 -12q11 0 32.5 18t49.5 48.5t61 70t67 82.5t67.5 87t62.5 83q45 60 79 114.5t58 96.5q28 49 49 92l59 140h-248l28 62h246l85 202h121l-85 -202h129l-28 -62h-127l-329 -785v0z" />
    <glyph glyph-name="Emacron" unicode="&#x112;" horiz-adv-x="837" 
d="M165 1020q94 9 177 24q12 68 46.5 137.5t85.5 126t116 92t138 35.5q52 0 85.5 -34.5t33.5 -88.5q0 -45 -28 -86.5t-80.5 -78t-127 -68t-167.5 -55.5q4 -24 12 -45.5t15.5 -41.5t13 -39.5t5.5 -41.5q0 -62 -30 -104t-75 -75.5t-97.5 -64.5t-97.5 -71.5t-75 -97t-30 -140.5
q0 -66 24.5 -115t63.5 -82t86.5 -49t92.5 -16q30 0 65.5 3.5t79.5 19t97 46.5t116 86l26 -32q-68 -57 -126 -92.5t-110.5 -55.5t-102 -27t-100.5 -7q-72 0 -135.5 19t-110.5 56t-74.5 92t-27.5 127q0 82 31.5 142t78.5 104.5t101.5 78.5t101.5 64.5t78.5 60.5t31.5 68
q0 14 -5.5 30.5t-12.5 38.5t-12.5 50t-5.5 65v10.5t1 11.5q-35 -7 -72 -12.5t-75 -10.5zM440 1066q148 39 229 102t81 149q0 38 -18 55.5t-51 17.5q-30 0 -71 -22.5t-79 -63.5t-64.5 -100t-26.5 -132v-6zM540 1602l20 65h359l-23 -65h-356z" />
    <glyph glyph-name="emacron" unicode="&#x113;" horiz-adv-x="573" 
d="M37 40q36 0 78.5 16t96 55t118.5 105.5t146 167.5l25 -20q-69 -88 -127 -149.5t-106 -102t-86.5 -63t-68.5 -33.5t-53 -13.5t-39 -2.5q-24 0 -54 7t-56 25.5t-43.5 50.5t-17.5 83q0 75 24.5 145t64.5 131.5t90.5 112.5t103 87.5t101.5 56.5t86 20q53 0 76.5 -31.5
t23.5 -80.5q0 -45 -20 -87t-53 -79.5t-76.5 -69t-91 -54t-96 -35.5t-90.5 -13q-13 -38 -20.5 -72t-7.5 -63q0 -54 21 -74t51 -20zM287 678q-27 0 -65 -34.5t-78.5 -89.5t-78 -122.5t-62.5 -134.5q71 12 129.5 48.5t100 85t64 102.5t22.5 99q0 27 -9 36.5t-23 9.5zM198 911
l20 65h359l-23 -65h-356z" />
    <glyph glyph-name="Ebreve" unicode="&#x114;" horiz-adv-x="837" 
d="M165 1020q94 9 177 24q12 68 46.5 137.5t85.5 126t116 92t138 35.5q52 0 85.5 -34.5t33.5 -88.5q0 -45 -28 -86.5t-80.5 -78t-127 -68t-167.5 -55.5q4 -24 12 -45.5t15.5 -41.5t13 -39.5t5.5 -41.5q0 -62 -30 -104t-75 -75.5t-97.5 -64.5t-97.5 -71.5t-75 -97t-30 -140.5
q0 -66 24.5 -115t63.5 -82t86.5 -49t92.5 -16q30 0 65.5 3.5t79.5 19t97 46.5t116 86l26 -32q-68 -57 -126 -92.5t-110.5 -55.5t-102 -27t-100.5 -7q-72 0 -135.5 19t-110.5 56t-74.5 92t-27.5 127q0 82 31.5 142t78.5 104.5t101.5 78.5t101.5 64.5t78.5 60.5t31.5 68
q0 14 -5.5 30.5t-12.5 38.5t-12.5 50t-5.5 65v10.5t1 11.5q-35 -7 -72 -12.5t-75 -10.5zM440 1066q148 39 229 102t81 149q0 38 -18 55.5t-51 17.5q-30 0 -71 -22.5t-79 -63.5t-64.5 -100t-26.5 -132v-6zM954 1727q-19 -42 -43 -77.5t-55.5 -61t-71.5 -39.5t-90 -14
q-33 0 -60 9.5t-46.5 26.5t-30 40.5t-10.5 50.5q0 30 15 65h57q-4 -9 -7 -21t-3 -25t4.5 -25.5t15.5 -22.5t29.5 -16t47.5 -6q43 0 74 11.5t52.5 29t35 37.5t21.5 38h65v0z" />
    <glyph glyph-name="ebreve" unicode="&#x115;" horiz-adv-x="573" 
d="M37 40q36 0 78.5 16t96 55t118.5 105.5t146 167.5l25 -20q-69 -88 -127 -149.5t-106 -102t-86.5 -63t-68.5 -33.5t-53 -13.5t-39 -2.5q-24 0 -54 7t-56 25.5t-43.5 50.5t-17.5 83q0 75 24.5 145t64.5 131.5t90.5 112.5t103 87.5t101.5 56.5t86 20q53 0 76.5 -31.5
t23.5 -80.5q0 -45 -20 -87t-53 -79.5t-76.5 -69t-91 -54t-96 -35.5t-90.5 -13q-13 -38 -20.5 -72t-7.5 -63q0 -54 21 -74t51 -20zM287 678q-27 0 -65 -34.5t-78.5 -89.5t-78 -122.5t-62.5 -134.5q71 12 129.5 48.5t100 85t64 102.5t22.5 99q0 27 -9 36.5t-23 9.5zM612 1036
q-19 -42 -43 -77.5t-55.5 -61t-71.5 -39.5t-90 -14q-33 0 -60 9.5t-46.5 26.5t-30 40.5t-10.5 50.5q0 30 15 65h57q-4 -9 -7 -21t-3 -25t4.5 -25.5t15.5 -22.5t29.5 -16t47.5 -6q43 0 74 11.5t52.5 29t35 37.5t21.5 38h65v0z" />
    <glyph glyph-name="Edotaccent" unicode="&#x116;" horiz-adv-x="837" 
d="M165 1020q94 9 177 24q12 68 46.5 137.5t85.5 126t116 92t138 35.5q52 0 85.5 -34.5t33.5 -88.5q0 -45 -28 -86.5t-80.5 -78t-127 -68t-167.5 -55.5q4 -24 12 -45.5t15.5 -41.5t13 -39.5t5.5 -41.5q0 -62 -30 -104t-75 -75.5t-97.5 -64.5t-97.5 -71.5t-75 -97t-30 -140.5
q0 -66 24.5 -115t63.5 -82t86.5 -49t92.5 -16q30 0 65.5 3.5t79.5 19t97 46.5t116 86l26 -32q-68 -57 -126 -92.5t-110.5 -55.5t-102 -27t-100.5 -7q-72 0 -135.5 19t-110.5 56t-74.5 92t-27.5 127q0 82 31.5 142t78.5 104.5t101.5 78.5t101.5 64.5t78.5 60.5t31.5 68
q0 14 -5.5 30.5t-12.5 38.5t-12.5 50t-5.5 65v10.5t1 11.5q-35 -7 -72 -12.5t-75 -10.5zM440 1066q148 39 229 102t81 149q0 38 -18 55.5t-51 17.5q-30 0 -71 -22.5t-79 -63.5t-64.5 -100t-26.5 -132v-6zM792 1630q0 -29 -21 -50.5t-52 -21.5q-29 0 -50.5 21.5t-21.5 50.5
q0 31 21.5 52t50.5 21q31 0 52 -21t21 -52z" />
    <glyph glyph-name="edotaccent" unicode="&#x117;" horiz-adv-x="573" 
d="M37 40q36 0 78.5 16t96 55t118.5 105.5t146 167.5l25 -20q-69 -88 -127 -149.5t-106 -102t-86.5 -63t-68.5 -33.5t-53 -13.5t-39 -2.5q-24 0 -54 7t-56 25.5t-43.5 50.5t-17.5 83q0 75 24.5 145t64.5 131.5t90.5 112.5t103 87.5t101.5 56.5t86 20q53 0 76.5 -31.5
t23.5 -80.5q0 -45 -20 -87t-53 -79.5t-76.5 -69t-91 -54t-96 -35.5t-90.5 -13q-13 -38 -20.5 -72t-7.5 -63q0 -54 21 -74t51 -20zM287 678q-27 0 -65 -34.5t-78.5 -89.5t-78 -122.5t-62.5 -134.5q71 12 129.5 48.5t100 85t64 102.5t22.5 99q0 27 -9 36.5t-23 9.5zM450 939
q0 -29 -21 -50.5t-52 -21.5q-29 0 -50.5 21.5t-21.5 50.5q0 31 21.5 52t50.5 21q31 0 52 -21t21 -52z" />
    <glyph glyph-name="Eogonek" unicode="&#x118;" horiz-adv-x="837" 
d="M411 -266q-26 -12 -59.5 -21.5t-65.5 -9.5q-49 0 -68 21.5t-19 49.5q0 34 17.5 65.5t46 59t63.5 50.5t70 40q-25 -4 -49.5 -5.5t-49.5 -1.5q-72 0 -135.5 19t-110.5 56t-74.5 92t-27.5 127q0 82 31.5 142t78.5 104.5t101.5 78.5t101.5 64.5t78.5 60.5t31.5 68
q0 14 -5.5 30.5t-12.5 38.5t-12.5 50t-5.5 65v10.5t1 11.5q-35 -7 -72 -12.5t-75 -10.5l-25 43q94 9 177 24q12 68 46.5 137.5t85.5 126t116 92t138 35.5q52 0 85.5 -34.5t33.5 -88.5q0 -45 -28 -86.5t-80.5 -78t-127 -68t-167.5 -55.5q4 -24 12 -45.5t15.5 -41.5t13 -39.5
t5.5 -41.5q0 -62 -30 -104t-75 -75.5t-97.5 -64.5t-97.5 -71.5t-75 -97t-30 -140.5q0 -66 24.5 -115t63.5 -82t86.5 -49t92.5 -16q30 0 65.5 3.5t79.5 19t97 46.5t116 86l26 -32q-68 -56 -122 -89.5t-106 -56.5q-118 -53 -173 -113t-55 -111q0 -28 15 -39.5t37 -11.5
q21 0 41 6.5t28 9.5zM440 1066q148 39 229 102t81 149q0 38 -18 55.5t-51 17.5q-30 0 -71 -22.5t-79 -63.5t-64.5 -100t-26.5 -132v-6z" />
    <glyph glyph-name="eogonek" unicode="&#x119;" horiz-adv-x="573" 
d="M117 -227q-26 -12 -59.5 -21.5t-65.5 -9.5q-49 0 -68 21.5t-19 49.5q0 30 13 57t34.5 50.5t49 43.5t56.5 38q-11 -2 -20 -2h-17q-24 0 -54 7t-56 25.5t-43.5 50.5t-17.5 83q0 75 24.5 145t64.5 131.5t90.5 112.5t103 87.5t101.5 56.5t86 20q53 0 76.5 -31.5t23.5 -80.5
q0 -45 -20 -87t-53 -79.5t-76.5 -69t-91 -54t-96 -35.5t-90.5 -13q-13 -38 -20.5 -72t-7.5 -63q0 -54 21 -74t51 -20q36 0 78.5 16t96 55t118.5 105.5t146 167.5l25 -20q-58 -74 -108.5 -129t-93 -94t-78.5 -65t-65 -42q-48 -28 -81 -54t-52.5 -50.5t-28 -48.5t-8.5 -48
q0 -28 15 -39.5t37 -11.5q21 0 41 6.5t28 9.5zM287 678q-27 0 -65 -34.5t-78.5 -89.5t-78 -122.5t-62.5 -134.5q71 12 129.5 48.5t100 85t64 102.5t22.5 99q0 27 -9 36.5t-23 9.5z" />
    <glyph glyph-name="Ecaron" unicode="&#x11a;" horiz-adv-x="837" 
d="M165 1020q94 9 177 24q12 68 46.5 137.5t85.5 126t116 92t138 35.5q52 0 85.5 -34.5t33.5 -88.5q0 -45 -28 -86.5t-80.5 -78t-127 -68t-167.5 -55.5q4 -24 12 -45.5t15.5 -41.5t13 -39.5t5.5 -41.5q0 -62 -30 -104t-75 -75.5t-97.5 -64.5t-97.5 -71.5t-75 -97t-30 -140.5
q0 -66 24.5 -115t63.5 -82t86.5 -49t92.5 -16q30 0 65.5 3.5t79.5 19t97 46.5t116 86l26 -32q-68 -57 -126 -92.5t-110.5 -55.5t-102 -27t-100.5 -7q-72 0 -135.5 19t-110.5 56t-74.5 92t-27.5 127q0 82 31.5 142t78.5 104.5t101.5 78.5t101.5 64.5t78.5 60.5t31.5 68
q0 14 -5.5 30.5t-12.5 38.5t-12.5 50t-5.5 65v10.5t1 11.5q-35 -7 -72 -12.5t-75 -10.5zM440 1066q148 39 229 102t81 149q0 38 -18 55.5t-51 17.5q-30 0 -71 -22.5t-79 -63.5t-64.5 -100t-26.5 -132v-6zM683 1727l34 -132l145 132h75l-205 -192h-91l-59 192h101z" />
    <glyph glyph-name="ecaron" unicode="&#x11b;" horiz-adv-x="573" 
d="M37 40q36 0 78.5 16t96 55t118.5 105.5t146 167.5l25 -20q-69 -88 -127 -149.5t-106 -102t-86.5 -63t-68.5 -33.5t-53 -13.5t-39 -2.5q-24 0 -54 7t-56 25.5t-43.5 50.5t-17.5 83q0 75 24.5 145t64.5 131.5t90.5 112.5t103 87.5t101.5 56.5t86 20q53 0 76.5 -31.5
t23.5 -80.5q0 -45 -20 -87t-53 -79.5t-76.5 -69t-91 -54t-96 -35.5t-90.5 -13q-13 -38 -20.5 -72t-7.5 -63q0 -54 21 -74t51 -20zM287 678q-27 0 -65 -34.5t-78.5 -89.5t-78 -122.5t-62.5 -134.5q71 12 129.5 48.5t100 85t64 102.5t22.5 99q0 27 -9 36.5t-23 9.5zM341 1036
l34 -132l145 132h75l-205 -192h-91l-59 192h101z" />
    <glyph glyph-name="Gcircumflex" unicode="&#x11c;" horiz-adv-x="1079" 
d="M806 813q113 50 177 149.5t64 233.5q0 43 -10.5 80t-31.5 64t-52 42t-71 15q-85 0 -170.5 -41t-164 -110t-147 -159t-119 -188.5t-79.5 -199.5t-29 -190q0 -74 18 -127t50 -87.5t76 -50.5t97 -16q16 0 44 3t64.5 14.5t81.5 34t95 61.5l107 253h127l-148 -355
q-24 -59 -56 -113.5t-77 -103t-106 -89.5t-145 -72l-13 28q56 23 97.5 63t71.5 85t49.5 87.5t31.5 70.5l26 62q-47 -31 -89 -49.5t-78 -28t-65 -12t-50 -2.5q-55 0 -116.5 15.5t-113.5 54t-86.5 102.5t-34.5 161q0 123 39.5 240t106 221t153 191t179.5 150.5t186.5 98.5
t173.5 35q64 0 117 -18t91.5 -50t60 -77t21.5 -100q0 -62 -27 -124.5t-73 -117t-106.5 -97t-126.5 -64.5zM949 1534l-34 132l-145 -132h-75l205 192h91l59 -192h-101z" />
    <glyph glyph-name="gcircumflex" unicode="&#x11d;" horiz-adv-x="699" 
d="M630 365q-48 -60 -92 -110t-87.5 -93.5t-87.5 -82.5t-92 -79l-96 -231q-32 -77 -65.5 -139t-71.5 -105t-82 -66t-97 -23q-35 0 -59 11.5t-39 29.5t-21.5 40t-6.5 42q0 66 37 121.5t96.5 106.5t133 101.5t147.5 107.5l196 472q6 15 6 18q0 10 -7 10q-9 0 -19 -15
q-6 -8 -24 -34t-44 -62t-56 -78t-60 -82t-57 -73t-46 -52q-48 -48 -85 -75.5t-73 -27.5q-12 0 -26.5 5t-27 17.5t-20.5 35t-8 57.5q0 52 23.5 115t64.5 128.5t97 128.5t121.5 113.5t137.5 84.5t146 41v-18q-61 -18 -117 -55.5t-105 -86.5t-89 -104.5t-69 -109.5
t-44.5 -102.5t-15.5 -81.5q0 -18 5.5 -30t15.5 -12q11 0 32.5 18t49.5 48.5t61 70t67 82.5t67.5 87t62.5 83q44 60 73.5 99t51 62.5t38.5 32.5t37 9q21 0 29 -11t8 -27q0 -13 -3.5 -27t-8.5 -25l-232 -556q66 57 141.5 133.5t163.5 182.5zM122 -65q-80 -58 -145 -104.5
t-110.5 -89t-70 -86.5t-24.5 -97q0 -14 4 -29t12.5 -27t22.5 -19.5t34 -7.5q50 0 91.5 56t80.5 150zM505 844l-34 132l-145 -132h-75l205 192h91l59 -192h-101z" />
    <glyph glyph-name="Gbreve" unicode="&#x11e;" horiz-adv-x="1079" 
d="M806 813q113 50 177 149.5t64 233.5q0 43 -10.5 80t-31.5 64t-52 42t-71 15q-85 0 -170.5 -41t-164 -110t-147 -159t-119 -188.5t-79.5 -199.5t-29 -190q0 -74 18 -127t50 -87.5t76 -50.5t97 -16q16 0 44 3t64.5 14.5t81.5 34t95 61.5l107 253h127l-148 -355
q-24 -59 -56 -113.5t-77 -103t-106 -89.5t-145 -72l-13 28q56 23 97.5 63t71.5 85t49.5 87.5t31.5 70.5l26 62q-47 -31 -89 -49.5t-78 -28t-65 -12t-50 -2.5q-55 0 -116.5 15.5t-113.5 54t-86.5 102.5t-34.5 161q0 123 39.5 240t106 221t153 191t179.5 150.5t186.5 98.5
t173.5 35q64 0 117 -18t91.5 -50t60 -77t21.5 -100q0 -62 -27 -124.5t-73 -117t-106.5 -97t-126.5 -64.5zM1127 1726q-19 -42 -43 -77.5t-55.5 -61t-71.5 -39.5t-90 -14q-33 0 -60 9.5t-46.5 26.5t-30 40.5t-10.5 50.5q0 30 15 65h57q-4 -9 -7 -21t-3 -25t4.5 -25.5
t15.5 -22.5t29.5 -16t47.5 -6q43 0 74 11.5t52.5 29t35 37.5t21.5 38h65v0z" />
    <glyph glyph-name="gbreve" unicode="&#x11f;" horiz-adv-x="699" 
d="M630 365q-48 -60 -92 -110t-87.5 -93.5t-87.5 -82.5t-92 -79l-96 -231q-32 -77 -65.5 -139t-71.5 -105t-82 -66t-97 -23q-35 0 -59 11.5t-39 29.5t-21.5 40t-6.5 42q0 66 37 121.5t96.5 106.5t133 101.5t147.5 107.5l196 472q6 15 6 18q0 10 -7 10q-9 0 -19 -15
q-6 -8 -24 -34t-44 -62t-56 -78t-60 -82t-57 -73t-46 -52q-48 -48 -85 -75.5t-73 -27.5q-12 0 -26.5 5t-27 17.5t-20.5 35t-8 57.5q0 52 23.5 115t64.5 128.5t97 128.5t121.5 113.5t137.5 84.5t146 41v-18q-61 -18 -117 -55.5t-105 -86.5t-89 -104.5t-69 -109.5
t-44.5 -102.5t-15.5 -81.5q0 -18 5.5 -30t15.5 -12q11 0 32.5 18t49.5 48.5t61 70t67 82.5t67.5 87t62.5 83q44 60 73.5 99t51 62.5t38.5 32.5t37 9q21 0 29 -11t8 -27q0 -13 -3.5 -27t-8.5 -25l-232 -556q66 57 141.5 133.5t163.5 182.5zM122 -65q-80 -58 -145 -104.5
t-110.5 -89t-70 -86.5t-24.5 -97q0 -14 4 -29t12.5 -27t22.5 -19.5t34 -7.5q50 0 91.5 56t80.5 150zM683 1036q-19 -42 -43 -77.5t-55.5 -61t-71.5 -39.5t-90 -14q-33 0 -60 9.5t-46.5 26.5t-30 40.5t-10.5 50.5q0 30 15 65h57q-4 -9 -7 -21t-3 -25t4.5 -25.5t15.5 -22.5
t29.5 -16t47.5 -6q43 0 74 11.5t52.5 29t35 37.5t21.5 38h65v0z" />
    <glyph glyph-name="Gdotaccent" unicode="&#x120;" horiz-adv-x="1079" 
d="M806 813q113 50 177 149.5t64 233.5q0 43 -10.5 80t-31.5 64t-52 42t-71 15q-85 0 -170.5 -41t-164 -110t-147 -159t-119 -188.5t-79.5 -199.5t-29 -190q0 -74 18 -127t50 -87.5t76 -50.5t97 -16q16 0 44 3t64.5 14.5t81.5 34t95 61.5l107 253h127l-148 -355
q-24 -59 -56 -113.5t-77 -103t-106 -89.5t-145 -72l-13 28q56 23 97.5 63t71.5 85t49.5 87.5t31.5 70.5l26 62q-47 -31 -89 -49.5t-78 -28t-65 -12t-50 -2.5q-55 0 -116.5 15.5t-113.5 54t-86.5 102.5t-34.5 161q0 123 39.5 240t106 221t153 191t179.5 150.5t186.5 98.5
t173.5 35q64 0 117 -18t91.5 -50t60 -77t21.5 -100q0 -62 -27 -124.5t-73 -117t-106.5 -97t-126.5 -64.5zM965 1629q0 -29 -21 -50.5t-52 -21.5q-29 0 -50.5 21.5t-21.5 50.5q0 31 21.5 52t50.5 21q31 0 52 -21t21 -52z" />
    <glyph glyph-name="gdotaccent" unicode="&#x121;" horiz-adv-x="699" 
d="M630 365q-48 -60 -92 -110t-87.5 -93.5t-87.5 -82.5t-92 -79l-96 -231q-32 -77 -65.5 -139t-71.5 -105t-82 -66t-97 -23q-35 0 -59 11.5t-39 29.5t-21.5 40t-6.5 42q0 66 37 121.5t96.5 106.5t133 101.5t147.5 107.5l196 472q6 15 6 18q0 10 -7 10q-9 0 -19 -15
q-6 -8 -24 -34t-44 -62t-56 -78t-60 -82t-57 -73t-46 -52q-48 -48 -85 -75.5t-73 -27.5q-12 0 -26.5 5t-27 17.5t-20.5 35t-8 57.5q0 52 23.5 115t64.5 128.5t97 128.5t121.5 113.5t137.5 84.5t146 41v-18q-61 -18 -117 -55.5t-105 -86.5t-89 -104.5t-69 -109.5
t-44.5 -102.5t-15.5 -81.5q0 -18 5.5 -30t15.5 -12q11 0 32.5 18t49.5 48.5t61 70t67 82.5t67.5 87t62.5 83q44 60 73.5 99t51 62.5t38.5 32.5t37 9q21 0 29 -11t8 -27q0 -13 -3.5 -27t-8.5 -25l-232 -556q66 57 141.5 133.5t163.5 182.5zM122 -65q-80 -58 -145 -104.5
t-110.5 -89t-70 -86.5t-24.5 -97q0 -14 4 -29t12.5 -27t22.5 -19.5t34 -7.5q50 0 91.5 56t80.5 150zM521 939q0 -29 -21 -50.5t-52 -21.5q-29 0 -50.5 21.5t-21.5 50.5q0 31 21.5 52t50.5 21q31 0 52 -21t21 -52z" />
    <glyph glyph-name="Gcommaaccent" unicode="&#x122;" horiz-adv-x="1079" 
d="M806 813q113 50 177 149.5t64 233.5q0 43 -10.5 80t-31.5 64t-52 42t-71 15q-85 0 -170.5 -41t-164 -110t-147 -159t-119 -188.5t-79.5 -199.5t-29 -190q0 -74 18 -127t50 -87.5t76 -50.5t97 -16q16 0 44 3t64.5 14.5t81.5 34t95 61.5l107 253h127l-148 -355
q-24 -59 -56 -113.5t-77 -103t-106 -89.5t-145 -72l-13 28q56 23 97.5 63t71.5 85t49.5 87.5t31.5 70.5l26 62q-47 -31 -89 -49.5t-78 -28t-65 -12t-50 -2.5q-55 0 -116.5 15.5t-113.5 54t-86.5 102.5t-34.5 161q0 123 39.5 240t106 221t153 191t179.5 150.5t186.5 98.5
t173.5 35q64 0 117 -18t91.5 -50t60 -77t21.5 -100q0 -62 -27 -124.5t-73 -117t-106.5 -97t-126.5 -64.5zM134 -235q26 16 51 38t31 44q-24 5 -39 23t-15 39q0 28 19 47t44 19q29 0 48 -19t19 -48q0 -24 -13 -48.5t-33.5 -47t-45.5 -42.5t-50 -33z" />
    <glyph glyph-name="gcommaaccent" unicode="&#x123;" horiz-adv-x="699" 
d="M630 365q-48 -60 -92 -110t-87.5 -93.5t-87.5 -82.5t-92 -79l-96 -231q-32 -77 -65.5 -139t-71.5 -105t-82 -66t-97 -23q-35 0 -59 11.5t-39 29.5t-21.5 40t-6.5 42q0 66 37 121.5t96.5 106.5t133 101.5t147.5 107.5l196 472q6 15 6 18q0 10 -7 10q-9 0 -19 -15
q-6 -8 -24 -34t-44 -62t-56 -78t-60 -82t-57 -73t-46 -52q-48 -48 -85 -75.5t-73 -27.5q-12 0 -26.5 5t-27 17.5t-20.5 35t-8 57.5q0 52 23.5 115t64.5 128.5t97 128.5t121.5 113.5t137.5 84.5t146 41v-18q-61 -18 -117 -55.5t-105 -86.5t-89 -104.5t-69 -109.5
t-44.5 -102.5t-15.5 -81.5q0 -18 5.5 -30t15.5 -12q11 0 32.5 18t49.5 48.5t61 70t67 82.5t67.5 87t62.5 83q44 60 73.5 99t51 62.5t38.5 32.5t37 9q21 0 29 -11t8 -27q0 -13 -3.5 -27t-8.5 -25l-232 -556q66 57 141.5 133.5t163.5 182.5zM122 -65q-80 -58 -145 -104.5
t-110.5 -89t-70 -86.5t-24.5 -97q0 -14 4 -29t12.5 -27t22.5 -19.5t34 -7.5q50 0 91.5 56t80.5 150zM482 1054q-26 -16 -51 -38t-31 -44q24 -5 39 -23t15 -39q0 -28 -19 -47t-44 -19q-29 0 -48 19t-19 48q0 24 13 48.5t33.5 47t45.5 42t50 33.5z" />
    <glyph glyph-name="Hcircumflex" unicode="&#x124;" horiz-adv-x="1343" 
d="M153 0l186 435q-57 3 -95.5 17.5t-62 36t-33.5 47.5t-10 53q0 51 23 83t55.5 51t68.5 26t62 7q65 0 121 -18l108 251q22 53 45 106.5t41 102t29.5 89.5t11.5 69q0 18 -7.5 29.5t-22.5 11.5q-71 -11 -163 -68q-39 -24 -86.5 -61t-103 -90.5t-118 -125t-131.5 -165.5
l-21 135q97 100 191.5 176.5t179 129t154 79.5t116.5 27q56 0 80 -33.5t24 -85.5q0 -34 -8 -73.5t-20.5 -82t-29 -86t-34.5 -84.5l-131 -304q41 -29 73.5 -69.5t58.5 -91.5h251l366 873h126l-366 -873h103l-40 -89h-100l-182 -435h-127l1 2q2 33 3 63.5t1 59.5
q0 94 -10.5 170.5t-30.5 139.5h-235l-187 -435h-124zM197 614q0 -16 7.5 -32t23.5 -29t40.5 -21t59.5 -8h49l76 177q-52 16 -114 16q-66 0 -104 -29t-38 -74zM781 147v-19t-1 -19l137 326h-177q41 -128 41 -288zM661 524q-42 80 -104 125l-54 -125h158zM1148 1517l-34 132
l-145 -132h-75l205 192h91l59 -192h-101z" />
    <glyph glyph-name="hcircumflex" unicode="&#x125;" horiz-adv-x="763" 
d="M91 248q-2 -5 -3 -9q-3 -8 -3 -13q0 -10 8 -10q11 0 24 20l209 311q32 48 57.5 81.5t48 54.5t43 30.5t42.5 9.5q38 0 58 -15t20 -44q0 -17 -5 -35.5t-10 -32.5l-174 -426q-4 -10 -7 -19.5t-3 -16.5q0 -12 5.5 -16t14.5 -4q14 0 34 14t42 41l183 226l25 -20l-221 -273
q-24 -30 -45 -50t-39.5 -31.5t-37 -16.5t-37.5 -5q-30 0 -50 17.5t-20 44.5q0 25 12 59t33 83l162 383q3 7 3 15q0 20 -19 20q-8 0 -17.5 -5t-19.5 -20l-330 -490q-39 -58 -68.5 -82.5t-57.5 -24.5q-46 0 -46 44q0 23 11.5 57t31.5 82l196 469q-16 -25 -37 -55.5t-50 -69.5
t-66.5 -87t-85.5 -107l-25 20q68 84 118 150t87 119.5t62.5 96.5t45.5 80.5t37 71.5l35 70l117 279h121l-409 -971v0zM545 1319l-34 132l-145 -132h-75l205 192h91l59 -192h-101z" />
    <glyph glyph-name="Hbar" unicode="&#x126;" horiz-adv-x="1343" 
d="M1447 1397l-198 -473h191l-28 -62h-189l-142 -338h103l-40 -89h-100l-182 -435h-127l1 2q2 33 3 63.5t1 59.5q0 94 -10.5 170.5t-30.5 139.5h-235l-187 -435h-124l186 435q-57 3 -95.5 17.5t-62 36t-33.5 47.5t-10 53q0 51 23 83t55.5 51t68.5 26t62 7q65 0 121 -18
l53 124h-210l28 62h209l28 65q22 53 45 106.5t41 102t29.5 89.5t11.5 69q0 18 -7.5 29.5t-22.5 11.5q-71 -11 -163 -68q-39 -24 -86.5 -61t-103 -90.5t-118 -125t-131.5 -165.5l-21 135q97 100 191.5 176.5t179 129t154 79.5t116.5 27q56 0 80 -33.5t24 -85.5
q0 -34 -8 -73.5t-20.5 -82t-29 -86t-34.5 -84.5l-28 -65h447l199 473h126zM572 685q41 -29 73.5 -69.5t58.5 -91.5h251l141 338h-448zM197 614q0 -16 7.5 -32t23.5 -29t40.5 -21t59.5 -8h49l76 177q-52 16 -114 16q-66 0 -104 -29t-38 -74zM781 147v-19t-1 -19l137 326h-177
q41 -128 41 -288zM661 524q-42 80 -104 125l-54 -125h158z" />
    <glyph glyph-name="hbar" unicode="&#x127;" horiz-adv-x="763" 
d="M91 248q-2 -5 -3 -9q-3 -8 -3 -13q0 -10 8 -10q11 0 24 20l209 311q32 48 57.5 81.5t48 54.5t43 30.5t42.5 9.5q38 0 58 -15t20 -44q0 -17 -5 -35.5t-10 -32.5l-174 -426q-4 -10 -7 -19.5t-3 -16.5q0 -12 5.5 -16t14.5 -4q14 0 34 14t42 41l183 226l25 -20l-221 -273
q-24 -30 -45 -50t-39.5 -31.5t-37 -16.5t-37.5 -5q-30 0 -50 17.5t-20 44.5q0 25 12 59t33 83l162 383q3 7 3 15q0 20 -19 20q-8 0 -17.5 -5t-19.5 -20l-330 -490q-39 -58 -68.5 -82.5t-57.5 -24.5q-46 0 -46 44q0 23 11.5 57t31.5 82l196 469q-16 -25 -37 -55.5t-50 -69.5
t-66.5 -87t-85.5 -107l-25 20q68 84 118 150t86.5 119.5t63 96t46.5 80t36.5 71.5t34.5 70l6 16h-124l28 62h122l85 202h121l-85 -202h253l-28 -62h-251l-298 -707v0z" />
    <glyph glyph-name="Itilde" unicode="&#x128;" horiz-adv-x="914" 
d="M847 635q-54 -61 -105.5 -113.5t-105.5 -92.5q-41 -78 -92.5 -157.5t-114.5 -144t-137 -105t-159 -40.5q-80 0 -126 42t-47 109l98 62q-13 -48 -13 -82q0 -47 21 -68t50 -21q76 0 164.5 78t182.5 242q-47 -11 -95 -11q-51 0 -102.5 17t-93 51.5t-67.5 88t-26 127.5
q0 102 38 202t99.5 191t138.5 168.5t154.5 134.5t148.5 89t121 32q49 0 82 -51.5t33 -157.5q0 -109 -46 -274t-149 -394q-7 -14 -13 -29q32 31 63.5 66t65.5 73zM417 388q38 0 77 11q25 48 50 102t51 115q45 108 84 211.5t68 194.5t45.5 166t16.5 125q0 40 -12 62t-38 22
q-29 0 -81 -33t-113 -89.5t-124.5 -132.5t-115 -162t-84 -178t-32.5 -180q0 -57 17 -100.5t45.5 -73.5t66.5 -45t79 -15zM996 1717q-39 -88 -75 -127.5t-83 -39.5q-24 0 -42.5 13t-34.5 28.5t-30.5 28.5t-32.5 13q-11 0 -20.5 -3.5t-19.5 -13t-20.5 -25.5t-23.5 -41h-53
q38 90 72.5 128.5t76.5 38.5q24 0 41 -13t32.5 -28.5t31.5 -28.5t36 -13q10 0 20.5 3t22 12t23.5 25t26 43h53v0z" />
    <glyph glyph-name="itilde" unicode="&#x129;" horiz-adv-x="441" 
d="M133 573q3 7 3 11q0 6 -3.5 8.5t-8.5 2.5q-10 0 -18 -11l-198 -245l-25 20l225 278q26 32 54.5 56.5t59.5 24.5q29 0 42 -15.5t13 -34.5t-7 -43t-18 -50l-168 -405q-4 -10 -7 -19.5t-3 -16.5q0 -12 5.5 -16t14.5 -4q14 0 34 14t42 41l183 226l25 -20l-221 -273
q-24 -30 -45 -50t-39.5 -31.5t-37 -16.5t-37.5 -5q-30 0 -50 17.5t-20 44.5q0 25 12 59t33 83l160 370v0zM488 1027q-39 -88 -75 -127.5t-83 -39.5q-24 0 -42.5 13t-34.5 28.5t-30.5 28.5t-32.5 13q-11 0 -20.5 -3.5t-19.5 -13t-20.5 -25.5t-23.5 -41h-53q38 90 72.5 128.5
t76.5 38.5q24 0 41 -13t32.5 -28.5t31.5 -28.5t36 -13q10 0 20.5 3t22 12t23.5 25t26 43h53v0z" />
    <glyph glyph-name="Imacron" unicode="&#x12a;" horiz-adv-x="914" 
d="M847 635q-54 -61 -105.5 -113.5t-105.5 -92.5q-41 -78 -92.5 -157.5t-114.5 -144t-137 -105t-159 -40.5q-80 0 -126 42t-47 109l98 62q-13 -48 -13 -82q0 -47 21 -68t50 -21q76 0 164.5 78t182.5 242q-47 -11 -95 -11q-51 0 -102.5 17t-93 51.5t-67.5 88t-26 127.5
q0 102 38 202t99.5 191t138.5 168.5t154.5 134.5t148.5 89t121 32q49 0 82 -51.5t33 -157.5q0 -109 -46 -274t-149 -394q-7 -14 -13 -29q32 31 63.5 66t65.5 73zM417 388q38 0 77 11q25 48 50 102t51 115q45 108 84 211.5t68 194.5t45.5 166t16.5 125q0 40 -12 62t-38 22
q-29 0 -81 -33t-113 -89.5t-124.5 -132.5t-115 -162t-84 -178t-32.5 -180q0 -57 17 -100.5t45.5 -73.5t66.5 -45t79 -15zM589 1601l20 65h359l-23 -65h-356z" />
    <glyph glyph-name="imacron" unicode="&#x12b;" horiz-adv-x="441" 
d="M133 573q3 7 3 11q0 6 -3.5 8.5t-8.5 2.5q-10 0 -18 -11l-198 -245l-25 20l225 278q26 32 54.5 56.5t59.5 24.5q29 0 42 -15.5t13 -34.5t-7 -43t-18 -50l-168 -405q-4 -10 -7 -19.5t-3 -16.5q0 -12 5.5 -16t14.5 -4q14 0 34 14t42 41l183 226l25 -20l-221 -273
q-24 -30 -45 -50t-39.5 -31.5t-37 -16.5t-37.5 -5q-30 0 -50 17.5t-20 44.5q0 25 12 59t33 83l160 370v0zM81 911l20 65h359l-23 -65h-356z" />
    <glyph glyph-name="Ibreve" unicode="&#x12c;" horiz-adv-x="914" 
d="M847 635q-54 -61 -105.5 -113.5t-105.5 -92.5q-41 -78 -92.5 -157.5t-114.5 -144t-137 -105t-159 -40.5q-80 0 -126 42t-47 109l98 62q-13 -48 -13 -82q0 -47 21 -68t50 -21q76 0 164.5 78t182.5 242q-47 -11 -95 -11q-51 0 -102.5 17t-93 51.5t-67.5 88t-26 127.5
q0 102 38 202t99.5 191t138.5 168.5t154.5 134.5t148.5 89t121 32q49 0 82 -51.5t33 -157.5q0 -109 -46 -274t-149 -394q-7 -14 -13 -29q32 31 63.5 66t65.5 73zM417 388q38 0 77 11q25 48 50 102t51 115q45 108 84 211.5t68 194.5t45.5 166t16.5 125q0 40 -12 62t-38 22
q-29 0 -81 -33t-113 -89.5t-124.5 -132.5t-115 -162t-84 -178t-32.5 -180q0 -57 17 -100.5t45.5 -73.5t66.5 -45t79 -15zM1003 1726q-19 -42 -43 -77.5t-55.5 -61t-71.5 -39.5t-90 -14q-33 0 -60 9.5t-46.5 26.5t-30 40.5t-10.5 50.5q0 30 15 65h57q-4 -9 -7 -21t-3 -25
t4.5 -25.5t15.5 -22.5t29.5 -16t47.5 -6q43 0 74 11.5t52.5 29t35 37.5t21.5 38h65v0z" />
    <glyph glyph-name="ibreve" unicode="&#x12d;" horiz-adv-x="441" 
d="M133 573q3 7 3 11q0 6 -3.5 8.5t-8.5 2.5q-10 0 -18 -11l-198 -245l-25 20l225 278q26 32 54.5 56.5t59.5 24.5q29 0 42 -15.5t13 -34.5t-7 -43t-18 -50l-168 -405q-4 -10 -7 -19.5t-3 -16.5q0 -12 5.5 -16t14.5 -4q14 0 34 14t42 41l183 226l25 -20l-221 -273
q-24 -30 -45 -50t-39.5 -31.5t-37 -16.5t-37.5 -5q-30 0 -50 17.5t-20 44.5q0 25 12 59t33 83l160 370v0zM495 1036q-19 -42 -43 -77.5t-55.5 -61t-71.5 -39.5t-90 -14q-33 0 -60 9.5t-46.5 26.5t-30 40.5t-10.5 50.5q0 30 15 65h57q-4 -9 -7 -21t-3 -25t4.5 -25.5
t15.5 -22.5t29.5 -16t47.5 -6q43 0 74 11.5t52.5 29t35 37.5t21.5 38h65v0z" />
    <glyph glyph-name="Iogonek" unicode="&#x12e;" horiz-adv-x="914" 
d="M178 -266q-26 -12 -59.5 -21.5t-65.5 -9.5q-49 0 -68 21.5t-19 49.5q0 33 16 63t42.5 56.5t59.5 49t66 40.5q-5 -1 -8.5 -1h-8.5q-80 0 -126 42t-47 109l98 62q-13 -48 -13 -82q0 -47 21 -68t50 -21q76 0 164.5 78t182.5 242q-47 -11 -95 -11q-51 0 -102.5 17t-93 51.5
t-67.5 88t-26 127.5q0 102 38 202t99.5 191t138.5 168.5t154.5 134.5t148.5 89t121 32q49 0 82 -51.5t33 -157.5q0 -109 -46 -274t-149 -394q-7 -14 -13 -29q32 31 63.5 66t65.5 73l32 -32q-54 -61 -105.5 -113.5t-105.5 -92.5q-35 -67 -78 -135.5t-94 -127.5t-110.5 -104.5
t-126.5 -65.5q-94 -52 -137 -103.5t-43 -98.5q0 -28 15 -39.5t37 -11.5q21 0 41 6.5t28 9.5zM417 388q38 0 77 11q25 48 50 102t51 115q45 108 84 211.5t68 194.5t45.5 166t16.5 125q0 40 -12 62t-38 22q-29 0 -81 -33t-113 -89.5t-124.5 -132.5t-115 -162t-84 -178
t-32.5 -180q0 -57 17 -100.5t45.5 -73.5t66.5 -45t79 -15z" />
    <glyph glyph-name="iogonek" unicode="&#x12f;" horiz-adv-x="441" 
d="M43 -246q-26 -12 -59.5 -21.5t-65.5 -9.5q-49 0 -68 21.5t-19 49.5q0 30 14.5 58t37.5 53.5t53 49t60 44.5q-29 1 -48.5 18t-19.5 44q0 25 12 59t33 83l160 370q3 7 3 11q0 6 -3.5 8.5t-8.5 2.5q-10 0 -18 -11l-198 -245l-25 20l225 278q26 32 54.5 56.5t59.5 24.5
q29 0 42 -15.5t13 -34.5t-7 -43t-18 -50l-168 -405q-4 -10 -7 -19.5t-3 -16.5q0 -12 5.5 -16t14.5 -4q14 0 34 14t42 41l183 226l25 -20l-221 -273q-32 -40 -58 -62t-50 -32q-41 -30 -67.5 -57t-42 -52t-21.5 -46t-6 -39q0 -28 15 -39.5t37 -11.5q21 0 41 6.5t28 9.5z
M370 1115q30 0 47 -21.5t17 -50.5q0 -16 -5.5 -32.5t-16 -29.5t-25 -21.5t-33.5 -8.5q-29 0 -47 22.5t-18 50.5q0 21 7.5 37.5t19 28.5t26 18.5t28.5 6.5z" />
    <glyph glyph-name="Idotaccent" unicode="&#x130;" horiz-adv-x="914" 
d="M847 635q-54 -61 -105.5 -113.5t-105.5 -92.5q-41 -78 -92.5 -157.5t-114.5 -144t-137 -105t-159 -40.5q-80 0 -126 42t-47 109l98 62q-13 -48 -13 -82q0 -47 21 -68t50 -21q76 0 164.5 78t182.5 242q-47 -11 -95 -11q-51 0 -102.5 17t-93 51.5t-67.5 88t-26 127.5
q0 102 38 202t99.5 191t138.5 168.5t154.5 134.5t148.5 89t121 32q49 0 82 -51.5t33 -157.5q0 -109 -46 -274t-149 -394q-7 -14 -13 -29q32 31 63.5 66t65.5 73zM417 388q38 0 77 11q25 48 50 102t51 115q45 108 84 211.5t68 194.5t45.5 166t16.5 125q0 40 -12 62t-38 22
q-29 0 -81 -33t-113 -89.5t-124.5 -132.5t-115 -162t-84 -178t-32.5 -180q0 -57 17 -100.5t45.5 -73.5t66.5 -45t79 -15zM841 1629q0 -29 -21 -50.5t-52 -21.5q-29 0 -50.5 21.5t-21.5 50.5q0 31 21.5 52t50.5 21q31 0 52 -21t21 -52z" />
    <glyph glyph-name="dotlessi" unicode="&#x131;" horiz-adv-x="441" 
d="M133 573q3 7 3 11q0 6 -3.5 8.5t-8.5 2.5q-10 0 -18 -11l-198 -245l-25 20l225 278q26 32 54.5 56.5t59.5 24.5q29 0 42 -15.5t13 -34.5t-7 -43t-18 -50l-168 -405q-4 -10 -7 -19.5t-3 -16.5q0 -12 5.5 -16t14.5 -4q14 0 34 14t42 41l183 226l25 -20l-221 -273
q-24 -30 -45 -50t-39.5 -31.5t-37 -16.5t-37.5 -5q-30 0 -50 17.5t-20 44.5q0 25 12 59t33 83l160 370v0z" />
    <glyph glyph-name="IJ" unicode="&#x132;" horiz-adv-x="1979" 
d="M847 635q-54 -61 -105.5 -113.5t-105.5 -92.5q-41 -78 -92.5 -157.5t-114.5 -144t-137 -105t-159 -40.5q-80 0 -126 42t-47 109l98 62q-13 -48 -13 -82q0 -47 21 -68t50 -21q76 0 164.5 78t182.5 242q-47 -11 -95 -11q-51 0 -102.5 17t-93 51.5t-67.5 88t-26 127.5
q0 102 38 202t99.5 191t138.5 168.5t154.5 134.5t148.5 89t121 32q49 0 82 -51.5t33 -157.5q0 -109 -46 -274t-149 -394q-7 -14 -13 -29q32 31 63.5 66t65.5 73zM417 388q38 0 77 11q25 48 50 102t51 115q45 108 84 211.5t68 194.5t45.5 166t16.5 125q0 40 -12 62t-38 22
q-29 0 -81 -33t-113 -89.5t-124.5 -132.5t-115 -162t-84 -178t-32.5 -180q0 -57 17 -100.5t45.5 -73.5t66.5 -45t79 -15zM1554 -94q-23 4 -45 7.5t-42 8.5q-61 -113 -127 -216t-136 -181t-142.5 -124t-146.5 -46q-30 0 -52.5 11t-37.5 30t-23 42.5t-8 49.5q0 140 90.5 281.5
t287.5 284.5q-61 48 -100.5 104.5t-63 117.5t-32.5 123.5t-9 121.5q0 133 38 252.5t101.5 222t146 185t172 140.5t179.5 89.5t168 31.5q37 0 69.5 -9.5t56.5 -34.5t37.5 -68t13.5 -110q0 -104 -42.5 -267t-143.5 -396q-23 -51 -47.5 -108t-52.5 -120q28 12 56 24.5t58 25.5
l16 -42q-41 -17 -80 -34.5t-78 -36.5q-33 -74 -69.5 -149.5t-75.5 -150.5q19 -5 38.5 -9.5t39.5 -9.5zM1104 527q0 -84 8 -151.5t23.5 -120t38.5 -93t53 -70.5q65 43 139 86t160 86q38 102 70.5 192.5t59.5 159.5q43 110 81.5 212t67 190t45 159.5t16.5 122.5
q0 57 -20.5 80.5t-67.5 23.5q-65 0 -140 -34t-150 -94.5t-144.5 -143t-122.5 -180t-85 -206t-32 -219.5zM1286 -248q28 43 54 91t51 99q-49 16 -90.5 35t-77.5 41q-71 -55 -128.5 -114t-98 -120.5t-63 -126t-22.5 -130.5q0 -41 18 -54t37 -13q56 0 138 70.5t182 221.5z
M1272 55q30 -21 65 -37t76 -30q24 51 46 103.5t42 106.5q-61 -34 -118.5 -69.5t-110.5 -73.5z" />
    <glyph glyph-name="ij" unicode="&#x133;" horiz-adv-x="878" 
d="M809 365q-49 -62 -94.5 -113t-90.5 -95.5t-91 -85t-95 -81.5l-202 -467l-151 -41q131 292 237 527q45 100 88.5 197t78.5 175.5t58 130.5t27 61q3 7 3 11q0 6 -3.5 8.5t-8.5 2.5q-10 0 -18 -11l-198 -245l-192 -237q-24 -30 -45 -50t-39.5 -31.5t-37 -16.5t-37.5 -5
q-30 0 -50 17.5t-20 44.5q0 25 12 59t33 83l160 370q3 7 3 11q0 6 -3.5 8.5t-8.5 2.5q-10 0 -18 -11l-198 -245l-25 20l225 278q26 32 54.5 56.5t59.5 24.5q29 0 42 -15.5t13 -34.5t-7 -43t-18 -50l-168 -405q-4 -10 -7 -19.5t-3 -16.5q0 -12 5.5 -16t14.5 -4q14 0 34 14
t42 41l154 190l225 278q26 32 54.5 56.5t59.5 24.5q29 0 42 -15.5t13 -34.5t-7.5 -43t-18.5 -50l-223 -514q67 57 145.5 135t169.5 189zM811 1115q30 0 47 -21.5t17 -50.5q0 -16 -5.5 -32.5t-16 -29.5t-25 -21.5t-33.5 -8.5q-29 0 -47 22.5t-18 50.5q0 21 7.5 37.5t19 28.5
t26 18.5t28.5 6.5zM370 1115q30 0 47 -21.5t17 -50.5q0 -16 -5.5 -32.5t-16 -29.5t-25 -21.5t-33.5 -8.5q-29 0 -47 22.5t-18 50.5q0 21 7.5 37.5t19 28.5t26 18.5t28.5 6.5z" />
    <glyph glyph-name="Jcircumflex" unicode="&#x134;" horiz-adv-x="1065" 
d="M640 -94q-23 4 -45 7.5t-42 8.5q-61 -113 -127 -216t-136 -181t-142.5 -124t-146.5 -46q-30 0 -52.5 11t-37.5 30t-23 42.5t-8 49.5q0 140 90.5 281.5t287.5 284.5q-61 48 -100.5 104.5t-63 117.5t-32.5 123.5t-9 121.5q0 133 38 252.5t101.5 222t146 185t172 140.5
t179.5 89.5t168 31.5q37 0 69.5 -9.5t56.5 -34.5t37.5 -68t13.5 -110q0 -104 -42.5 -267t-143.5 -396q-23 -51 -47.5 -108t-52.5 -120q28 12 56 24.5t58 25.5l16 -42q-41 -17 -80 -34.5t-78 -36.5q-33 -74 -69.5 -149.5t-75.5 -150.5q19 -5 38.5 -9.5t39.5 -9.5zM190 527
q0 -84 8 -151.5t23.5 -120t38.5 -93t53 -70.5q65 43 139 86t160 86q38 102 70.5 192.5t59.5 159.5q43 110 81.5 212t67 190t45 159.5t16.5 122.5q0 57 -20.5 80.5t-67.5 23.5q-65 0 -140 -34t-150 -94.5t-144.5 -143t-122.5 -180t-85 -206t-32 -219.5zM372 -248q28 43 54 91
t51 99q-49 16 -90.5 35t-77.5 41q-71 -55 -128.5 -114t-98 -120.5t-63 -126t-22.5 -130.5q0 -41 18 -54t37 -13q56 0 138 70.5t182 221.5zM358 55q30 -21 65 -37t76 -30q24 51 46 103.5t42 106.5q-61 -34 -118.5 -69.5t-110.5 -73.5zM906 1542l-34 132l-145 -132h-75
l205 192h91l59 -192h-101z" />
    <glyph glyph-name="jcircumflex" unicode="&#x135;" horiz-adv-x="437" 
d="M368 365q-49 -62 -94.5 -113t-90.5 -95.5t-90.5 -85t-94.5 -81.5l-203 -467l-151 -41q131 292 237 527q45 100 88.5 197t78.5 175.5t58 130.5t27 61q3 7 3 11q0 6 -3.5 8.5t-8.5 2.5q-10 0 -18 -11l-198 -245l-25 20l225 278q26 32 54.5 56.5t59.5 24.5q29 0 42 -15.5
t13 -34.5t-7.5 -43t-18.5 -50l-223 -514q67 57 145.5 135t169.5 189zM317 844l-34 132l-145 -132h-75l205 192h91l59 -192h-101z" />
    <glyph glyph-name="Kcommaaccent" unicode="&#x136;" horiz-adv-x="1203" 
d="M1483 1291q-89 -19 -167 -48t-146.5 -63.5t-126 -72t-104.5 -73.5q-110 -85 -191 -181q-2 -44 -3 -88.5t0 -98.5q1 -104 4.5 -205.5t11.5 -193.5t21.5 -169.5t36 -134.5t54.5 -89t76 -32q24 0 42 5.5t34.5 15.5t33.5 24t38 31l26 -32q-24 -22 -48 -41.5t-50 -34
t-56.5 -23t-68.5 -8.5q-48 0 -88.5 18t-73 61t-56 115t-38 180.5t-19.5 257.5t0 345q0 14 12 37.5t38 56.5q64 79 158.5 164t202.5 164t219.5 146t209.5 110zM153 0l423 989q22 53 45 106.5t41 102t29.5 89.5t11.5 69q0 18 -7.5 29.5t-22.5 11.5q-71 -11 -163 -68
q-39 -24 -86.5 -61t-103 -90.5t-118 -125t-131.5 -165.5l-21 135q97 100 191.5 176.5t179 129t154 79.5t116.5 27q56 0 80 -33.5t24 -85.5q0 -34 -8 -73.5t-20.5 -82t-29 -86t-34.5 -84.5l-426 -989h-124zM370 -335q26 16 51 38t31 44q-24 5 -39 23t-15 39q0 28 19 47t44 19
q29 0 48 -19t19 -48q0 -24 -13 -48.5t-33.5 -47t-45.5 -42.5t-50 -33z" />
    <glyph glyph-name="kcommaaccent" unicode="&#x137;" horiz-adv-x="775" 
d="M377 90q18 0 36 7.5t34.5 18.5t31 25t25.5 28l183 226l25 -20l-221 -273q-49 -60 -89 -81.5t-84 -20.5q-22 0 -43.5 10t-38 28t-27 43t-10.5 55q0 40 16.5 77.5t43 71.5t59 65t65.5 59t54 54.5t33.5 51t17 47.5t4.5 44q0 16 -8.5 27t-20.5 11q-17 0 -33.5 -16.5
t-26.5 -31.5l-326 -487q-39 -58 -68 -83.5t-64 -25.5q-23 0 -32.5 11.5t-9.5 31.5q1 23 12 57.5t31 81.5l195 469q-16 -25 -37 -55.5t-50 -69.5t-66.5 -87t-85.5 -107l-25 20q67 82 116.5 147.5t86 118.5t62.5 95.5t46 80t36.5 71t34.5 68.5l119 286h121
q-75 -178 -132 -314.5t-99.5 -238t-72 -172t-48.5 -116.5q-46 -109 -55 -130q-4 -11 -4 -19q0 -13 8 -13q11 0 24 20l237 364q35 54 74 88.5t81 34.5q16 0 32 -5t29.5 -17.5t22 -33.5t8.5 -53q0 -49 -23 -85t-57.5 -66.5t-75 -57.5t-75 -58.5t-57.5 -69.5t-23 -90
q0 -48 23.5 -72.5t60.5 -24.5zM-11 -335q26 16 51 38t31 44q-24 5 -39 23t-15 39q0 28 19 47t44 19q29 0 48 -19t19 -48q0 -24 -13 -48.5t-33.5 -47t-45.5 -42.5t-50 -33z" />
    <glyph glyph-name="kgreenlandic" unicode="&#x138;" 
d="M117 248q-4 -11 -4 -19q0 -13 8 -13q11 0 24 20l237 364q35 54 74 88.5t81 34.5q16 0 32 -5t29.5 -17.5t22 -33.5t8.5 -53q0 -49 -23 -85t-57.5 -66.5t-75 -57.5t-75 -58.5t-57.5 -69.5t-23 -90q0 -48 23.5 -72.5t60.5 -24.5q18 0 36 7.5t34.5 18.5t31 25t25.5 28
l183 226l25 -20l-221 -273q-49 -60 -89 -81.5t-84 -20.5q-22 0 -43.5 10t-38 28t-27 43t-10.5 55q0 40 16.5 77.5t43 71.5t59 65t65.5 59t54 54.5t33.5 51t17 47.5t4.5 44q0 16 -8.5 27t-20.5 11q-17 0 -33.5 -16.5t-26.5 -31.5l-326 -487q-39 -58 -68 -83.5t-64 -25.5
q-23 0 -32.5 11.5t-9.5 31.5q1 23 12 57.5t31 81.5l162 391q3 7 3 11q0 6 -3.5 8.5t-8.5 2.5q-10 0 -18 -11l-198 -245l-25 20l225 278q26 32 54.5 56.5t59.5 24.5q29 0 42 -15.5t13 -34.5t-7 -43t-18 -50z" />
    <glyph glyph-name="Lacute" unicode="&#x139;" horiz-adv-x="1040" 
d="M860 244q-29 -89 -70 -141t-84.5 -79t-85.5 -34.5t-75 -7.5q-50 0 -92.5 13t-80.5 34t-71 47.5t-63 53.5q-55 -66 -120 -105.5t-143 -39.5q-27 0 -54.5 8.5t-50 26t-36.5 45t-14 65.5q0 39 16.5 75t46 63.5t70 43.5t88.5 16t90.5 -20.5t84.5 -50.5q30 58 57 125.5
t51.5 140t46.5 146.5t43 146q38 134 79 232t83.5 166.5t85.5 112t85 67.5t83 32.5t80 8.5q50 0 89 -14t66 -38.5t41 -57t14 -69.5t-14 -70.5t-38 -62t-56.5 -50.5t-68.5 -36l-30 117q26 1 52.5 8.5t47.5 22.5t34.5 37t13.5 53q0 22 -8.5 44.5t-27 39.5t-48.5 28t-73 11
q-49 0 -90.5 -27t-76.5 -73t-64 -107.5t-54 -129.5t-47 -139.5t-41 -138.5q-21 -70 -46 -146.5t-54.5 -152.5t-64.5 -148.5t-76 -134.5q29 -22 59.5 -43t64 -37t71 -26t79.5 -10q44 0 83 6t71.5 24.5t57.5 52.5t40 90zM-33 35q61 0 113 41t97 111q-39 36 -76.5 60.5
t-76.5 24.5q-38 0 -66.5 -13t-48.5 -33.5t-30 -45t-10 -47.5q0 -45 26 -71.5t72 -26.5zM862 1533h-49l144 194h145z" />
    <glyph glyph-name="lacute" unicode="&#x13a;" horiz-adv-x="415" 
d="M58 170q-4 -10 -7 -19.5t-3 -16.5q0 -12 5.5 -16t14.5 -4q14 0 34 14t42 41l183 226l25 -20l-221 -273q-24 -30 -43.5 -50t-37 -31.5t-35 -16.5t-36.5 -5q-30 0 -50 17.5t-20 44.5q0 25 12.5 59t32.5 83l189 451q-16 -25 -37 -56t-50.5 -70t-67 -87.5t-86.5 -108.5
l-25 20q69 85 120 152.5t88 121.5t63 97t46 81t36.5 72.5t35.5 71.5l114 271h120zM409 1320h-49l144 194h145z" />
    <glyph glyph-name="Lcommaaccent" unicode="&#x13b;" horiz-adv-x="1040" 
d="M860 244q-29 -89 -70 -141t-84.5 -79t-85.5 -34.5t-75 -7.5q-50 0 -92.5 13t-80.5 34t-71 47.5t-63 53.5q-55 -66 -120 -105.5t-143 -39.5q-27 0 -54.5 8.5t-50 26t-36.5 45t-14 65.5q0 39 16.5 75t46 63.5t70 43.5t88.5 16t90.5 -20.5t84.5 -50.5q30 58 57 125.5
t51.5 140t46.5 146.5t43 146q38 134 79 232t83.5 166.5t85.5 112t85 67.5t83 32.5t80 8.5q50 0 89 -14t66 -38.5t41 -57t14 -69.5t-14 -70.5t-38 -62t-56.5 -50.5t-68.5 -36l-30 117q26 1 52.5 8.5t47.5 22.5t34.5 37t13.5 53q0 22 -8.5 44.5t-27 39.5t-48.5 28t-73 11
q-49 0 -90.5 -27t-76.5 -73t-64 -107.5t-54 -129.5t-47 -139.5t-41 -138.5q-21 -70 -46 -146.5t-54.5 -152.5t-64.5 -148.5t-76 -134.5q29 -22 59.5 -43t64 -37t71 -26t79.5 -10q44 0 83 6t71.5 24.5t57.5 52.5t40 90zM-33 35q61 0 113 41t97 111q-39 36 -76.5 60.5
t-76.5 24.5q-38 0 -66.5 -13t-48.5 -33.5t-30 -45t-10 -47.5q0 -45 26 -71.5t72 -26.5zM172 -335q26 16 51 38t31 44q-24 5 -39 23t-15 39q0 28 19 47t44 19q29 0 48 -19t19 -48q0 -24 -13 -48.5t-33.5 -47t-45.5 -42.5t-50 -33z" />
    <glyph glyph-name="lcommaaccent" unicode="&#x13c;" horiz-adv-x="415" 
d="M58 170q-4 -10 -7 -19.5t-3 -16.5q0 -12 5.5 -16t14.5 -4q14 0 34 14t42 41l183 226l25 -20l-221 -273q-24 -30 -43.5 -50t-37 -31.5t-35 -16.5t-36.5 -5q-30 0 -50 17.5t-20 44.5q0 25 12.5 59t32.5 83l189 451q-16 -25 -37 -56t-50.5 -70t-67 -87.5t-86.5 -108.5
l-25 20q69 85 120 152.5t88 121.5t63 97t46 81t36.5 72.5t35.5 71.5l114 271h120zM-166 -335q26 16 51 38t31 44q-24 5 -39 23t-15 39q0 28 19 47t44 19q29 0 48 -19t19 -48q0 -24 -13 -48.5t-33.5 -47t-45.5 -42.5t-50 -33z" />
    <glyph glyph-name="Lcaron" unicode="&#x13d;" horiz-adv-x="1080" 
d="M860 244q-29 -89 -70 -141t-84.5 -79t-85.5 -34.5t-75 -7.5q-50 0 -92.5 13t-80.5 34t-71 47.5t-63 53.5q-55 -66 -120 -105.5t-143 -39.5q-27 0 -54.5 8.5t-50 26t-36.5 45t-14 65.5q0 39 16.5 75t46 63.5t70 43.5t88.5 16t90.5 -20.5t84.5 -50.5q30 58 57 125.5
t51.5 140t46.5 146.5t43 146q38 134 79 232t83.5 166.5t85.5 112t85 67.5t83 32.5t80 8.5q50 0 89 -14t66 -38.5t41 -57t14 -69.5t-14 -70.5t-38 -62t-56.5 -50.5t-68.5 -36l-30 117q26 1 52.5 8.5t47.5 22.5t34.5 37t13.5 53q0 22 -8.5 44.5t-27 39.5t-48.5 28t-73 11
q-49 0 -90.5 -27t-76.5 -73t-64 -107.5t-54 -129.5t-47 -139.5t-41 -138.5q-21 -70 -46 -146.5t-54.5 -152.5t-64.5 -148.5t-76 -134.5q29 -22 59.5 -43t64 -37t71 -26t79.5 -10q44 0 83 6t71.5 24.5t57.5 52.5t40 90zM-33 35q61 0 113 41t97 111q-39 36 -76.5 60.5
t-76.5 24.5q-38 0 -66.5 -13t-48.5 -33.5t-30 -45t-10 -47.5q0 -45 26 -71.5t72 -26.5zM1202 1192q26 16 51 38t31 44q-24 5 -39 23t-15 39q0 28 19 47t44 19q29 0 48 -19t19 -48q0 -24 -13 -48.5t-33.5 -47t-45.5 -42.5t-50 -33z" />
    <glyph glyph-name="lcaron" unicode="&#x13e;" horiz-adv-x="415" 
d="M58 170q-4 -10 -7 -19.5t-3 -16.5q0 -12 5.5 -16t14.5 -4q14 0 34 14t42 41l183 226l25 -20l-221 -273q-24 -30 -43.5 -50t-37 -31.5t-35 -16.5t-36.5 -5q-30 0 -50 17.5t-20 44.5q0 25 12.5 59t32.5 83l189 451q-16 -25 -37 -56t-50.5 -70t-67 -87.5t-86.5 -108.5
l-25 20q69 85 120 152.5t88 121.5t63 97t46 81t36.5 72.5t35.5 71.5l114 271h120zM518 1019q26 16 51 38t31 44q-24 5 -39 23t-15 39q0 28 19 47t44 19q29 0 48 -19t19 -48q0 -24 -13 -48.5t-33.5 -47t-45.5 -42.5t-50 -33z" />
    <glyph glyph-name="Ldot" unicode="&#x13f;" horiz-adv-x="1040" 
d="M860 244q-29 -89 -70 -141t-84.5 -79t-85.5 -34.5t-75 -7.5q-50 0 -92.5 13t-80.5 34t-71 47.5t-63 53.5q-55 -66 -120 -105.5t-143 -39.5q-27 0 -54.5 8.5t-50 26t-36.5 45t-14 65.5q0 39 16.5 75t46 63.5t70 43.5t88.5 16t90.5 -20.5t84.5 -50.5q30 58 57 125.5
t51.5 140t46.5 146.5t43 146q38 134 79 232t83.5 166.5t85.5 112t85 67.5t83 32.5t80 8.5q50 0 89 -14t66 -38.5t41 -57t14 -69.5t-14 -70.5t-38 -62t-56.5 -50.5t-68.5 -36l-30 117q26 1 52.5 8.5t47.5 22.5t34.5 37t13.5 53q0 22 -8.5 44.5t-27 39.5t-48.5 28t-73 11
q-49 0 -90.5 -27t-76.5 -73t-64 -107.5t-54 -129.5t-47 -139.5t-41 -138.5q-21 -70 -46 -146.5t-54.5 -152.5t-64.5 -148.5t-76 -134.5q29 -22 59.5 -43t64 -37t71 -26t79.5 -10q44 0 83 6t71.5 24.5t57.5 52.5t40 90zM-33 35q61 0 113 41t97 111q-39 36 -76.5 60.5
t-76.5 24.5q-38 0 -66.5 -13t-48.5 -33.5t-30 -45t-10 -47.5q0 -45 26 -71.5t72 -26.5zM814 554q0 -30 -21.5 -51.5t-52.5 -21.5q-29 0 -50.5 21.5t-21.5 51.5q0 29 21.5 50.5t50.5 21.5q31 0 52.5 -21.5t21.5 -50.5z" />
    <glyph glyph-name="ldotaccent" unicode="&#x140;" horiz-adv-x="526" 
d="M58 170q-4 -10 -7 -19.5t-3 -16.5q0 -12 5.5 -16t14.5 -4q14 0 34 14t42 41l183 226l25 -20l-221 -273q-24 -30 -43.5 -50t-37 -31.5t-35 -16.5t-36.5 -5q-30 0 -50 17.5t-20 44.5q0 25 12.5 59t32.5 83l189 451q-16 -25 -37 -56t-50.5 -70t-67 -87.5t-86.5 -108.5
l-25 20q69 85 120 152.5t88 121.5t63 97t46 81t36.5 72.5t35.5 71.5l114 271h120zM471 554q0 -30 -21.5 -51.5t-52.5 -21.5q-29 0 -50.5 21.5t-21.5 51.5q0 29 21.5 50.5t50.5 21.5q31 0 52.5 -21.5t21.5 -50.5z" />
    <glyph glyph-name="Lslash" unicode="&#x141;" horiz-adv-x="1040" 
d="M860 244q-29 -89 -70 -141t-84.5 -79t-85.5 -34.5t-75 -7.5q-50 0 -92.5 13t-80.5 34t-71 47.5t-63 53.5q-55 -66 -120 -105.5t-143 -39.5q-27 0 -54.5 8.5t-50 26t-36.5 45t-14 65.5q0 39 16.5 75t46 63.5t70 43.5t88.5 16t90.5 -20.5t84.5 -50.5q36 70 67.5 152.5
t60.5 171.5l-216 -56l12 68l226 59q12 42 24.5 82t23.5 81q38 134 79 232t83.5 166.5t85.5 112t85 67.5t83 32.5t80 8.5q50 0 89 -14t66 -38.5t41 -57t14 -69.5t-14 -70.5t-38 -62t-56.5 -50.5t-68.5 -36l-30 117q26 1 52.5 8.5t47.5 22.5t34.5 37t13.5 53q0 22 -8.5 44.5
t-27 39.5t-48.5 28t-73 11q-49 0 -90.5 -27t-76.5 -73t-64 -107.5t-54 -129.5t-47 -139.5t-41 -138.5q-7 -23 -14 -47t-15 -48l292 76l-12 -68l-304 -79q-37 -109 -83 -217.5t-105 -198.5q29 -22 59.5 -43t64 -37t71 -26t79.5 -10q44 0 83 6t71.5 24.5t57.5 52.5t40 90z
M-33 35q61 0 113 41t97 111q-39 36 -76.5 60.5t-76.5 24.5q-38 0 -66.5 -13t-48.5 -33.5t-30 -45t-10 -47.5q0 -45 26 -71.5t72 -26.5z" />
    <glyph glyph-name="lslash" unicode="&#x142;" horiz-adv-x="415" 
d="M243 609l129 51l-6 -61l-153 -61l-155 -368q-4 -10 -7 -19.5t-3 -16.5q0 -12 5.5 -16t14.5 -4q14 0 34 14t42 41l183 226l25 -20l-221 -273q-24 -30 -43.5 -50t-37 -31.5t-35 -16.5t-36.5 -5q-30 0 -50 17.5t-20 44.5q0 25 12.5 59t32.5 83l117 279l-113 -44l5 61l138 54
l279 666h120z" />
    <glyph glyph-name="Nacute" unicode="&#x143;" horiz-adv-x="1310" 
d="M1092 954q22 53 45.5 106.5t42.5 102.5t31 86.5t12 64.5q0 20 -9.5 31t-25.5 11q-80 0 -183 -73q-44 -31 -97 -80.5t-112.5 -119t-125 -163t-135.5 -216.5l-300 -704h-125l466 1098q22 52 43.5 105t38 101t27 88.5t10.5 68.5q0 46 -32 46q-68 -7 -158 -62
q-38 -23 -85 -59.5t-102 -89t-117 -124t-131 -164.5l-20 122q97 100 190 177t175.5 129t150.5 79t115 27q59 0 83.5 -35.5t24.5 -91.5q0 -34 -7 -73t-19 -80t-27.5 -83t-32.5 -81l-79 -184q99 144 183 237.5t155 148t130 76t109 21.5q54 0 81 -34.5t27 -91.5q0 -33 -7 -72
t-19 -80t-27.5 -83.5t-31.5 -81.5l-281 -663q-65 -153 -103 -252t-38 -147q0 -20 8.5 -32.5t27.5 -12.5q7 0 20 4.5t31.5 16.5t43.5 34t55 57l31 -27q-38 -44 -68.5 -70t-55.5 -39.5t-45 -17.5t-37 -4q-33 0 -55.5 10.5t-36 28t-19.5 40t-6 46.5q0 39 10.5 83.5t27 92t37 96
t40.5 93.5zM996 1539h-49l144 194h145z" />
    <glyph glyph-name="nacute" unicode="&#x144;" horiz-adv-x="787" 
d="M133 573q3 7 3 11q0 6 -3.5 8.5t-8.5 2.5q-10 0 -18 -11l-198 -245l-25 20l225 278q26 32 54.5 56.5t59.5 24.5q29 0 42 -15.5t13 -34.5t-7 -43t-18 -50l-139 -327q-6 -14 -6 -22q0 -10 8 -10q11 0 24 20l209 311q32 48 57.5 81.5t48 54.5t43 30.5t42.5 9.5q38 0 58 -15
t20 -44q0 -17 -5 -35.5t-10 -32.5l-174 -426q-4 -10 -7 -19.5t-3 -16.5q0 -12 5.5 -16t14.5 -4q14 0 34 14t42 41l183 226l25 -20l-221 -273q-24 -30 -45 -50t-39.5 -31.5t-37 -16.5t-37.5 -5q-30 0 -50 17.5t-20 44.5q0 25 12 59t33 83l162 383q3 7 3 15q0 20 -19 20
q-8 0 -17.5 -5t-19.5 -20l-330 -490q-39 -58 -68.5 -82.5t-57.5 -24.5q-46 0 -46 44q0 23 11.5 57t31.5 82l166 391v0zM358 844h-49l144 194h145z" />
    <glyph glyph-name="Ncommaaccent" unicode="&#x145;" horiz-adv-x="1310" 
d="M1092 954q22 53 45.5 106.5t42.5 102.5t31 86.5t12 64.5q0 20 -9.5 31t-25.5 11q-80 0 -183 -73q-44 -31 -97 -80.5t-112.5 -119t-125 -163t-135.5 -216.5l-300 -704h-125l466 1098q22 52 43.5 105t38 101t27 88.5t10.5 68.5q0 46 -32 46q-68 -7 -158 -62
q-38 -23 -85 -59.5t-102 -89t-117 -124t-131 -164.5l-20 122q97 100 190 177t175.5 129t150.5 79t115 27q59 0 83.5 -35.5t24.5 -91.5q0 -34 -7 -73t-19 -80t-27.5 -83t-32.5 -81l-79 -184q99 144 183 237.5t155 148t130 76t109 21.5q54 0 81 -34.5t27 -91.5q0 -33 -7 -72
t-19 -80t-27.5 -83.5t-31.5 -81.5l-281 -663q-65 -153 -103 -252t-38 -147q0 -20 8.5 -32.5t27.5 -12.5q7 0 20 4.5t31.5 16.5t43.5 34t55 57l31 -27q-38 -44 -68.5 -70t-55.5 -39.5t-45 -17.5t-37 -4q-33 0 -55.5 10.5t-36 28t-19.5 40t-6 46.5q0 39 10.5 83.5t27 92t37 96
t40.5 93.5zM336 -335q26 16 51 38t31 44q-24 5 -39 23t-15 39q0 28 19 47t44 19q29 0 48 -19t19 -48q0 -24 -13 -48.5t-33.5 -47t-45.5 -42.5t-50 -33z" />
    <glyph glyph-name="ncommaaccent" unicode="&#x146;" horiz-adv-x="787" 
d="M133 573q3 7 3 11q0 6 -3.5 8.5t-8.5 2.5q-10 0 -18 -11l-198 -245l-25 20l225 278q26 32 54.5 56.5t59.5 24.5q29 0 42 -15.5t13 -34.5t-7 -43t-18 -50l-139 -327q-6 -14 -6 -22q0 -10 8 -10q11 0 24 20l209 311q32 48 57.5 81.5t48 54.5t43 30.5t42.5 9.5q38 0 58 -15
t20 -44q0 -17 -5 -35.5t-10 -32.5l-174 -426q-4 -10 -7 -19.5t-3 -16.5q0 -12 5.5 -16t14.5 -4q14 0 34 14t42 41l183 226l25 -20l-221 -273q-24 -30 -45 -50t-39.5 -31.5t-37 -16.5t-37.5 -5q-30 0 -50 17.5t-20 44.5q0 25 12 59t33 83l162 383q3 7 3 15q0 20 -19 20
q-8 0 -17.5 -5t-19.5 -20l-330 -490q-39 -58 -68.5 -82.5t-57.5 -24.5q-46 0 -46 44q0 23 11.5 57t31.5 82l166 391v0zM50 -335q26 16 51 38t31 44q-24 5 -39 23t-15 39q0 28 19 47t44 19q29 0 48 -19t19 -48q0 -24 -13 -48.5t-33.5 -47t-45.5 -42.5t-50 -33z" />
    <glyph glyph-name="Ncaron" unicode="&#x147;" horiz-adv-x="1310" 
d="M1092 954q22 53 45.5 106.5t42.5 102.5t31 86.5t12 64.5q0 20 -9.5 31t-25.5 11q-80 0 -183 -73q-44 -31 -97 -80.5t-112.5 -119t-125 -163t-135.5 -216.5l-300 -704h-125l466 1098q22 52 43.5 105t38 101t27 88.5t10.5 68.5q0 46 -32 46q-68 -7 -158 -62
q-38 -23 -85 -59.5t-102 -89t-117 -124t-131 -164.5l-20 122q97 100 190 177t175.5 129t150.5 79t115 27q59 0 83.5 -35.5t24.5 -91.5q0 -34 -7 -73t-19 -80t-27.5 -83t-32.5 -81l-79 -184q99 144 183 237.5t155 148t130 76t109 21.5q54 0 81 -34.5t27 -91.5q0 -33 -7 -72
t-19 -80t-27.5 -83.5t-31.5 -81.5l-281 -663q-65 -153 -103 -252t-38 -147q0 -20 8.5 -32.5t27.5 -12.5q7 0 20 4.5t31.5 16.5t43.5 34t55 57l31 -27q-38 -44 -68.5 -70t-55.5 -39.5t-45 -17.5t-37 -4q-33 0 -55.5 10.5t-36 28t-19.5 40t-6 46.5q0 39 10.5 83.5t27 92t37 96
t40.5 93.5zM1035 1731l34 -132l145 132h75l-205 -192h-91l-59 192h101z" />
    <glyph glyph-name="ncaron" unicode="&#x148;" horiz-adv-x="787" 
d="M133 573q3 7 3 11q0 6 -3.5 8.5t-8.5 2.5q-10 0 -18 -11l-198 -245l-25 20l225 278q26 32 54.5 56.5t59.5 24.5q29 0 42 -15.5t13 -34.5t-7 -43t-18 -50l-139 -327q-6 -14 -6 -22q0 -10 8 -10q11 0 24 20l209 311q32 48 57.5 81.5t48 54.5t43 30.5t42.5 9.5q38 0 58 -15
t20 -44q0 -17 -5 -35.5t-10 -32.5l-174 -426q-4 -10 -7 -19.5t-3 -16.5q0 -12 5.5 -16t14.5 -4q14 0 34 14t42 41l183 226l25 -20l-221 -273q-24 -30 -45 -50t-39.5 -31.5t-37 -16.5t-37.5 -5q-30 0 -50 17.5t-20 44.5q0 25 12 59t33 83l162 383q3 7 3 15q0 20 -19 20
q-8 0 -17.5 -5t-19.5 -20l-330 -490q-39 -58 -68.5 -82.5t-57.5 -24.5q-46 0 -46 44q0 23 11.5 57t31.5 82l166 391v0zM397 1036l34 -132l145 132h75l-205 -192h-91l-59 192h101z" />
    <glyph glyph-name="napostrophe" unicode="&#x149;" horiz-adv-x="787" 
d="M133 573q3 7 3 11q0 6 -3.5 8.5t-8.5 2.5q-10 0 -18 -11l-198 -245l-25 20l225 278q26 32 54.5 56.5t59.5 24.5q29 0 42 -15.5t13 -34.5t-7 -43t-18 -50l-139 -327q-6 -14 -6 -22q0 -10 8 -10q11 0 24 20l209 311q32 48 57.5 81.5t48 54.5t43 30.5t42.5 9.5q38 0 58 -15
t20 -44q0 -17 -5 -35.5t-10 -32.5l-174 -426q-4 -10 -7 -19.5t-3 -16.5q0 -12 5.5 -16t14.5 -4q14 0 34 14t42 41l183 226l25 -20l-221 -273q-24 -30 -45 -50t-39.5 -31.5t-37 -16.5t-37.5 -5q-30 0 -50 17.5t-20 44.5q0 25 12 59t33 83l162 383q3 7 3 15q0 20 -19 20
q-8 0 -17.5 -5t-19.5 -20l-330 -490q-39 -58 -68.5 -82.5t-57.5 -24.5q-46 0 -46 44q0 23 11.5 57t31.5 82l166 391v0zM125 1019q26 16 51 38t31 44q-24 5 -39 23t-15 39q0 28 19 47t44 19q29 0 48 -19t19 -48q0 -24 -13 -48.5t-33.5 -47t-45.5 -42.5t-50 -33z" />
    <glyph glyph-name="Eng" unicode="&#x14a;" horiz-adv-x="1283" 
d="M1092 954q22 53 45.5 106.5t42.5 102.5t31 89.5t12 67.5q0 20 -9.5 31t-29.5 11q-74 0 -179 -72q-46 -35 -98 -86t-111.5 -120.5t-125 -163t-135.5 -216.5l-300 -704h-125l466 1098q22 52 43.5 105t38 101t27 88.5t10.5 68.5q0 46 -32 46q-68 -7 -158 -62
q-38 -23 -85 -59.5t-102 -89t-117 -124t-131 -164.5l-20 122q97 100 190 177t175.5 129t150.5 79t115 27q59 0 83.5 -35.5t24.5 -91.5q0 -34 -7 -73t-19 -80t-27.5 -83t-32.5 -81l-79 -184q99 144 183 237.5t155 148t130 76t109 21.5q60 0 84 -34.5t24 -91.5q0 -33 -7 -72
t-19 -80t-27.5 -83.5t-31.5 -81.5l-168 -397q-23 -51 -47.5 -108t-52.5 -120q28 12 56 24.5t58 25.5l16 -42q-41 -17 -80 -34.5t-78 -36.5q-47 -102 -99.5 -209.5t-110 -209t-119 -191t-126 -156.5t-131 -106t-134.5 -39q-30 0 -52.5 11t-37.5 30t-23 42.5t-8 49.5
q0 94 40.5 189.5t127 191.5t221.5 192.5t324 192.5q45 104 83 197.5t66 164.5zM559 -248q54 97 107.5 208.5t103.5 224.5q-120 -68 -223.5 -144t-179.5 -159.5t-119.5 -172.5t-43.5 -182q0 -41 18 -54t37 -13q28 0 61.5 16t72 51.5t80.5 91t86 133.5z" />
    <glyph glyph-name="eng" unicode="&#x14b;" horiz-adv-x="799" 
d="M730 365q-51 -65 -98 -117t-93.5 -97.5t-93.5 -87t-99 -84.5l-189 -456l-151 -41q127 296 229 534q43 101 85.5 199.5t76.5 177.5t56 131.5t26 61.5q3 7 3 15q0 20 -19 20q-8 0 -17.5 -5t-19.5 -20l-330 -490q-39 -58 -68.5 -82.5t-57.5 -24.5q-46 0 -46 44q0 23 11.5 57
t31.5 82l166 391q3 7 3 11q0 6 -3.5 8.5t-8.5 2.5q-10 0 -18 -11l-198 -245l-25 20l225 278q26 32 54.5 56.5t59.5 24.5q29 0 42 -15.5t13 -34.5t-7 -43t-18 -50l-139 -327q-6 -14 -6 -22q0 -10 8 -10q11 0 24 20l209 311q32 48 57.5 81.5t48 54.5t43 30.5t42.5 9.5
q38 0 58 -15t20 -44q0 -17 -4.5 -35.5t-10.5 -32.5l-228 -549q70 59 152.5 140t178.5 198z" />
    <glyph glyph-name="Omacron" unicode="&#x14c;" horiz-adv-x="1162" 
d="M1039 1131q0 22 -2 51t-7 59t-15 58.5t-26 51t-39 36.5t-55 14q-45 0 -89.5 -27.5t-85.5 -74.5t-76.5 -110t-61.5 -134t-41 -146.5t-15 -146.5q0 -107 30.5 -160t102.5 -53q25 0 44.5 6t33 14t21.5 16t10 13l10 -27q-20 -30 -43 -47.5t-46 -27t-43 -12.5t-34 -3
q-88 0 -137 71.5t-49 202.5q0 72 21 150.5t57.5 154t84.5 144t101.5 120t109.5 82t109 30.5q36 0 77.5 -18t77.5 -61.5t59.5 -116.5t23.5 -183q0 -140 -38 -274.5t-102 -255t-148 -222.5t-176.5 -175.5t-187 -115t-179.5 -41.5q-69 0 -125 28.5t-95 79.5t-60 121.5
t-21 155.5q0 79 14.5 168.5t48.5 186.5q31 88 68.5 162.5t77.5 136t81.5 110.5t79.5 87q90 89 184 143l18 -23q-61 -52 -123 -137q-27 -36 -56.5 -83.5t-60.5 -106t-62 -130t-60 -155.5q-38 -109 -57 -207.5t-19 -181.5q0 -66 12.5 -120.5t36.5 -93t58 -60t77 -21.5
q65 0 142.5 48t156 130.5t152 191.5t130.5 231t91 250t34 247zM709 1604l20 65h359l-23 -65h-356z" />
    <glyph glyph-name="omacron" unicode="&#x14d;" horiz-adv-x="668" 
d="M594 362q-32 -41 -60 -69t-55 -46t-52.5 -27t-51.5 -12q-30 -44 -66.5 -82.5t-77 -67t-85.5 -45t-91 -16.5q-37 0 -72 12.5t-62.5 38t-44 64t-16.5 90.5q0 81 29 160.5t81 148.5t125 124t161 88l9 -14q-77 -67 -132.5 -143t-91.5 -152.5t-53.5 -148.5t-17.5 -131
q0 -19 4 -36.5t12.5 -31t20.5 -21.5t29 -8q22 0 48.5 15t54.5 40.5t56.5 60.5t55.5 75q-48 26 -69 74.5t-21 105.5q0 53 19 103.5t49 89.5t66 62.5t70 23.5q18 0 39 -8t39 -27t30 -51t12 -80q0 -64 -23 -135.5t-63 -140.5q18 4 36.5 13t39 25t44 40.5t51.5 59.5zM198 411
q0 -54 17.5 -94t54.5 -60q27 43 50 89t40 90.5t27 85t10 72.5q0 16 -5 26t-12.5 15.5t-16 7.5t-14.5 2q-19 0 -45 -19.5t-49.5 -52t-40 -75t-16.5 -87.5zM186 911l20 65h359l-23 -65h-356z" />
    <glyph glyph-name="Obreve" unicode="&#x14e;" horiz-adv-x="1162" 
d="M1039 1131q0 22 -2 51t-7 59t-15 58.5t-26 51t-39 36.5t-55 14q-45 0 -89.5 -27.5t-85.5 -74.5t-76.5 -110t-61.5 -134t-41 -146.5t-15 -146.5q0 -107 30.5 -160t102.5 -53q25 0 44.5 6t33 14t21.5 16t10 13l10 -27q-20 -30 -43 -47.5t-46 -27t-43 -12.5t-34 -3
q-88 0 -137 71.5t-49 202.5q0 72 21 150.5t57.5 154t84.5 144t101.5 120t109.5 82t109 30.5q36 0 77.5 -18t77.5 -61.5t59.5 -116.5t23.5 -183q0 -140 -38 -274.5t-102 -255t-148 -222.5t-176.5 -175.5t-187 -115t-179.5 -41.5q-69 0 -125 28.5t-95 79.5t-60 121.5
t-21 155.5q0 79 14.5 168.5t48.5 186.5q31 88 68.5 162.5t77.5 136t81.5 110.5t79.5 87q90 89 184 143l18 -23q-61 -52 -123 -137q-27 -36 -56.5 -83.5t-60.5 -106t-62 -130t-60 -155.5q-38 -109 -57 -207.5t-19 -181.5q0 -66 12.5 -120.5t36.5 -93t58 -60t77 -21.5
q65 0 142.5 48t156 130.5t152 191.5t130.5 231t91 250t34 247zM1123 1729q-19 -42 -43 -77.5t-55.5 -61t-71.5 -39.5t-90 -14q-33 0 -60 9.5t-46.5 26.5t-30 40.5t-10.5 50.5q0 30 15 65h57q-4 -9 -7 -21t-3 -25t4.5 -25.5t15.5 -22.5t29.5 -16t47.5 -6q43 0 74 11.5
t52.5 29t35 37.5t21.5 38h65v0z" />
    <glyph glyph-name="obreve" unicode="&#x14f;" horiz-adv-x="668" 
d="M594 362q-32 -41 -60 -69t-55 -46t-52.5 -27t-51.5 -12q-30 -44 -66.5 -82.5t-77 -67t-85.5 -45t-91 -16.5q-37 0 -72 12.5t-62.5 38t-44 64t-16.5 90.5q0 81 29 160.5t81 148.5t125 124t161 88l9 -14q-77 -67 -132.5 -143t-91.5 -152.5t-53.5 -148.5t-17.5 -131
q0 -19 4 -36.5t12.5 -31t20.5 -21.5t29 -8q22 0 48.5 15t54.5 40.5t56.5 60.5t55.5 75q-48 26 -69 74.5t-21 105.5q0 53 19 103.5t49 89.5t66 62.5t70 23.5q18 0 39 -8t39 -27t30 -51t12 -80q0 -64 -23 -135.5t-63 -140.5q18 4 36.5 13t39 25t44 40.5t51.5 59.5zM198 411
q0 -54 17.5 -94t54.5 -60q27 43 50 89t40 90.5t27 85t10 72.5q0 16 -5 26t-12.5 15.5t-16 7.5t-14.5 2q-19 0 -45 -19.5t-49.5 -52t-40 -75t-16.5 -87.5zM600 1036q-19 -42 -43 -77.5t-55.5 -61t-71.5 -39.5t-90 -14q-33 0 -60 9.5t-46.5 26.5t-30 40.5t-10.5 50.5
q0 30 15 65h57q-4 -9 -7 -21t-3 -25t4.5 -25.5t15.5 -22.5t29.5 -16t47.5 -6q43 0 74 11.5t52.5 29t35 37.5t21.5 38h65v0z" />
    <glyph glyph-name="Ohungarumlaut" unicode="&#x150;" horiz-adv-x="1162" 
d="M1039 1131q0 22 -2 51t-7 59t-15 58.5t-26 51t-39 36.5t-55 14q-45 0 -89.5 -27.5t-85.5 -74.5t-76.5 -110t-61.5 -134t-41 -146.5t-15 -146.5q0 -107 30.5 -160t102.5 -53q25 0 44.5 6t33 14t21.5 16t10 13l10 -27q-20 -30 -43 -47.5t-46 -27t-43 -12.5t-34 -3
q-88 0 -137 71.5t-49 202.5q0 72 21 150.5t57.5 154t84.5 144t101.5 120t109.5 82t109 30.5q36 0 77.5 -18t77.5 -61.5t59.5 -116.5t23.5 -183q0 -140 -38 -274.5t-102 -255t-148 -222.5t-176.5 -175.5t-187 -115t-179.5 -41.5q-69 0 -125 28.5t-95 79.5t-60 121.5
t-21 155.5q0 79 14.5 168.5t48.5 186.5q31 88 68.5 162.5t77.5 136t81.5 110.5t79.5 87q90 89 184 143l18 -23q-61 -52 -123 -137q-27 -36 -56.5 -83.5t-60.5 -106t-62 -130t-60 -155.5q-38 -109 -57 -207.5t-19 -181.5q0 -66 12.5 -120.5t36.5 -93t58 -60t77 -21.5
q65 0 142.5 48t156 130.5t152 191.5t130.5 231t91 250t34 247zM732 1537h-49l144 194h145zM934 1537h-49l144 194h145z" />
    <glyph glyph-name="ohungarumlaut" unicode="&#x151;" horiz-adv-x="668" 
d="M594 362q-32 -41 -60 -69t-55 -46t-52.5 -27t-51.5 -12q-30 -44 -66.5 -82.5t-77 -67t-85.5 -45t-91 -16.5q-37 0 -72 12.5t-62.5 38t-44 64t-16.5 90.5q0 81 29 160.5t81 148.5t125 124t161 88l9 -14q-77 -67 -132.5 -143t-91.5 -152.5t-53.5 -148.5t-17.5 -131
q0 -19 4 -36.5t12.5 -31t20.5 -21.5t29 -8q22 0 48.5 15t54.5 40.5t56.5 60.5t55.5 75q-48 26 -69 74.5t-21 105.5q0 53 19 103.5t49 89.5t66 62.5t70 23.5q18 0 39 -8t39 -27t30 -51t12 -80q0 -64 -23 -135.5t-63 -140.5q18 4 36.5 13t39 25t44 40.5t51.5 59.5zM198 411
q0 -54 17.5 -94t54.5 -60q27 43 50 89t40 90.5t27 85t10 72.5q0 16 -5 26t-12.5 15.5t-16 7.5t-14.5 2q-19 0 -45 -19.5t-49.5 -52t-40 -75t-16.5 -87.5zM209 844h-49l144 194h145zM411 844h-49l144 194h145z" />
    <glyph glyph-name="OE" unicode="&#x152;" horiz-adv-x="1684" 
d="M1039 1131q0 22 -2 51t-7 59t-15 58.5t-26 51t-39 36.5t-55 14q-45 0 -89.5 -27.5t-85.5 -74.5t-76.5 -110t-61.5 -134t-41 -146.5t-15 -146.5q0 -107 30.5 -160t102.5 -53q25 0 44.5 6t33 14t21.5 16t10 13l10 -27q-20 -30 -43 -47.5t-46 -27t-43 -12.5t-34 -3
q-88 0 -137 71.5t-49 202.5q0 72 21 150.5t57.5 154t84.5 144t101.5 120t109.5 82t109 30.5q36 0 77.5 -18t77.5 -61.5t59.5 -116.5t23.5 -183q0 -6 -0.5 -12.5t-0.5 -12.5q11 2 21 3.5t21 3.5q11 69 45.5 139.5t85.5 127.5t116.5 93t139.5 36q52 0 85.5 -34.5t33.5 -88.5
q0 -47 -27 -89.5t-78.5 -80t-126 -69t-170.5 -55.5q5 -23 12.5 -43.5t15 -40t12.5 -38.5t5 -40q0 -62 -30 -104t-75 -75.5t-97.5 -64.5t-97.5 -71.5t-75 -97t-30 -140.5q0 -66 24.5 -115t63.5 -82t86.5 -49t92.5 -16q30 0 65.5 3.5t79.5 19t97 46.5t116 86l26 -32
q-68 -57 -126 -92.5t-110.5 -55.5t-102 -27t-100.5 -7q-67 0 -126.5 16.5t-106 48.5t-76.5 79.5t-37 109.5q-57 -60 -118.5 -109t-123.5 -83t-123 -52.5t-117 -18.5q-69 0 -125 28.5t-95 79.5t-60 121.5t-21 155.5q0 79 14.5 168.5t48.5 186.5q31 88 68.5 162.5t77.5 136
t81.5 110.5t79.5 87q90 89 184 143l18 -23q-61 -52 -123 -137q-27 -36 -56.5 -83.5t-60.5 -106t-62 -130t-60 -155.5q-38 -109 -57 -207.5t-19 -181.5q0 -66 12.5 -120.5t36.5 -93t58 -60t77 -21.5q65 0 142.5 48t156 130.5t152 191.5t130.5 231t91 250t34 247zM1287 1060
q153 38 231.5 103t78.5 154q0 38 -18 55.5t-51 17.5q-30 0 -71 -22.5t-79 -63.5t-64.5 -100t-26.5 -132v-12zM1144 988q-6 -93 -29 -181.5t-58 -173.5q33 20 62 38.5t51.5 38t35.5 40t13 44.5q0 14 -5.5 30.5t-12.5 38.5t-12.5 50t-5.5 65v16q-9 -2 -19 -3t-20 -3z" />
    <glyph glyph-name="oe" unicode="&#x153;" horiz-adv-x="1008" 
d="M472 40q36 0 78.5 16t96 55t118.5 105.5t146 167.5l25 -20q-69 -88 -127 -149.5t-106 -102t-86.5 -63t-68.5 -33.5t-53 -13.5t-39 -2.5q-21 0 -45.5 5t-47.5 17t-42 33t-29 53q-52 -51 -112 -81t-125 -30q-37 0 -72 12.5t-62.5 38t-44 64t-16.5 90.5q0 81 29 160.5
t81 148.5t125 124t161 88l9 -14q-77 -67 -132.5 -143t-91.5 -152.5t-53.5 -148.5t-17.5 -131q0 -19 4 -36.5t12.5 -31t20.5 -21.5t29 -8q22 0 48.5 15t54.5 40.5t56.5 60.5t55.5 75q-48 26 -69 74.5t-21 105.5q0 53 19 103.5t49 89.5t66 62.5t70 23.5q15 0 33 -5.5t34.5 -19
t29.5 -36t19 -55.5q36 34 73 61.5t73 46.5t69 29.5t59 10.5q53 0 76.5 -31.5t23.5 -80.5q0 -45 -20 -87t-53 -79.5t-76.5 -69t-91 -54t-96 -35.5t-90.5 -13q-13 -38 -20.5 -72t-7.5 -63q0 -54 21 -74t51 -20zM722 678q-27 0 -65 -34.5t-78.5 -89.5t-78 -122.5t-62.5 -134.5
q71 12 129.5 48.5t100 85t64 102.5t22.5 99q0 27 -9 36.5t-23 9.5zM198 411q0 -54 17.5 -94t54.5 -60q27 43 50 89t40 90.5t27 85t10 72.5q0 16 -5 26t-12.5 15.5t-16 7.5t-14.5 2q-19 0 -45 -19.5t-49.5 -52t-40 -75t-16.5 -87.5z" />
    <glyph glyph-name="Racute" unicode="&#x154;" horiz-adv-x="1081" 
d="M1141 1155q0 -103 -40.5 -181.5t-107 -139t-151.5 -106t-175 -81.5q-53 -22 -86 -34.5t-51.5 -20t-25 -11.5t-6.5 -10q0 -2 2 -10q51 -155 119 -316q29 -69 64 -145.5t76 -156t87.5 -159.5t98.5 -155l-136 -35q-111 177 -216.5 407.5t-196.5 496.5q-4 11 -7 22.5t-3 22.5
q0 29 14.5 42.5t47 25.5t84.5 29.5t127 53.5q73 36 136.5 80.5t111 102t74.5 129.5t27 161q0 66 -16.5 110.5t-43.5 71.5t-61 38.5t-70 11.5q-39 0 -90 -19t-107 -67.5t-114 -131.5t-111 -210l-406 -971h-129l406 971q46 110 109 196.5t137.5 146t157.5 91t167 31.5
q53 0 107 -17t98 -52t71.5 -87.5t27.5 -124.5zM783 1537h-49l144 194h145z" />
    <glyph glyph-name="racute" unicode="&#x155;" horiz-adv-x="501" 
d="M142 170q-4 -10 -7 -19.5t-3 -16.5q0 -12 5.5 -16t14.5 -4q14 0 34 14t42 41l183 226l25 -20l-221 -273q-24 -30 -44.5 -50t-38.5 -31.5t-36 -16.5t-37 -5q-30 0 -48.5 17.5t-18.5 44.5q0 25 12 59t33 83l140 334q5 12 10 25t9 25t6.5 21.5t2.5 14.5t-3.5 7.5t-8.5 2.5
q-13 0 -28 1t-30 5q-17 -24 -39 -54t-50.5 -67.5t-64 -83.5t-79.5 -102l-25 20q76 97 131 168.5t95 128.5q-23 10 -38.5 27.5t-15.5 46.5q0 11 6.5 31t19 39t31.5 33t44 14q20 0 37.5 -11.5t17.5 -35.5q0 -17 -12 -44t-44 -65q15 -7 29 -8t29 -1q19 0 34.5 1.5t29.5 1.5
q28 0 39 -14t11 -32q0 -19 -8.5 -46t-16.5 -47l-154 -369v0zM256 947h-49l144 194h145z" />
    <glyph glyph-name="Rcommaaccent" unicode="&#x156;" horiz-adv-x="1081" 
d="M1141 1155q0 -103 -40.5 -181.5t-107 -139t-151.5 -106t-175 -81.5q-53 -22 -86 -34.5t-51.5 -20t-25 -11.5t-6.5 -10q0 -2 2 -10q51 -155 119 -316q29 -69 64 -145.5t76 -156t87.5 -159.5t98.5 -155l-136 -35q-111 177 -216.5 407.5t-196.5 496.5q-4 11 -7 22.5t-3 22.5
q0 29 14.5 42.5t47 25.5t84.5 29.5t127 53.5q73 36 136.5 80.5t111 102t74.5 129.5t27 161q0 66 -16.5 110.5t-43.5 71.5t-61 38.5t-70 11.5q-39 0 -90 -19t-107 -67.5t-114 -131.5t-111 -210l-406 -971h-129l406 971q46 110 109 196.5t137.5 146t157.5 91t167 31.5
q53 0 107 -17t98 -52t71.5 -87.5t27.5 -124.5zM184 -285q26 16 51 38t31 44q-24 5 -39 23t-15 39q0 28 19 47t44 19q29 0 48 -19t19 -48q0 -24 -13 -48.5t-33.5 -47t-45.5 -42.5t-50 -33z" />
    <glyph glyph-name="rcommaaccent" unicode="&#x157;" horiz-adv-x="501" 
d="M142 170q-4 -10 -7 -19.5t-3 -16.5q0 -12 5.5 -16t14.5 -4q14 0 34 14t42 41l183 226l25 -20l-221 -273q-24 -30 -44.5 -50t-38.5 -31.5t-36 -16.5t-37 -5q-30 0 -48.5 17.5t-18.5 44.5q0 25 12 59t33 83l140 334q5 12 10 25t9 25t6.5 21.5t2.5 14.5t-3.5 7.5t-8.5 2.5
q-13 0 -28 1t-30 5q-17 -24 -39 -54t-50.5 -67.5t-64 -83.5t-79.5 -102l-25 20q76 97 131 168.5t95 128.5q-23 10 -38.5 27.5t-15.5 46.5q0 11 6.5 31t19 39t31.5 33t44 14q20 0 37.5 -11.5t17.5 -35.5q0 -17 -12 -44t-44 -65q15 -7 29 -8t29 -1q19 0 34.5 1.5t29.5 1.5
q28 0 39 -14t11 -32q0 -19 -8.5 -46t-16.5 -47l-154 -369v0zM-219 -265q26 16 51 38t31 44q-24 5 -39 23t-15 39q0 28 19 47t44 19q29 0 48 -19t19 -48q0 -24 -13 -48.5t-33.5 -47t-45.5 -42.5t-50 -33z" />
    <glyph glyph-name="Rcaron" unicode="&#x158;" horiz-adv-x="1081" 
d="M1141 1155q0 -103 -40.5 -181.5t-107 -139t-151.5 -106t-175 -81.5q-53 -22 -86 -34.5t-51.5 -20t-25 -11.5t-6.5 -10q0 -2 2 -10q51 -155 119 -316q29 -69 64 -145.5t76 -156t87.5 -159.5t98.5 -155l-136 -35q-111 177 -216.5 407.5t-196.5 496.5q-4 11 -7 22.5t-3 22.5
q0 29 14.5 42.5t47 25.5t84.5 29.5t127 53.5q73 36 136.5 80.5t111 102t74.5 129.5t27 161q0 66 -16.5 110.5t-43.5 71.5t-61 38.5t-70 11.5q-39 0 -90 -19t-107 -67.5t-114 -131.5t-111 -210l-406 -971h-129l406 971q46 110 109 196.5t137.5 146t157.5 91t167 31.5
q53 0 107 -17t98 -52t71.5 -87.5t27.5 -124.5zM822 1729l34 -132l145 132h75l-205 -192h-91l-59 192h101z" />
    <glyph glyph-name="rcaron" unicode="&#x159;" horiz-adv-x="501" 
d="M142 170q-4 -10 -7 -19.5t-3 -16.5q0 -12 5.5 -16t14.5 -4q14 0 34 14t42 41l183 226l25 -20l-221 -273q-24 -30 -44.5 -50t-38.5 -31.5t-36 -16.5t-37 -5q-30 0 -48.5 17.5t-18.5 44.5q0 25 12 59t33 83l140 334q5 12 10 25t9 25t6.5 21.5t2.5 14.5t-3.5 7.5t-8.5 2.5
q-13 0 -28 1t-30 5q-17 -24 -39 -54t-50.5 -67.5t-64 -83.5t-79.5 -102l-25 20q76 97 131 168.5t95 128.5q-23 10 -38.5 27.5t-15.5 46.5q0 11 6.5 31t19 39t31.5 33t44 14q20 0 37.5 -11.5t17.5 -35.5q0 -17 -12 -44t-44 -65q15 -7 29 -8t29 -1q19 0 34.5 1.5t29.5 1.5
q28 0 39 -14t11 -32q0 -19 -8.5 -46t-16.5 -47l-154 -369v0zM295 1139l34 -132l145 132h75l-205 -192h-91l-59 192h101z" />
    </font>
</defs>
</svg>
